<svg width="97" height="97" viewBox="0 0 97 97" fill="none" xmlns="http://www.w3.org/2000/svg">
<path d="M95.4404 93.8051H92.9198C92.6276 90.75 91.1111 88.0761 88.8293 86.64V3.01286C88.8293 2.2477 88.3111 1.6267 87.6699 1.6267H57.3391C57.2104 1.02788 56.7779 0.575989 56.2365 0.575989C55.695 0.575989 55.2614 1.02788 55.1338 1.6267H38.1539C38.0252 1.02788 37.5928 0.575989 37.0513 0.575989C36.5098 0.575989 36.0762 1.02788 35.9487 1.6267H28.4089C27.7677 1.6267 27.2494 2.2477 27.2494 3.01286C27.2494 3.77802 27.7677 4.39902 28.4089 4.39902H35.8919V8.14859H13.858C13.2168 8.14859 12.6985 8.76959 12.6985 9.53475V38.0356C12.6985 38.8008 13.2168 39.4218 13.858 39.4218C14.4991 39.4218 15.0174 38.8008 15.0174 38.0356V10.9209H35.8919V16.7151C33.2089 17.361 31.1811 20.1985 31.1811 23.5932C31.1811 27.4634 33.8142 30.6113 37.0513 30.6113C40.2884 30.6113 42.9215 27.4634 42.9215 23.5932C42.9215 20.1985 40.8937 17.361 38.2107 16.7151V10.9209H55.077V16.7151C52.3929 17.361 50.3662 20.1985 50.3662 23.5932C50.3662 27.4634 52.9993 30.6113 56.2365 30.6113C59.4736 30.6113 62.1067 27.4634 62.1067 23.5932C62.1067 20.1985 60.0788 17.361 57.3959 16.7151V10.9209H81.0553V58.1058C81.031 58.2195 81.0171 58.3373 81.0171 58.4607V86.6414C80.6947 86.8451 80.391 87.0836 80.0953 87.3386C79.6223 86.8313 79.1005 86.3794 78.5231 86.0162V51.0933C78.5231 50.3281 78.0048 49.7071 77.3637 49.7071H52.9912C52.35 49.7071 51.8318 50.3281 51.8318 51.0933C51.8318 51.8584 52.35 52.4794 52.9912 52.4794H76.2042V86.8992C76.2042 87.4648 76.4906 87.9721 76.9289 88.1842C78.7295 89.0533 79.9794 90.951 80.2855 93.1813H68.952C69.2581 90.951 70.5068 89.0533 72.3074 88.1842C72.7456 87.9721 73.032 87.4634 73.032 86.8992V56.4619C73.032 55.6967 72.5138 55.0757 71.8726 55.0757H39.1592C38.518 55.0757 37.9997 55.6967 37.9997 56.4619V86.8632C37.9997 87.4356 38.2931 87.9485 38.7394 88.1551C40.5795 89.0089 41.856 90.9205 42.1633 93.1813H30.8298C31.1335 90.9828 32.3556 89.0977 34.1156 88.2133C34.5469 87.997 34.8263 87.4939 34.8263 86.9352V52.4794H43.0769C43.7181 52.4794 44.2363 51.8584 44.2363 51.0933C44.2363 50.3281 43.7181 49.7071 43.0769 49.7071H33.6669C33.0257 49.7071 32.5075 50.3281 32.5075 51.0933V86.0647C30.1214 87.6145 28.5944 90.5393 28.4634 93.8051H19.1091C18.8169 90.75 17.3003 88.0761 15.0174 86.64V49.6711C15.0174 48.9059 14.4991 48.2849 13.858 48.2849C13.2168 48.2849 12.6985 48.9059 12.6985 49.6711V87.5244C12.6985 88.0899 12.9849 88.5972 13.4232 88.8093C15.2238 89.6784 16.4737 91.5761 16.7797 93.8064H5.44628C5.75237 91.5761 7.00108 89.6784 8.80168 88.8093C9.23995 88.5972 9.52633 88.0885 9.52633 87.5244V58.81C9.55068 58.6977 9.56343 58.5799 9.56343 58.4593V4.39764H10.6023C11.2434 4.39764 11.7617 3.77664 11.7617 3.01147C11.7617 2.24631 11.2434 1.62531 10.6023 1.62531H8.40284C7.76167 1.62531 7.2434 2.24631 7.2434 3.01147V58.1086C7.21905 58.2209 7.2063 58.3387 7.2063 58.4593V86.6386C4.92337 88.0747 3.40799 90.7486 3.11582 93.8037H1.76045C1.11928 93.8037 0.601013 94.4247 0.601013 95.1898C0.601013 95.955 1.11928 96.576 1.76045 96.576H4.2138H18.0111H82.0408H91.823H95.4416C96.0827 96.576 96.601 95.955 96.601 95.1898C96.601 94.4247 96.0816 93.8051 95.4404 93.8051ZM40.6038 23.5918C40.6038 25.933 39.0107 27.8376 37.0525 27.8376C35.0953 27.8376 33.5011 25.933 33.5011 23.5918C33.5011 21.7094 34.5376 20.1278 35.958 19.5733C36.1006 20.1444 36.5261 20.57 37.0513 20.57C37.5765 20.57 38.002 20.1458 38.1446 19.5747C39.5661 20.1278 40.6038 21.7094 40.6038 23.5918ZM59.7878 23.5918C59.7878 25.933 58.1947 27.8376 56.2365 27.8376C54.2782 27.8376 52.6851 25.933 52.6851 23.5918C52.6851 21.7094 53.7217 20.1278 55.1431 19.5733C55.2857 20.1444 55.7112 20.57 56.2365 20.57C56.7617 20.57 57.1872 20.1458 57.3298 19.5747C58.7513 20.1278 59.7878 21.7094 59.7878 23.5918ZM38.2107 8.14859V4.39902H55.077V8.14859H38.2107ZM40.3186 85.9663V57.848H70.7108V86.0162C68.2749 87.5507 66.7166 90.4935 66.5844 93.8064H44.5297C44.3963 90.445 42.8056 87.4828 40.3186 85.9663ZM82.6507 93.8051C82.5892 92.2484 82.2217 90.7721 81.5829 89.4886C81.9075 89.2224 82.2461 88.9854 82.6113 88.8079C83.0495 88.5959 83.3359 88.0871 83.3359 87.523V58.8156C83.3603 58.7019 83.3742 58.5841 83.3742 58.4607V9.53475C83.3742 8.76959 82.8559 8.14859 82.2147 8.14859H57.3959V4.39902H86.5105V87.523C86.5105 88.0885 86.7968 88.5959 87.2351 88.8079C89.0357 89.6771 90.2844 91.5747 90.5905 93.8051H82.6507Z" fill="black"/>
<path d="M16.6592 1.62537C16.018 1.62537 15.4997 2.24637 15.4997 3.01153C15.4997 3.77669 16.018 4.39769 16.6592 4.39769H20.5143C21.1554 4.39769 21.6737 3.77669 21.6737 3.01153C21.6737 2.24637 21.1554 1.62537 20.5143 1.62537H16.6592Z" fill="black"/>
</svg>
