<svg width="46" height="97" viewBox="0 0 46 97" fill="none" xmlns="http://www.w3.org/2000/svg">
<path d="M28.9679 25.9686C29.0414 25.9686 29.0904 25.9196 29.0904 25.8462C29.0904 25.7727 29.0414 25.7237 28.9679 25.7237C28.7476 25.7237 28.5026 25.4421 28.4292 25.3441C28.3924 25.2828 28.3189 25.2706 28.2577 25.3074C28.1965 25.3441 28.1842 25.4176 28.221 25.4788C28.2414 25.4911 28.5639 25.9686 28.9679 25.9686Z" fill="black"/>
<path d="M15.8813 25.4305C15.82 25.4549 15.7834 25.5162 15.8078 25.5896C15.8078 25.602 15.918 25.9448 15.6119 26.1285C15.5506 26.1652 15.5384 26.2386 15.5751 26.2999C15.5997 26.3367 15.6363 26.3611 15.6731 26.3611C15.6976 26.3611 15.7221 26.3611 15.7343 26.3367C16.114 26.1039 16.0894 25.6836 16.0282 25.4999C16.016 25.4427 15.9547 25.406 15.8813 25.4305Z" fill="black"/>
<path d="M18.2773 39.117C18.2529 39.2272 18.2651 39.3374 18.3263 39.4354C18.3508 39.4721 18.3875 39.4966 18.4365 39.4966C18.461 39.4966 18.4855 39.4966 18.4977 39.4844C18.5589 39.4476 18.5712 39.3741 18.5345 39.3129C18.4977 39.2517 18.4977 39.2027 18.51 39.1782C18.5712 38.9333 19.1631 38.5741 19.9836 38.0965C20.7346 37.6557 21.4448 37.4312 22.049 37.4557H22.0734C22.1469 37.4557 22.1959 37.4066 22.1959 37.3332C22.1959 37.2597 22.1469 37.2107 22.0734 37.2107H22.049C21.4081 37.1985 20.649 37.4312 19.8611 37.8884C18.8447 38.4802 18.3508 38.7986 18.2773 39.117Z" fill="black"/>
<path d="M14.2491 39.8432H14.2981C14.69 39.8432 16.5961 39.5126 17.2573 38.9085L17.392 38.7983C17.9676 38.2717 18.4002 37.9002 19.4084 37.5206C19.4697 37.4962 19.5063 37.4226 19.4819 37.3615C19.4574 37.3002 19.384 37.2635 19.3227 37.2879C18.2656 37.6798 17.837 38.0758 17.2329 38.6145L17.0982 38.7247C16.4818 39.2757 14.5063 39.6227 14.2859 39.5983C14.2246 39.5859 14.1511 39.6349 14.1511 39.6962C14.1389 39.7696 14.1879 39.831 14.2491 39.8432Z" fill="black"/>
<path d="M23.131 37.2142C23.1922 37.2264 23.2534 37.1774 23.2657 37.1039C23.2657 37.1039 23.2902 36.9203 23.4126 36.8713C23.486 36.8468 23.6943 36.8468 24.1637 37.3122C24.3106 37.4591 24.4453 37.606 24.5922 37.7529C25.4535 38.6387 26.3474 39.5489 27.2454 39.6713C27.2577 39.6713 27.625 39.7203 28.0333 39.7203C28.4618 39.7203 28.9312 39.6591 28.9924 39.4387C29.0414 39.255 28.8455 39.0835 28.3393 38.8876C26.9516 38.3366 26.176 38.3244 26.1392 38.3244C26.0658 38.3244 26.0168 38.3733 26.0168 38.4469C26.0168 38.5203 26.0658 38.5692 26.1392 38.5692C26.1515 38.5692 26.9025 38.5815 28.2413 39.1081C28.5965 39.255 28.6944 39.3407 28.7312 39.3775C28.5965 39.4632 27.9556 39.5244 27.2699 39.4265C26.4454 39.3162 25.5882 38.4304 24.7515 37.5815C24.6045 37.4345 24.4697 37.2876 24.3228 37.1407C23.9065 36.7243 23.5718 36.5529 23.3147 36.6386C23.0453 36.7243 23.0085 37.055 23.0085 37.0672C23.0207 37.1407 23.0575 37.2019 23.131 37.2142Z" fill="black"/>
<path d="M24.2982 36.6593C24.3594 36.6715 24.4206 36.6471 24.4451 36.5859C24.5063 36.5491 24.69 36.4512 25.3064 36.2062C26.2533 35.8388 27.1636 35.8634 27.8738 36.2675C28.4004 36.5736 28.9555 37.1777 28.9064 37.3736C28.8942 37.4226 28.7839 37.4593 28.6248 37.4593C28.5513 37.4593 28.5023 37.5083 28.5023 37.5818C28.5023 37.6552 28.5513 37.7042 28.6248 37.7042C28.9187 37.7042 29.0901 37.6186 29.1391 37.4349C29.2494 37.0186 28.4616 36.3287 27.9962 36.0471C27.2206 35.6062 26.241 35.5818 25.2206 35.9736C24.1879 36.3655 24.1879 36.4389 24.2002 36.537C24.2002 36.5859 24.2369 36.6349 24.2982 36.6593Z" fill="black"/>
<path d="M26.9753 39.8923C25.6976 39.2025 24.0649 38.5045 24.0527 38.5045C23.9915 38.4801 23.918 38.5045 23.8936 38.5658C23.869 38.627 23.8936 38.7005 23.9548 38.7249C23.967 38.7373 25.5875 39.427 26.8528 40.1005C27.8977 40.6638 28.5345 40.8393 29.0407 40.9863C29.1508 41.023 29.2611 41.0475 29.3713 41.0843C29.555 41.1454 29.6039 41.2679 29.5794 41.3781C29.5304 41.5372 29.2855 41.6475 28.9264 41.5496C28.608 41.4516 28.3754 41.4271 28.163 41.4026C27.8447 41.3659 27.5875 41.3291 27.1181 41.0475C27.0569 41.0107 26.9834 41.0353 26.9467 41.0843C26.91 41.1332 26.9344 41.219 26.9834 41.2556C27.4977 41.574 27.7958 41.6108 28.1264 41.6475C28.3223 41.672 28.5428 41.6965 28.8529 41.7822C28.9754 41.819 29.0978 41.8312 29.1957 41.8312C29.5387 41.8312 29.7468 41.6597 29.8122 41.4516C29.8734 41.2312 29.7754 40.9618 29.4448 40.8638C29.3346 40.8271 29.2244 40.8026 29.1141 40.7659C28.6244 40.619 28.008 40.4475 26.9753 39.8923Z" fill="black"/>
<path d="M30.6127 42.4346C30.7229 42.4959 30.8208 42.5449 30.9311 42.5938C31.4331 42.8509 31.8045 43.0346 32.0985 43.4673C32.1229 43.504 32.1597 43.5163 32.1964 43.5163C32.2209 43.5163 32.2454 43.504 32.2698 43.4918C32.3311 43.4551 32.3434 43.3816 32.3066 43.3204C31.976 42.8305 31.5678 42.6183 31.0535 42.3612C30.9555 42.3122 30.8576 42.2631 30.7474 42.2019C30.6005 42.1285 30.3188 41.9815 30.2086 41.8836C30.2576 41.8713 30.3311 41.8591 30.4658 41.8468C30.9801 41.7978 31.8903 42.6959 32.1964 43.0509C32.2454 43.0999 32.3188 43.1122 32.3677 43.0631C32.4167 43.0141 32.429 42.9407 32.3801 42.8918C32.2576 42.7571 31.176 41.5285 30.4371 41.6019C30.1432 41.6264 29.9595 41.6754 29.9228 41.8345C29.8657 42.0182 30.0739 42.153 30.6127 42.4346Z" fill="black"/>
<path d="M29.2741 42.9414H29.3844H29.4334C29.5068 42.9414 29.5557 42.8924 29.5557 42.819C29.5557 42.7455 29.5068 42.6965 29.4334 42.6965H29.3721C29.2251 42.7087 28.9191 42.7211 27.8007 42.3903C27.7394 42.3659 27.6659 42.4027 27.6536 42.4761C27.6292 42.5374 27.666 42.6108 27.7394 42.6231C28.6741 42.9047 29.0659 42.9414 29.2741 42.9414Z" fill="black"/>
<path d="M30.923 47.5496C30.9108 47.5496 29.5843 47.4026 28.9556 46.6515C28.576 46.1985 28.2535 45.6312 28.0576 45.2392C27.8862 44.8964 27.6903 44.5739 27.4821 44.2677C26.8168 43.284 26.7433 42.9901 26.7311 42.9166C26.927 42.8554 27.2698 43.0024 27.7515 43.2106C27.8495 43.2473 27.9474 43.2963 28.0576 43.3453C28.1188 43.3697 28.1923 43.3453 28.2169 43.284C28.2413 43.2228 28.2169 43.1494 28.1556 43.1249C28.0454 43.0759 27.9474 43.0391 27.8495 42.9902C27.2617 42.7331 26.878 42.5616 26.5964 42.7085C26.5474 42.7331 26.5107 42.782 26.4984 42.831C26.4739 42.9166 26.4249 43.1249 27.2862 44.4024C27.4822 44.6964 27.6781 45.0311 27.8495 45.3495C28.0576 45.7535 28.3882 46.3331 28.7842 46.7985C29.474 47.6229 30.8496 47.7699 30.9108 47.7822H30.9231C30.9844 47.7822 31.0333 47.7331 31.0456 47.6719C31.0456 47.6107 30.9965 47.5496 30.923 47.5496Z" fill="black"/>
<path d="M29.4204 47.978C29.3714 47.9045 28.9183 47.2392 28.6449 47.3617C28.4734 47.4351 28.5102 47.7167 28.5714 47.978C28.7673 48.7413 28.6449 49.5128 28.6081 49.7331C28.5959 49.7944 28.6326 49.8678 28.7061 49.8923H28.7306C28.7673 49.8923 28.8286 49.8801 28.853 49.7822V49.7576C28.902 49.5005 29.0123 48.7127 28.8163 47.9127C28.7796 47.7535 28.7673 47.6556 28.7673 47.6066C28.8776 47.6801 29.0857 47.9004 29.2204 48.1086L29.2571 48.1576C29.453 48.4515 29.6123 48.6841 29.3673 49.0434C29.3306 49.1046 29.3429 49.1781 29.4041 49.2148C29.4654 49.2515 29.5388 49.2393 29.5755 49.1781C29.9183 48.6882 29.6735 48.3045 29.4653 48.0107L29.4204 47.978Z" fill="black"/>
<path d="M26.6085 44.4388C25.3677 42.5693 24.7146 41.9449 24.6901 41.9203C24.433 41.6631 23.939 41.3325 23.7187 41.4672C23.682 41.4918 23.5962 41.5652 23.6452 41.7366C23.682 41.8591 23.8289 42.153 24.0615 42.5856C24.4534 43.3489 25.0452 44.5163 25.5595 45.7326C26.3351 47.5775 26.1351 48.7694 26.1351 48.7817C26.1228 48.843 26.1718 48.9164 26.2331 48.9286C26.2943 48.941 26.3678 48.892 26.38 48.8307C26.3922 48.7817 26.5881 47.5654 25.7759 45.6469C25.2616 44.4183 24.6698 43.2509 24.2779 42.4877C24.0942 42.1203 23.935 41.8224 23.8861 41.6999C24.0085 41.7366 24.2779 41.8836 24.5146 42.1162C24.5268 42.1285 25.1799 42.7571 26.4085 44.5857C27.3678 46.0225 27.4902 47.349 27.5881 48.3083C27.6127 48.59 27.6372 48.8226 27.6739 49.0471C27.6862 49.1083 27.7351 49.145 27.7963 49.145H27.8209C27.8821 49.1328 27.9311 49.0716 27.9188 48.9981C27.8821 48.79 27.8575 48.5573 27.8331 48.2838C27.7392 47.2879 27.6044 45.9368 26.6085 44.4388Z" fill="black"/>
<path d="M22.665 41.7617C22.7384 41.7617 22.7874 41.7004 22.7874 41.6392V41.5535C22.9099 41.7372 23.118 42.1291 23.3017 42.4882C23.3874 42.6473 23.4731 42.8188 23.5589 42.9781C23.6201 43.1004 23.6936 43.2229 23.7548 43.3331C24.2324 44.2189 24.518 44.7455 24.7262 45.9251C24.8364 46.5414 24.8364 47.3986 24.8364 48.0272C24.8364 48.8762 24.8364 49.0599 25.0079 49.0843H25.0201C25.0814 49.0843 25.1304 49.0353 25.1426 48.9741C25.1426 48.9374 25.1304 48.9006 25.1058 48.8638C25.0814 48.7659 25.0814 48.3741 25.0814 48.0148C25.0814 47.3741 25.0814 46.5047 24.9711 45.8761C24.7507 44.672 24.4446 44.0924 23.9752 43.2107C23.914 43.1004 23.8527 42.978 23.7793 42.8555C23.6936 42.6841 23.6078 42.5249 23.5221 42.3657C23.0324 41.4309 22.8813 41.1617 22.6853 41.2106C22.5384 41.2472 22.5384 41.4554 22.5384 41.6391C22.5425 41.7125 22.5915 41.7617 22.665 41.7617Z" fill="black"/>
<path d="M23.8698 48.9613C23.8085 48.949 23.7351 48.9857 23.7228 49.047C23.6616 48.9123 23.5391 48.5326 23.38 47.4999C23.2085 46.3448 23.1473 45.7039 23.1105 45.2386C23.0738 44.6876 23.0371 44.3161 22.8535 43.6059C22.8411 43.5447 22.7677 43.4958 22.7064 43.5202C22.6452 43.5324 22.5963 43.6059 22.6207 43.6671C22.8044 44.357 22.8289 44.7121 22.8657 45.2508C22.9024 45.7285 22.9514 46.3814 23.1351 47.5366C23.3922 49.2061 23.5759 49.3571 23.7228 49.3693H23.7351C23.8943 49.3693 23.9432 49.1734 23.9678 49.1122C23.98 49.0469 23.931 48.9857 23.8698 48.9613Z" fill="black"/>
<path d="M21.4372 44.5245C21.3637 44.5245 21.3147 44.5857 21.3269 44.6592C21.4249 45.8632 21.4004 45.9735 21.2657 46.6266C21.2167 46.8959 21.1432 47.2674 21.0453 47.8552C20.8248 49.2797 20.9351 49.3164 21.0453 49.3532C21.0575 49.3532 21.0698 49.3654 21.0943 49.3654C21.18 49.3654 21.2535 49.292 21.3147 49.145C21.3392 49.0838 21.3147 49.0104 21.2535 48.9858C21.229 48.9736 21.1922 48.9736 21.1678 48.9858C21.1678 48.8144 21.2045 48.496 21.2903 47.9041C21.3759 47.3286 21.4494 46.9572 21.5106 46.6878C21.6453 46.0102 21.6698 45.8877 21.5719 44.6468C21.5596 44.5734 21.5106 44.5245 21.4372 44.5245Z" fill="black"/>
<path d="M19.3954 46.5903C19.2485 46.6516 19.1994 46.8475 19.3831 47.721C19.3954 47.7822 19.4566 47.8312 19.5301 47.819C19.5913 47.8066 19.6403 47.7454 19.6281 47.6719C19.5301 47.2066 19.5178 46.9822 19.5178 46.872C19.5545 46.9087 19.6035 46.9822 19.677 47.0924C20.1668 47.8556 20.2403 49.4394 20.2403 49.4517C20.2403 49.5128 20.3015 49.574 20.3628 49.574C20.4362 49.574 20.4852 49.5129 20.4852 49.4517C20.4852 49.3781 20.4118 47.7822 19.8688 46.9577C19.7015 46.6883 19.5545 46.5291 19.3954 46.5903Z" fill="black"/>
<path d="M19.1634 48.6394C19.1266 48.5782 19.0532 48.566 18.9919 48.6027C18.9307 48.6394 18.9185 48.7129 18.9552 48.7741C19.2859 49.264 19.4206 49.8068 19.4206 49.8068C19.4328 49.8681 19.4818 49.9047 19.543 49.9047H19.5675C19.6287 49.8925 19.6777 49.8191 19.6532 49.7578C19.6532 49.7211 19.5062 49.1701 19.1634 48.6394Z" fill="black"/>
<path d="M18.0077 48.7658C15.9178 48.2761 15.526 48.5209 14.8607 48.9128C14.7994 48.9495 14.7504 48.9862 14.6893 49.023C14.6281 49.0598 14.6157 49.1332 14.6403 49.1945C14.6647 49.2311 14.7015 49.2556 14.7504 49.2556C14.775 49.2556 14.7872 49.2556 14.8117 49.2434C14.8729 49.2067 14.9341 49.1699 14.9831 49.1332C15.6118 48.7536 15.9546 48.5455 17.9424 49.0108C18.0036 49.023 18.0771 48.9862 18.0893 48.925C18.1179 48.8393 18.0689 48.7781 18.0077 48.7658Z" fill="black"/>
<path d="M19.0526 40.863C19.2608 40.6916 19.4689 40.508 19.6812 40.2997C19.7301 40.2508 19.7301 40.1774 19.6812 40.1284C19.6322 40.0793 19.5588 40.0793 19.5098 40.1284C19.3016 40.3243 19.0935 40.508 18.8811 40.6793C18.4158 41.0712 17.9832 41.4427 17.6158 41.9937C17.4935 42.1774 17.4077 42.312 17.5057 42.4101C17.5302 42.4345 17.5547 42.4467 17.5914 42.4467C17.6894 42.4467 17.8363 42.3121 18.3179 41.8835C18.6853 41.5651 19.1792 41.1202 19.7179 40.6917C21.1057 39.5977 21.4363 38.9487 21.4485 38.9243C21.4731 38.8631 21.4485 38.7896 21.3995 38.765C21.3383 38.7406 21.2648 38.7528 21.2404 38.814C21.2404 38.8263 20.9098 39.4427 19.5832 40.4958C19.0445 40.9244 18.5383 41.3692 18.1709 41.6998C18.1587 41.7121 18.1587 41.7121 18.1465 41.7243C18.424 41.3896 18.7301 41.1324 19.0526 40.863Z" fill="black"/>
<path d="M20.9178 40.3332C20.9546 40.272 20.93 40.1985 20.8688 40.1618C20.8076 40.1251 20.7341 40.1495 20.6974 40.2108C20.6974 40.223 20.2566 40.9741 18.8647 42.7293C18.6198 43.0476 18.4117 43.317 18.2239 43.5538C17.3993 44.6232 17.179 44.9049 16.134 45.46C15.5585 45.766 15.2238 45.8885 15.0647 45.9253C15.1014 45.8885 15.1626 45.8273 15.2606 45.7538C15.9137 45.2518 16.4524 44.7701 16.9423 44.1211C17.2974 43.668 17.6688 43.3089 17.9994 42.9905C18.1219 42.8802 18.2321 42.7701 18.3301 42.6721C18.3791 42.6232 18.3791 42.5496 18.3301 42.5007C18.281 42.4517 18.2076 42.4517 18.1586 42.5007C18.0607 42.5986 17.9382 42.7089 17.828 42.8191C17.4974 43.1375 17.1014 43.4966 16.7463 43.9743C16.2565 44.6028 15.7381 45.0682 15.1013 45.558C14.7829 45.8151 14.6728 45.9743 14.7585 46.0967C14.783 46.1212 14.8075 46.1824 14.9422 46.1824C15.1137 46.1824 15.481 46.0845 16.2443 45.6804C17.3382 45.1049 17.583 44.7702 18.4076 43.7008C18.5913 43.4681 18.7872 43.1987 19.0484 42.8885C20.4648 41.1089 20.8933 40.3618 20.9178 40.3332Z" fill="black"/>
<path d="M15.4288 44.4638C15.7104 44.2311 15.9554 44.0352 16.1676 43.7128C16.2044 43.6516 16.1921 43.578 16.1309 43.5414C16.0697 43.5046 15.9962 43.5169 15.9594 43.578C15.7635 43.872 15.5554 44.0435 15.2696 44.2801C15.0247 44.4883 14.743 44.7088 14.3839 45.0925C13.6206 45.9169 13.7308 46.2843 13.7553 46.3455C13.7798 46.3944 13.8287 46.419 13.8655 46.419C13.8777 46.419 13.9023 46.419 13.9145 46.4068C13.9757 46.3822 14.0002 46.3088 13.9757 46.2475C13.9757 46.2475 13.9023 45.9537 14.5512 45.2516C14.9104 44.8801 15.192 44.6598 15.4288 44.4638Z" fill="black"/>
<path d="M21.3515 61.7292C21.3759 61.7782 21.4127 61.8026 21.4617 61.8026C21.4739 61.8026 21.4984 61.8026 21.5107 61.7904C21.5719 61.766 21.5964 61.6924 21.5719 61.6313C21.2412 60.8312 19.1758 58.9659 19.0901 58.8924C19.0412 58.8434 18.9678 58.8556 18.9188 58.9046C18.8698 58.9535 18.882 59.0271 18.931 59.076C18.9432 59.0842 21.0412 60.9781 21.3515 61.7292Z" fill="black"/>
<path d="M23.5228 61.5046H23.5473C23.6085 61.5046 23.6575 61.4678 23.6698 61.4067C23.829 60.68 24.7515 59.4883 26.3964 58.5821C26.4576 58.5453 26.4822 58.4719 26.4454 58.4107C26.4087 58.3494 26.3352 58.325 26.2739 58.3617C24.5678 59.3209 23.6086 60.5495 23.4373 61.3495C23.4127 61.4311 23.4616 61.4924 23.5228 61.5046Z" fill="black"/>
<path d="M22.1717 52.2151C22.1717 52.2151 22.2207 52.1417 22.2942 52.0927C22.3187 52.0804 22.3554 52.0682 22.3677 52.0927C22.4044 52.1171 22.4411 52.1661 22.4657 52.2274C22.4779 52.2764 22.4779 52.3131 22.4411 52.3621C22.4044 52.4111 22.3432 52.4355 22.331 52.4355C22.2698 52.4111 22.1962 52.4478 22.1717 52.5091C22.1473 52.5702 22.184 52.6438 22.2452 52.6682C22.2698 52.6804 22.2942 52.6804 22.3187 52.6804C22.4167 52.6804 22.5146 52.6314 22.588 52.5458C22.6983 52.4233 22.7228 52.2764 22.6616 52.1417C22.6248 52.0437 22.5636 51.9702 22.4901 51.909C22.3921 51.8355 22.2452 51.8355 22.1351 51.909C22.0248 51.9824 21.9514 52.0804 21.9514 52.0927C21.9146 52.1539 21.9268 52.2274 21.9758 52.2641C22.0615 52.2927 22.135 52.2804 22.1717 52.2151Z" fill="black"/>
<path d="M16.6566 64.9822C16.7423 65.0312 18.7587 66.2352 19.9751 66.3821C20.4772 66.4434 21.1547 66.4556 21.8078 66.4678C22.4731 66.4801 23.3793 66.4924 23.4895 66.5903C23.5263 66.6515 23.4895 66.725 23.4773 66.774C23.3793 66.9577 23.0854 67.1781 22.5426 67.2271C22.4691 67.2271 22.4201 67.2883 22.4324 67.3618C22.4324 67.423 22.4936 67.472 22.5548 67.472H22.5671C23.2079 67.4108 23.5752 67.1291 23.6977 66.8842C23.7711 66.7372 23.7834 66.5903 23.7099 66.4678C23.5998 66.2719 23.1058 66.2475 21.816 66.2229C21.1751 66.2107 20.5016 66.1985 20.0077 66.1372C18.8403 65.9903 16.8117 64.7739 16.7872 64.7617C16.726 64.725 16.6525 64.7494 16.6159 64.7985C16.5832 64.8719 16.5954 64.9454 16.6566 64.9822Z" fill="black"/>
<path d="M18.6326 64.8473C18.657 64.8473 20.7102 64.9208 21.8898 65.0677C22.9592 65.2025 24.1634 64.9085 25.4409 64.6024C25.6246 64.5535 25.8083 64.5167 25.992 64.4677C26.8777 64.2595 27.1472 64.2963 27.2206 64.3208C27.1961 64.431 27.0001 64.8229 25.747 65.133C25.6858 65.1453 25.6368 65.2188 25.6613 65.28C25.6735 65.3412 25.7225 65.3779 25.7837 65.3779H25.8082C27.4531 64.9739 27.4899 64.382 27.4777 64.2718C27.4777 64.2473 27.4654 64.1983 27.4165 64.1493C27.3185 64.0636 27.0614 63.9656 25.943 64.2351C25.7593 64.284 25.5756 64.3208 25.3919 64.3698C24.1388 64.6758 22.9592 64.9576 21.9265 64.8351C20.7346 64.6881 18.6692 64.6146 18.6448 64.6146C18.5835 64.6146 18.5223 64.6636 18.5223 64.7371C18.5101 64.7861 18.5591 64.8473 18.6326 64.8473Z" fill="black"/>
<path d="M16.3839 69.0396C17.5268 69.8029 23.1188 69.7783 23.3637 69.7783C23.4372 69.7783 23.4862 69.7171 23.4862 69.6559C23.4862 69.5946 23.4249 69.5335 23.3637 69.5335C23.3025 69.5335 17.6003 69.558 16.5186 68.8437C16.1757 68.6109 15.841 68.3538 15.5839 68.1416C15.1185 67.7619 14.9063 67.6028 14.7471 67.7007C14.6247 67.7865 14.6613 67.9824 14.7471 68.264C15.1144 69.3702 17.5227 71.5335 19.3555 71.8029C19.8208 71.8764 20.3758 71.9008 20.9392 71.9008C22.5351 71.9008 24.2943 71.6804 25.0658 71.5457C25.127 71.5335 25.1759 71.4723 25.1637 71.3988C25.1515 71.3376 25.0902 71.2886 25.0168 71.3008C23.9963 71.4845 21.1473 71.8151 19.3881 71.558C17.5676 71.2886 15.2859 69.1007 14.9756 68.1905C14.9389 68.068 14.9144 67.9945 14.9144 67.9455C15.0247 68.0068 15.2328 68.1782 15.4287 68.3252C15.7103 68.5333 16.0287 68.7906 16.3839 69.0396Z" fill="black"/>
<path d="M28.4413 68.6069C27.4943 69.2478 27.2495 69.3825 26.229 69.6763C26.1678 69.7008 26.131 69.762 26.1433 69.8232C26.1556 69.8722 26.2046 69.909 26.2658 69.909H26.3025C27.3596 69.6151 27.629 69.4559 28.5883 68.8029C29.5353 68.162 30.7516 66.4436 30.8006 66.3702C30.8374 66.3089 30.825 66.2354 30.7761 66.1987C30.7149 66.1619 30.6414 66.1742 30.6047 66.2231C30.5761 66.2477 29.3475 67.9825 28.4413 68.6069Z" fill="black"/>
<path d="M22.5061 68.4607C22.5306 68.5097 22.5673 68.5342 22.6164 68.5342C22.6286 68.5342 22.653 68.5342 22.6653 68.5219C22.6898 68.5097 24.6205 67.5873 25.7511 67.4036C27.0532 67.1954 28.1347 66.828 28.698 66.4076C29.2858 65.9668 29.3879 65.8321 30.0246 64.9831L30.1104 64.8728C30.1471 64.8238 30.1348 64.7382 30.0858 64.7014C30.0369 64.6647 29.9511 64.6769 29.9145 64.7259L29.8288 64.8362C29.1879 65.6728 29.1021 65.7831 28.5389 66.2117C28 66.6158 26.9674 66.9627 25.7021 67.1709C24.5347 67.3545 22.6286 68.2648 22.5551 68.3138C22.5061 68.326 22.4817 68.3995 22.5061 68.4607Z" fill="black"/>
<path d="M14.665 64.7501C14.8365 64.9093 15.1058 65.142 15.5508 65.5623C16.363 66.3257 17.8488 67.1216 19.2365 67.542C20.2447 67.8481 21.5346 67.9216 21.608 67.9216C21.7181 67.9216 21.8406 67.9216 21.9264 67.9338C21.8774 67.9584 21.8284 67.9828 21.7794 68.0073C21.2284 68.3012 20.2079 68.8686 17.714 68.4237C17.6528 68.4114 17.5793 68.4603 17.5671 68.5216C17.5548 68.5828 17.6038 68.6563 17.6651 68.6686C18.3426 68.7787 18.9059 68.8277 19.3835 68.8277C20.759 68.8277 21.4611 68.4481 21.8896 68.2114C21.9509 68.1747 21.9998 68.1502 22.0488 68.1257C22.1222 68.089 22.3059 67.991 22.2691 67.844C22.2569 67.7828 22.2202 67.6481 21.5794 67.6726C21.5672 67.6726 20.2528 67.5991 19.2814 67.3053C17.7099 66.8276 16.3466 65.991 15.6935 65.3746C15.2404 64.9582 14.9792 64.7093 14.8077 64.5622C14.5017 64.2806 14.4649 64.2562 14.1302 63.8479C14.0812 63.799 14.0077 63.7868 13.9587 63.8357C13.9098 63.8847 13.8975 63.9582 13.9465 64.0072C14.2975 64.4316 14.3466 64.4685 14.665 64.7501Z" fill="black"/>
<path d="M24.5427 72.7741C25.4161 72.6762 26.2121 72.4312 26.9263 72.2108C27.306 72.1006 27.6773 71.9904 28.0081 71.9047C28.9427 71.6842 29.6163 71.3291 30.2082 70.7495C30.6 70.3577 30.8612 69.9862 31.1184 69.6311C31.2163 69.4964 31.3143 69.3618 31.4122 69.2271C31.7674 68.774 32.4939 67.5576 32.8735 66.9045L32.947 66.7697C32.9837 66.7086 32.9592 66.635 32.9102 66.5983C32.849 66.5616 32.7755 66.5861 32.7388 66.635L32.6653 66.7698C32.3102 67.3739 31.5591 68.6146 31.2163 69.0677C31.1184 69.2025 31.0204 69.3372 30.9102 69.4719C30.6531 69.8147 30.3959 70.1862 30.0245 70.5536C29.4735 71.1046 28.8326 71.4393 27.9468 71.6475C27.604 71.721 27.2325 71.8435 26.8529 71.9536C26.1508 72.1618 25.3549 72.4067 24.5059 72.5047C23.216 72.6516 22.6976 72.6884 20.3547 72.5782C18.0934 72.4679 15.5015 70.1577 15.477 70.1332C15.428 70.0842 15.3545 70.0964 15.3055 70.1454C15.2566 70.1945 15.2688 70.2679 15.3177 70.3169C15.33 70.3169 15.9953 70.921 16.9382 71.521C18.2158 72.3332 19.3588 72.7741 20.3547 72.8231C21.2771 72.8721 21.9139 72.8843 22.4445 72.8843C23.2405 72.9088 23.7467 72.8598 24.5427 72.7741Z" fill="black"/>
<path d="M32.7516 71.3864C32.7026 71.3497 32.6169 71.3497 32.5801 71.4109C32.5679 71.4232 31.4128 72.9089 30.3801 73.7946C29.3473 74.6803 28.6861 75.0844 28.033 75.2314C27.9229 75.2559 27.8249 75.2804 27.7146 75.3048C27.2249 75.4273 26.829 75.5375 26.0819 75.2314C26.0208 75.2069 25.9473 75.2314 25.9228 75.3048C25.8984 75.366 25.9228 75.4396 25.9963 75.4641C26.3881 75.6232 26.7106 75.6722 26.98 75.6722C27.2739 75.6722 27.5187 75.611 27.7923 75.5375C27.8902 75.5131 27.9882 75.4885 28.0983 75.4641C28.8004 75.3048 29.4861 74.8885 30.5556 73.9783C31.6005 73.0803 32.7801 71.57 32.7924 71.5578C32.8129 71.5088 32.8006 71.4231 32.7516 71.3864Z" fill="black"/>
<path d="M28.1916 73.2768C28.3507 73.2155 28.5344 73.1421 28.7303 73.0686C29.6774 72.7135 30.4365 72.2441 31.1386 71.5828C31.8529 70.9052 33.4488 68.5093 33.5223 68.4113C33.5591 68.35 33.5468 68.2766 33.4856 68.2398C33.4244 68.2031 33.3508 68.2154 33.3141 68.2766C33.3019 68.301 31.6692 70.7461 30.9671 71.4114C30.2896 72.0522 29.5548 72.5053 28.6446 72.8481C28.4364 72.9216 28.2649 72.9951 28.0936 73.0685C27.5425 73.289 27.1343 73.4481 26.2241 73.5951C25.3628 73.7298 23.3383 74.0481 23.0036 73.9747C22.9424 73.9625 22.8689 73.9992 22.8566 74.0727C22.8444 74.1339 22.8811 74.2074 22.9546 74.2196C23.0036 74.2318 23.0771 74.2318 23.1628 74.2318C23.6648 74.2318 24.771 74.0727 26.2731 73.84C27.212 73.6726 27.6528 73.4971 28.1916 73.2768Z" fill="black"/>
<path d="M27.8489 72.6644C28.0816 72.6032 28.2775 72.5542 28.4652 72.5053C29.0407 72.3706 29.3632 72.1134 29.9754 71.595C30.2326 71.3869 30.5632 71.1174 30.9837 70.7827C32.4204 69.6888 33.3797 67.5255 33.4286 67.4275C33.453 67.3663 33.4286 67.2929 33.3673 67.2684C33.3061 67.2439 33.2327 67.2684 33.2081 67.3296C33.1959 67.3541 32.2244 69.5297 30.8489 70.5869C30.4203 70.9175 30.0979 71.1747 29.8285 71.3991C29.2121 71.9012 28.9427 72.138 28.4162 72.2603C28.2447 72.2971 28.0365 72.3584 27.7998 72.4196C27.012 72.6155 25.9426 72.8971 24.9384 73.0074C23.4036 73.1787 22.0036 73.2645 21.0934 73.2277C21.0199 73.2277 20.971 73.2767 20.971 73.3502C20.971 73.4237 21.0199 73.4727 21.0934 73.4727C21.2282 73.4727 21.3751 73.4849 21.522 73.4849C22.4323 73.4849 23.6609 73.3992 24.9752 73.2523C25.9834 73.1421 27.0611 72.8603 27.8489 72.6644Z" fill="black"/>
<path d="M19.3473 75.6476C19.3351 75.6476 18.4615 75.9292 17.2084 75.5742C16.8534 75.4762 16.1267 74.9333 14.7023 72.97C13.8411 71.7782 13.1186 70.6108 13.1186 70.5985C13.0819 70.5373 13.0084 70.5251 12.9471 70.5618C12.886 70.5985 12.8737 70.672 12.9104 70.7332C13.0329 70.9292 15.8085 75.4395 17.1514 75.8191C17.6657 75.966 18.1229 76.015 18.4902 76.015C19.0657 76.015 19.4126 75.9048 19.4371 75.8926C19.4983 75.8681 19.5351 75.8069 19.5106 75.7334C19.482 75.6599 19.4085 75.6232 19.3473 75.6476Z" fill="black"/>
<path d="M45.715 91.2767C45.6048 91.0813 45.3232 91.0322 44.866 91.1053C44.9273 91.0562 44.964 91.0071 45.0007 90.9465C45.0497 90.8483 45.0497 90.7375 44.9885 90.6278C44.8538 90.3456 44.4375 90.3948 44.4007 90.4073C44.2416 90.4198 44.0946 90.4439 43.9721 90.4564V90.4313C43.9721 90.3948 43.9599 90.1868 43.8007 90.052C43.6783 89.9538 43.5191 89.9172 43.3109 89.9538C42.8211 90.0395 42.3762 90.1743 42.0822 90.2965C42.0456 90.3091 42.021 90.3216 41.9843 90.3456C41.9721 90.3216 41.9598 90.2965 41.9353 90.2725C41.8374 90.1628 41.6537 90.1137 41.3966 90.1377C41.0415 90.1628 40.719 90.2965 40.5231 90.3948C40.4985 90.2234 40.4863 90.0395 40.4741 89.8318C40.3148 87.9256 40.2047 86.946 39.9108 85.8276C39.5802 84.599 39.2945 83.2846 39.0495 81.9335C38.7802 80.46 38.3842 80.3131 38.3108 80.3008C38.2495 80.2886 38.1761 80.3253 38.1639 80.3988C38.1515 80.46 38.1883 80.5335 38.2495 80.5458C38.2495 80.5458 38.5679 80.6927 38.8005 81.9826C39.0455 83.3337 39.3393 84.6602 39.6618 85.901C39.9557 86.995 40.0659 87.9664 40.2251 89.8563C40.2495 90.1377 40.2741 90.3833 40.2985 90.6194V90.632C40.4332 91.726 40.6047 92.1293 40.6904 92.3258C40.7026 92.3498 40.7026 92.3624 40.7148 92.3874C40.7394 92.4355 40.7761 92.4606 40.8251 92.4606C40.8373 92.4606 40.8496 92.4606 40.8741 92.448C40.9353 92.424 40.972 92.3498 40.9475 92.2892C40.9353 92.2641 40.9353 92.2526 40.9231 92.2276C40.8496 92.0562 40.6904 91.6894 40.5557 90.6685C40.6904 90.5954 41.0332 90.424 41.4047 90.3864C41.6374 90.3749 41.7231 90.424 41.7475 90.448L41.7721 90.4731C41.3679 90.7302 41.0332 91.0604 41.021 91.0771C40.972 91.1252 40.972 91.1994 41.021 91.2485C41.0456 91.2725 41.07 91.285 41.1067 91.285C41.1435 91.285 41.1679 91.2725 41.1925 91.2485C41.1925 91.2485 41.6822 90.7459 42.1884 90.5212C42.4578 90.3989 42.8905 90.2767 43.3558 90.191C43.4905 90.167 43.5885 90.1785 43.6497 90.2276C43.7354 90.3007 43.7354 90.424 43.7354 90.424C43.7354 90.4606 43.7232 90.4721 43.7354 90.4846C43.7109 90.4846 43.6864 90.4972 43.662 90.5097C43.3926 90.5828 43.1476 90.6811 42.8742 90.8274C42.3843 91.097 42.0252 91.3791 42.0128 91.3906C41.9639 91.4282 41.9516 91.5139 42.0006 91.5619C42.0374 91.6111 42.1231 91.6236 42.1721 91.5745C42.1721 91.5745 42.5149 91.2934 42.9965 91.0363C43.4742 90.7782 43.7966 90.6926 44.4578 90.632C44.519 90.6194 44.7517 90.6194 44.8007 90.7176C44.8252 90.7668 44.8129 90.8033 44.8129 90.8274C44.7884 90.8765 44.6905 90.9872 44.2864 91.0844C43.87 91.1826 43.4619 91.5013 43.3272 91.6111C43.2292 91.6602 43.119 91.7218 43.0088 91.795C42.9475 91.8315 42.9353 91.9057 42.9721 91.9663C43.0088 92.028 43.0822 92.0395 43.1435 92.0029C43.2169 91.9538 43.3027 91.9057 43.3762 91.8566C43.4006 91.8566 43.4251 91.8441 43.4374 91.8315C43.4374 91.8315 43.4496 91.82 43.4619 91.82C43.8169 91.6361 44.1517 91.5379 44.5068 91.4397C45.1476 91.2683 45.4905 91.2934 45.5517 91.3906C45.5762 91.4397 45.5762 91.4888 45.5639 91.5254C45.5149 91.6487 45.319 91.7584 45.0374 91.82C44.8783 91.8566 44.4496 92.028 44.1639 92.1868C44.0292 92.26 43.9312 92.3341 43.8578 92.3833C43.7965 92.4324 43.7353 92.4689 43.6863 92.493C43.5884 92.5421 43.5149 92.6518 43.4292 92.7866C43.368 92.8723 43.3068 92.9705 43.2333 93.0562C43.0619 93.2401 42.8782 93.424 42.6822 93.5954C42.5231 93.7417 42.3761 93.889 42.2659 94.0113C41.9353 94.3791 41.2332 94.5745 40.7435 94.5745C40.2904 94.5745 39.7108 94.2934 39.7108 94.2934C39.6985 94.2808 39.674 94.2809 39.6618 94.2809C39.6618 94.2809 39.2577 94.2808 38.7515 94.1335C38.3107 94.0113 37.7924 93.4439 37.6698 92.5139C37.5964 91.8848 37.7066 91.6894 37.7188 91.6769H37.731C37.7556 91.8608 37.78 92.0071 37.7923 92.1419C37.8413 92.5337 37.878 92.7709 37.9882 93.0886C38.0004 93.1377 38.0494 93.1743 38.0984 93.1743C38.1107 93.1743 38.1229 93.1743 38.1351 93.1628C38.1964 93.1377 38.2331 93.0646 38.2087 93.0029C38.0984 92.7093 38.0739 92.5013 38.025 92.1179C38.0004 91.9705 37.9882 91.8117 37.9515 91.6037C37.8045 90.6069 37.5841 89.6725 37.3107 88.8031C37.2004 88.4481 36.9923 87.9297 36.7596 87.3173C36.2943 86.1133 35.727 84.6275 35.5432 83.705C35.2983 82.3785 35.4207 81.9376 35.4207 81.9213C35.433 81.8969 35.433 81.8846 35.4207 81.8601C35.384 81.6519 35.2249 81.407 34.486 80.6682C33.8575 80.0397 32.7799 78.2233 32.6778 78.0396V78.0274C32.6411 77.807 32.8615 77.4764 33.1064 77.0927C33.2411 76.8845 33.4002 76.6641 33.5349 76.4151C33.8289 75.8885 34.4697 74.8681 34.9717 74.0436C35.18 73.713 35.3513 73.4273 35.4738 73.2314C35.5963 73.0355 35.7309 72.9252 35.8534 72.9008C35.9637 72.8885 36.0493 72.9374 36.0861 72.9742C36.184 73.2804 36.9596 75.6519 37.2779 76.7702L37.2902 76.8069C37.6208 77.9743 38.029 79.4355 38.0657 80.0152C38.0657 80.0764 38.127 80.1254 38.1882 80.1254H38.2004C38.2739 80.1254 38.3229 80.0642 38.3106 79.9907C38.2739 79.3744 37.882 77.9743 37.5228 76.7335L37.5106 76.6967C37.1799 75.5048 36.3187 72.8884 36.3065 72.8639C36.1474 72.472 34.7963 68.9698 34.6003 68.7127C34.5513 68.6516 34.5024 68.5903 34.4412 68.5168C34.2942 68.3332 34.0982 68.1005 34.1595 67.9658C34.2697 67.6964 34.1718 67.378 34.0616 67.0311C34.0493 66.9821 34.0248 66.9208 34.0126 66.8718C33.9513 66.6637 33.8166 66.5658 33.6942 66.48C33.5473 66.3821 33.4248 66.2841 33.3881 66.0269C33.3145 65.5127 32.9963 65.1535 32.8982 65.0432C32.886 64.9208 32.8492 64.5657 32.935 64.2677C33.0575 63.8514 33.0819 63.5901 32.7758 63.0759C32.7268 62.9901 32.6779 62.9289 32.6411 62.8677C32.4574 62.5861 32.4329 62.5493 32.3717 62.0677C32.2982 61.4636 32.0779 60.8513 31.9064 60.5941C31.8819 60.5574 31.8452 60.5451 31.8084 60.5451C31.8696 60.4717 31.9554 60.4472 32.1636 60.4104C32.3839 60.3737 32.4819 60.2513 32.5186 60.1655C32.6289 59.8961 32.4085 59.5492 32.3839 59.5124C32.2126 59.2186 32.0533 58.8349 31.8942 58.4675C31.7717 58.1736 31.6492 57.8797 31.5146 57.6308C31.3676 57.3491 31.2206 57.2266 31.1349 57.1655C31.0981 57.0062 31.0981 56.8226 31.0859 56.5777C31.0737 56.3328 31.0615 56.0511 31.0247 55.7164C30.9758 55.3491 31.0247 54.8919 31.0737 54.4143C31.1105 54.0102 31.1472 53.5899 31.1472 53.149C31.1472 52.5082 31.0737 52.1408 31.0247 51.9449C31.0615 51.9327 31.0737 51.9082 31.0981 51.896C31.2696 51.7123 31.1472 51.2674 31.0737 51.0592V51.0225C31.0737 50.7653 31.0737 50.6428 31.2696 50.3572C31.3676 50.2225 31.4533 50.1244 31.539 50.0143C31.6615 49.8673 31.7962 49.7204 31.9799 49.4265C32.3105 48.9122 32.3717 48.7367 32.3717 47.7938C32.3717 46.9937 32.6044 45.8877 32.7513 45.1652C32.7758 45.0427 32.8003 44.9325 32.8126 44.8346C32.837 44.6877 32.8738 44.5652 32.8982 44.455C32.9963 44.0754 33.0452 43.8794 32.837 43.2754C32.7636 43.0426 32.6533 42.8223 32.5309 42.6223C32.5309 42.61 32.5676 41.1977 32.6044 40.4712C32.6044 40.4222 32.8126 35.9364 32.7758 35.4343C32.7636 35.3241 32.7758 35.1527 32.788 34.969C32.8248 34.4547 32.8738 33.7404 32.5432 33.3241C32.4819 33.2506 32.4084 33.1894 32.3349 33.1159C32.3349 31.7648 32.2982 30.7077 31.8574 29.6383C31.6247 29.0628 31.3431 28.5077 31.1186 28.1281C31.1676 28.1157 31.1921 28.0668 31.2043 28.0178C31.2043 27.9198 31.29 26.0627 31.2411 24.6137C31.2655 24.6014 31.2778 24.5769 31.29 24.5524C31.3023 24.528 31.9799 22.487 32.2248 20.9768C32.3962 19.9074 32.2126 16.4052 32.0779 13.8623C32.0043 12.5602 31.9554 11.5275 31.9799 11.2949C32.0166 10.8663 32.0533 10.4337 32.0901 10.0785C32.8901 10.005 33.0492 9.0091 33.1595 8.3601C33.1717 8.24986 33.1962 8.15195 33.2084 8.06616C33.3432 7.3764 33.5758 6.61716 33.8492 5.9273C34.1799 5.11507 34.6982 3.89867 35.0533 3.18843C35.4085 2.47422 35.6697 0.804741 34.8574 0.314878C34.0696 -0.162654 33.2859 0.0332698 31.7226 1.09042C30.3471 2.02522 30.2001 3.21706 30.1143 3.98843C30.1021 4.1109 30.0899 4.22114 30.0654 4.31905C29.9552 4.99668 29.7715 5.22928 29.4 5.75582L29.3756 5.78038C29.2409 5.9763 28.9225 6.25791 28.5878 6.56815C27.947 7.1437 27.2123 7.809 27.1266 8.31109C27.0041 9.04986 27.2857 9.3438 27.7551 9.84589L27.8287 9.93157C28.196 10.3234 28.294 10.5846 28.3919 10.8174C28.4287 10.903 28.4531 10.9887 28.5021 11.0745C28.6 11.2582 28.7225 11.3439 28.8205 11.3683C28.7837 12.3888 28.6613 14.5399 28.4164 15.446C28.2327 16.1113 28.0246 16.65 27.7878 17.2909C27.7266 17.4378 27.6776 17.5971 27.6163 17.7562C27.5307 17.9889 27.4327 18.2215 27.347 18.4461C27.0531 19.1604 26.7714 19.8216 26.7429 20.7686C26.7184 21.9605 26.6572 23.2259 26.645 23.2381C26.645 23.2748 26.6572 23.2993 26.6694 23.3238C26.5225 23.5075 26.3388 23.7524 26.1061 24.0749C25.4408 24.9606 25.3673 25.8831 25.2939 26.7893C25.2694 27.0465 25.2571 27.3036 25.2204 27.5648C25.1836 27.8465 25.147 28.1689 25.1224 28.5118C25.0123 29.5935 24.8898 30.9445 24.4449 31.818C23.8693 32.9732 22.7019 36.5733 22.5999 36.8671C22.5877 36.8917 22.5632 36.9039 22.5509 36.9039C22.5265 36.9039 22.4897 36.8917 22.4285 36.8427C22.355 36.7814 22.2938 36.6958 22.2693 36.5855C22.1224 36.1324 21.5795 34.5447 20.9182 33.4997C20.3142 32.5405 19.7753 31.1649 19.2611 29.2956C19.1264 28.8303 19.0284 28.2751 18.9059 27.6873C18.6978 26.6546 18.4896 25.5852 18.1549 25.0097C17.9712 24.6913 17.3794 23.8178 16.9509 23.1892C16.9753 21.7402 16.461 20.2013 15.9672 19.2585C15.8815 19.087 15.7222 18.8054 15.5508 18.483C15.1589 17.7686 14.6283 16.789 14.3589 16.1727C14.0283 15.4094 13.069 13.0257 12.7752 12.3277C12.7141 12.1686 12.6773 11.9971 12.6651 11.8256C12.6651 11.6665 12.6651 11.4583 12.7018 11.2746C12.7508 11.2746 12.7875 11.2624 12.8242 11.2378C12.861 11.2134 12.8855 11.1766 12.91 11.1399C13.2038 10.895 13.71 10.3154 13.8325 9.65414C13.9672 8.9276 13.9549 8.52353 13.7957 7.9112C13.6855 7.50712 13.2447 7.19688 12.763 6.87849C12.4936 6.6948 12.2242 6.5111 11.9752 6.29072C11.4977 5.84987 11.1018 4.75593 10.7834 3.87025C10.6731 3.57642 10.5752 3.2947 10.4895 3.08248C10.1344 2.2457 8.5956 0.91916 7.26906 0.882379C6.04044 0.845597 5.67315 1.48645 5.62414 1.59669C5.53835 1.71916 4.88527 2.78854 5.90574 4.45802C6.15067 4.87432 6.3955 5.27024 6.62006 5.62542C7.29759 6.73158 7.82413 7.59281 8.00783 8.05812C8.24043 8.68664 8.63635 9.76428 8.73437 10.0377C8.74659 10.0744 9.00375 10.9724 9.58337 11.2418C9.75485 11.7928 9.92621 12.4092 9.95077 12.7154C10.0242 14.0297 10.6405 19.9033 10.9221 21.4626C11.2529 23.2953 12.2609 24.7076 12.2977 24.7565C12.2977 24.7687 12.31 24.7687 12.31 24.7687C12.3345 25.0381 12.3712 25.3443 12.3957 25.6422C12.4447 26.0953 12.6038 26.6504 12.7263 27.1034C12.812 27.3974 12.8732 27.6545 12.8978 27.7933C12.9467 28.1483 12.959 28.5198 12.959 28.5198C12.959 28.5688 12.9957 28.6178 13.0447 28.6301C12.8978 28.8872 12.7753 29.2056 12.7385 29.5525C12.6773 30.2178 12.6651 32.8098 12.6651 34.0628V34.6915C11.9263 35.0955 11.4364 35.6506 11.412 36.4221C11.3875 37.1486 11.6325 37.6629 11.8406 37.9813C11.9998 38.2139 12.1345 38.4711 12.2447 38.7813C12.3549 39.0752 12.5141 39.3569 12.6978 39.6303C13.1753 40.3446 13.4121 41.263 13.3631 42.1977C13.3386 42.614 13.3509 43.2304 13.3509 43.8672C13.3631 44.6917 13.3631 45.5489 13.3141 45.9693C13.2529 46.3978 13.2162 46.904 13.1794 47.3204C13.1549 47.6265 13.1304 47.8836 13.1182 48.0347C13.1059 48.1082 13.0447 48.2428 12.9712 48.402C12.7385 48.9041 12.3549 49.7531 12.7385 50.5163C12.7875 50.6143 12.861 50.6755 12.9712 50.7122C13.0325 50.7368 13.1182 50.749 13.1916 50.749C13.4243 50.749 13.7059 50.6755 13.9672 50.5775C13.9427 50.6755 13.9305 50.798 13.9059 51.0062C13.8937 51.1409 13.8815 51.2755 13.9059 51.4102C13.9427 51.7653 14.0896 51.8511 14.2489 51.8755C14.1876 52.1939 14.0652 53.1164 14.1264 54.4063C14.2121 55.9899 14.1631 57.2064 14.0039 58.0186C13.9672 58.2023 13.9305 58.435 13.9059 58.6962C13.7835 58.6472 13.6121 58.5982 13.4039 58.635C13.1345 58.6962 12.9141 58.8921 12.7263 59.2227C12.2488 60.1084 12.3222 60.3657 12.4937 60.9167L12.5304 61.0392C12.5672 61.1738 12.6038 61.2718 12.6406 61.3698C12.7631 61.7493 12.7631 61.7738 12.5916 61.8718C12.1753 62.1045 11.9631 62.9657 12.1141 63.8025C12.2488 64.5536 12.31 65.2882 11.8569 65.6842C11.3794 66.0884 11.2529 66.521 11.4895 67.0353C11.5263 67.1211 11.5753 67.2067 11.6242 67.2924C11.8325 67.6843 11.9672 67.9945 11.7712 68.2149C11.5141 68.4966 11.2079 69.0639 10.8242 69.6761C10.6773 69.9088 10.5181 70.1292 10.3589 70.366C10.114 70.721 10.0161 71.0068 9.93029 71.264C9.84461 71.5089 9.77114 71.7171 9.58745 71.9537C9.20782 72.4314 8.98337 73.0109 9.03646 73.2191V73.2314C9.03646 73.2436 9.04868 73.2436 9.04868 73.2558V73.2681C9.07313 73.3048 9.10992 73.3171 9.14659 73.3171H9.18337C9.22015 73.3048 9.24461 73.2803 9.25683 73.2558C9.28139 73.2314 9.33029 73.1702 9.39152 73.1456C9.3793 73.1578 9.3793 73.1701 9.3793 73.1824C9.3793 73.2068 8.81597 75.8478 8.33437 77.3621C8.0282 78.3458 7.83228 78.9336 7.66906 79.4029C7.58338 79.6601 7.50982 79.8805 7.44858 80.1049C7.32622 80.4723 7.11797 81.1499 6.99561 81.4192C6.88537 81.4928 6.64043 81.7132 6.64043 82.3907C6.64043 83.1418 6.51797 83.8887 6.32204 84.9459C6.06489 86.2602 5.91797 88.0684 5.91797 89.7624C5.91797 90.4157 5.90574 91.1137 5.89352 91.7793C5.84451 91.7542 5.79551 91.7302 5.7466 91.7051C5.55068 91.6069 5.36698 91.5097 5.24451 91.3874C4.93835 91.0813 4.59143 91.0322 4.33428 91.2401C4.23626 91.3133 4.18736 91.424 4.17503 91.5337C4.17503 91.6445 4.21181 91.7668 4.26082 91.8765C4.08934 91.8033 3.9302 91.7302 3.84441 91.6936C3.52602 91.5588 2.81182 91.3874 2.59134 91.4115C2.44442 91.424 2.30973 91.5212 2.21182 91.6445C2.1138 91.7793 2.08935 91.9507 2.13825 92.122C2.18726 92.3049 2.37096 92.4157 2.55466 92.4888H2.50565C2.21182 92.4648 2.01589 92.4157 1.84034 92.354C1.63219 92.2934 1.46072 92.2443 1.21171 92.2809C0.905655 92.33 0.795413 92.5139 0.758632 92.6111C0.697399 92.7709 0.73418 92.9548 0.84442 93.1137C1.05257 93.3707 1.57096 93.5055 1.99959 93.6152C2.03627 93.6278 2.08528 93.6403 2.12206 93.6528C1.6812 93.6769 1.18726 93.6894 0.942438 93.6894C0.599492 93.6894 0.215898 93.9214 0.130109 94.191C0.0688764 94.3624 0.130107 94.5222 0.277024 94.6319C0.607745 94.889 0.942435 94.8524 1.43219 94.8159C1.53021 94.8033 1.64045 94.8033 1.76291 94.7908C2.45267 94.7417 3.18746 94.7417 3.33438 94.7667C3.45674 94.7908 4.29353 95.2568 4.79561 95.5421C4.91797 95.6037 5.02821 95.6769 5.12623 95.726C5.54253 95.959 5.92622 96.0687 6.39153 96.0687C6.58746 96.0687 6.79561 96.0447 7.04461 96.0071C7.55893 95.9339 7.75893 95.7009 7.91807 95.518C8.00375 95.4198 8.07721 95.3341 8.18745 95.2976C8.59153 95.1262 8.86509 94.7458 8.88954 94.3383C8.91399 93.958 8.75485 93.5379 8.74262 93.5139C8.7304 93.4888 8.71807 93.4773 8.70584 93.4648C8.69362 93.33 8.68139 93.1711 8.68139 92.9998C8.68139 92.424 8.82831 91.4888 9.09769 90.1994C9.3793 88.9215 9.79978 87.6072 10.1794 86.4644C10.2406 86.2929 10.2896 86.1215 10.3509 85.95C10.7305 84.7827 10.6693 82.8397 10.6569 82.4846C10.7305 82.399 10.804 82.3133 10.8774 82.2275C11.2448 81.8112 11.7019 81.2806 12.1427 80.6805C12.7958 79.7825 13.3101 78.7621 13.408 78.5538C13.5305 78.4804 13.5672 78.2967 13.6162 78.0273C13.6406 77.8682 13.6774 77.6967 13.7386 77.5252C13.8611 77.1457 14.0448 77.0232 14.0815 77.011H14.0937C14.106 77.0354 14.1305 77.1211 14.1549 77.1824C14.1917 77.3293 14.2652 77.5375 14.3999 77.7988C14.6203 78.2151 15.102 78.4273 15.5673 78.3253L15.7142 78.3007C16.2897 78.1906 16.6612 78.0559 17.2366 77.8477C17.4203 77.7864 17.6285 77.713 17.8775 77.6273C18.2327 77.5048 18.4939 77.3457 18.702 77.162C18.702 77.4558 18.7387 77.9742 18.9959 78.6968C19.7348 80.8356 21.5633 81.5826 22.9511 81.5826H23.0614C24.4125 81.5458 25.8003 79.9376 26.1594 79.26C26.5022 78.6191 26.6859 76.6068 26.6859 76.5211C26.6859 76.4599 26.6369 76.3987 26.5757 76.3864C26.5145 76.3742 26.4532 76.4355 26.441 76.4966C26.441 76.5211 26.2573 78.5497 25.939 79.1374C25.6206 79.7416 24.2941 81.2886 23.0532 81.3254C21.7267 81.3621 19.9307 80.6722 19.2204 78.6109C18.8408 77.4925 18.9633 76.917 18.9633 76.917V76.9047C19.049 76.819 19.1224 76.7334 19.1959 76.6353C19.3551 76.4516 19.5143 76.2681 19.7102 76.1088C20.1877 75.717 21.6041 75.6802 22.6205 75.6679C22.792 75.6679 22.9634 75.6557 23.1226 75.6557C24.3022 75.619 25.7268 76.0231 26.6003 76.3945C27.6084 76.8231 28.6289 77.5741 28.9963 77.9415C29.2901 78.2354 29.7718 78.4191 30.1759 78.3824C30.4453 78.3579 30.6534 78.2599 30.7922 78.0763C31.0003 77.8068 31.1106 77.5008 31.2575 77.019C31.2943 76.9211 31.3677 76.8232 31.4658 76.7864C31.5514 76.762 31.6371 76.762 31.6739 76.8843C31.7228 77.0436 32.3024 78.2477 32.3024 78.2599C32.3024 78.2722 32.3024 78.2722 32.3148 78.2845V78.2967C32.3637 78.3824 33.4943 80.3131 34.1718 80.9865C34.7351 81.5499 34.9841 81.8478 35.0331 82.0315C34.9964 82.1662 34.9229 82.6968 35.1556 83.9009C35.327 84.8356 35.9188 86.3459 36.3842 87.55C36.6168 88.1541 36.8128 88.6684 36.923 89.0236C37.1802 89.8114 37.3761 90.6685 37.5271 91.5787C37.5148 91.5787 37.4903 91.5912 37.4781 91.5912C37.2699 91.6769 37.1965 92.0562 37.2699 92.6852C37.3924 93.7417 37.9965 94.3665 38.523 94.5181C38.9883 94.6528 39.3598 94.6643 39.47 94.6769C39.5924 94.7385 40.1353 94.9705 40.5884 94.9705C41.1394 94.9705 41.9149 94.75 42.2946 94.33C42.3925 94.2192 42.5394 94.0729 42.6986 93.9381C42.8823 93.7667 43.0905 93.5703 43.2619 93.3874C43.3476 93.2892 43.4211 93.1785 43.4823 93.0813C43.5436 92.9956 43.6048 92.8974 43.6537 92.8723C43.7149 92.8357 43.7884 92.7991 43.862 92.7375C43.9354 92.6769 44.0333 92.6152 44.1436 92.5546C44.4252 92.3948 44.8211 92.2359 44.9558 92.2119C45.311 92.1262 45.5599 91.9663 45.6456 91.7709C45.7763 91.5139 45.7763 91.3864 45.715 91.2767ZM29.0902 10.8579V10.8334C29.0902 10.8211 29.0902 10.8211 29.078 10.8089C29.078 10.7967 29.0658 10.7967 29.0658 10.7967C29.0658 10.7844 29.0535 10.7844 29.0535 10.7722C29.0535 10.7722 28.8698 10.613 28.8576 10.3926C28.8453 10.2579 28.9065 10.1232 29.029 9.98852C29.5188 9.46198 30.2576 8.94359 30.6127 8.74766C30.6984 8.69866 30.7719 8.66188 30.8576 8.6252C30.8944 8.60064 30.9433 8.58842 30.9801 8.56397C31.0413 8.67421 31.3719 9.27828 31.927 9.4742C31.8903 9.75581 31.7923 10.5559 31.7311 11.3559C31.7066 11.6131 31.7678 12.5968 31.8291 13.9601C31.8413 14.1315 31.8413 14.3029 31.8535 14.4744C31.6698 14.3397 31.3392 14.1805 30.7474 14.0458C29.8494 13.8254 29.1269 14.2539 28.8412 14.4621C29.029 12.9559 29.0902 10.9558 29.0902 10.8579ZM32.1148 9.88643C32.127 9.72729 32.1515 9.60482 32.1638 9.51903C32.2495 9.53136 32.3351 9.54359 32.3964 9.54359C32.4822 9.54359 32.5556 9.53136 32.6046 9.50681C32.4944 9.70273 32.3352 9.84975 32.1148 9.88643ZM28.7228 10.9926C28.6861 10.9191 28.6616 10.8457 28.6249 10.7722C28.5269 10.5395 28.4166 10.2333 28.0085 9.81297L27.9228 9.72729C27.8984 9.70273 27.8616 9.66605 27.8371 9.6415C27.8371 9.62927 27.8494 9.61705 27.8494 9.59259C27.8126 9.02927 28.229 8.57212 28.8943 8.02112C29.3351 7.66595 29.5964 7.11089 29.9392 6.70681C30.2331 6.36387 30.6045 5.45373 30.727 4.88634C30.8249 4.44548 30.9229 3.93932 31.1188 3.3761C31.5229 2.18426 32.2494 1.71895 33.3189 1.15155C34.1924 0.686245 34.9394 1.02909 35.0741 1.10255C35.2332 1.70662 35.0986 2.58833 34.8292 3.11895C34.4619 3.84548 33.9435 5.06189 33.6251 5.88226C33.3435 6.58435 33.1108 7.36805 32.972 8.07013C32.9598 8.15582 32.9353 8.26606 32.923 8.3763C32.8863 8.63335 32.8373 8.93951 32.7394 9.21297C32.7149 9.16407 32.666 9.13951 32.617 9.15174C32.5557 9.16407 32.5189 9.21297 32.5189 9.2742C32.4945 9.28654 32.3965 9.32321 32.1026 9.24975C31.5639 9.11506 31.2046 8.43753 31.2046 8.4252C31.3515 8.31506 31.474 8.15582 31.523 7.87421C31.5352 7.81298 31.4863 7.73952 31.4251 7.72729C31.3639 7.71507 31.2903 7.76397 31.2781 7.8252C31.2169 8.16804 31.0333 8.25383 30.7638 8.3763C30.6781 8.41297 30.5924 8.46198 30.5067 8.51099C30.1515 8.71914 29.3761 9.26198 28.874 9.80085C28.7025 9.98455 28.6169 10.1805 28.6291 10.3886C28.6413 10.6336 28.7882 10.8171 28.874 10.8906C28.874 10.9396 28.874 11.0254 28.8617 11.1355C28.8087 11.1152 28.7596 11.0783 28.7228 10.9926ZM24.6656 31.9643C25.1186 31.0419 25.2533 29.6663 25.3677 28.5724C25.4044 28.2295 25.4289 27.9071 25.4656 27.6377C25.5023 27.3805 25.5268 27.1111 25.5391 26.8499C25.6126 25.9397 25.686 25.0947 26.3023 24.2702C27.1147 23.1885 27.3228 22.9437 27.3228 22.9314C27.3718 22.8824 27.3595 22.7967 27.3106 22.76C27.2616 22.7109 27.1759 22.7233 27.1391 22.7722C27.1391 22.7722 27.0779 22.8456 26.9064 23.0661C26.931 22.6497 26.9676 21.7028 26.9922 20.8048C27.0167 19.9068 27.286 19.2578 27.5678 18.568C27.6657 18.3475 27.7513 18.1149 27.8494 17.8659C27.9106 17.7068 27.9718 17.5475 28.0207 17.4006C28.2534 16.7598 28.4616 16.221 28.6494 15.5435C28.7106 15.3353 28.7596 15.0536 28.8086 14.7435C28.8331 14.7435 28.8697 14.7311 28.8821 14.7067C28.8943 14.6945 29.6821 13.9924 30.6903 14.2414C31.6862 14.4863 31.8699 14.7679 31.8699 14.7679V14.7801C31.9924 17.1884 32.1271 20.0497 31.9678 20.9844C31.7965 22.0416 31.4169 23.3559 31.1923 24.0457C31.1801 23.8254 31.1556 23.6172 31.1188 23.458C31.1066 23.3967 31.0454 23.3478 30.9719 23.3601C30.9107 23.3723 30.8617 23.4335 30.8739 23.507C31.0576 24.5641 30.9719 27.2295 30.9351 27.9071C30.8495 27.7601 30.7882 27.6621 30.7882 27.6621C30.7515 27.6009 30.678 27.5887 30.6169 27.6255C30.5556 27.6621 30.5433 27.7356 30.5801 27.7968C30.5801 27.809 31.1678 28.7438 31.6005 29.7887C32.0046 30.7724 32.0535 31.7561 32.0535 33.0091C31.3638 32.6173 30.2575 32.4336 29.3514 32.3438C28.1596 32.2214 27.2371 32.5765 26.4289 32.8948C26.2085 32.9806 25.9881 33.0663 25.7636 33.1398C25.0248 33.3847 24.2288 33.7928 23.8329 34.001C24.1512 33.1684 24.4574 32.3847 24.6656 31.9643ZM8.98745 9.97169C8.88954 9.69009 8.49769 8.60838 8.26091 7.97985C8.07721 7.49009 7.55882 6.65331 6.86091 5.49814C6.64054 5.13075 6.39561 4.74715 6.1466 4.33075C5.3466 3.01644 5.65684 2.11843 5.80376 1.83682C5.84054 1.81237 6.59153 1.15929 8.19978 2.08175C9.7468 2.97976 10.0815 3.96346 10.3019 4.61246C10.3263 4.6737 10.3386 4.7227 10.3509 4.77161L10.3631 4.80839C10.608 5.5227 11.2856 7.40033 12.2693 8.07786C13.1795 8.69416 13.6326 9.07379 13.6326 9.49019C13.6204 9.5392 13.6204 9.57588 13.6081 9.62488C13.5223 10.0657 13.2407 10.4739 12.9917 10.7433V10.7188C12.906 10.029 12.4162 9.26982 11.6406 9.14735C11.0243 9.04934 10.8284 8.64526 10.8162 8.63303C10.7916 8.5718 10.7182 8.54725 10.6569 8.5718C10.5957 8.59625 10.5712 8.66971 10.5957 8.73095C10.5957 8.74317 10.6447 8.82896 10.7426 8.95143C10.7426 8.97588 10.7549 9.49019 9.80793 9.93512C9.66101 9.99636 9.53855 10.0208 9.44053 9.98402C9.31817 9.93512 9.26916 9.81266 9.26916 9.81266C9.26916 9.80043 9.25694 9.80043 9.25694 9.7881C9.24461 9.75142 9.23238 9.70242 9.23238 9.67796C9.22016 9.61673 9.15892 9.56772 9.08547 9.57995C9.02423 9.59218 8.97523 9.65341 8.98756 9.72687C8.98756 9.75142 9.10991 10.3799 9.36707 10.6494L9.3794 10.6617C9.40386 10.7351 9.4283 10.8208 9.45286 10.8943C9.1467 10.5473 8.98745 9.98392 8.98745 9.97169ZM9.51806 10.2289H9.56707C9.67731 10.2289 9.79978 10.2044 9.92214 10.1432C10.6732 9.80022 10.9059 9.36762 10.9671 9.12269C11.1141 9.23293 11.3222 9.33084 11.6079 9.36762C12.2488 9.46553 12.6773 10.1432 12.7509 10.7309C12.7631 10.7922 12.7631 10.8534 12.7509 10.8901C12.7386 10.8779 12.7264 10.8656 12.7142 10.8656C12.653 10.8412 12.5795 10.8656 12.5549 10.9269C12.4325 11.2085 12.4203 11.5799 12.4203 11.8493C12.4203 12.0453 12.4693 12.2412 12.5427 12.4371C12.6896 12.7799 12.9836 13.5433 13.306 14.3066C13.0121 14.2209 12.4693 14.1107 11.7836 14.1474C10.9958 14.1963 10.5672 14.6127 10.3958 14.8494C10.2978 13.8903 10.2366 13.0943 10.2121 12.6983C10.1794 12.1596 9.68954 10.7228 9.51806 10.2289ZM12.9467 34.0658C12.9467 32.8249 12.9589 30.233 13.0201 29.5799C13.0937 28.8656 13.5957 28.2778 13.7712 28.0819C13.8202 28.0206 13.8325 28.0084 13.8447 27.9839C13.8692 27.9227 13.8325 27.8492 13.7712 27.8247C13.71 27.8003 13.661 27.8247 13.6243 27.8737C13.612 27.886 13.5998 27.8982 13.5875 27.9104C13.5141 27.9962 13.3794 28.1553 13.2325 28.3635C13.2202 28.2288 13.2079 27.984 13.1712 27.735C13.1467 27.5757 13.0732 27.3186 12.9875 27.0207C12.8651 26.5798 12.7059 26.0247 12.6569 25.5961C12.5712 24.8572 12.51 24.0246 12.51 23.9878C12.51 23.9144 12.461 23.8654 12.3875 23.8654C12.314 23.8654 12.2651 23.9144 12.2651 23.9878C12.2651 24.0001 12.2773 24.0981 12.2773 24.245C11.9589 23.7185 11.3915 22.6491 11.1711 21.3959C10.9874 20.351 10.6568 17.3917 10.42 15.1549C10.4568 15.1426 10.4813 15.1303 10.5058 15.0936C10.5181 15.0691 10.8487 14.4283 11.7957 14.3671C12.6569 14.3181 13.2693 14.514 13.4162 14.5752C13.6978 15.265 13.9672 15.9263 14.1183 16.2569C14.3876 16.8978 14.9305 17.8652 15.3223 18.5917C15.4937 18.9101 15.6406 19.1795 15.7386 19.3551C16.1673 20.2041 16.6244 21.5184 16.6855 22.8082C16.5509 22.6123 16.4652 22.4775 16.4407 22.4653C16.4039 22.4041 16.3305 22.3918 16.2692 22.4286C16.208 22.4653 16.1958 22.5388 16.2325 22.6C16.2448 22.6245 17.6326 24.6286 17.9265 25.1307C18.2448 25.6696 18.4407 26.7266 18.653 27.7349C18.7632 28.2982 18.8734 28.89 19.0081 29.3553C19.3387 30.5594 19.8816 32.3146 20.6898 33.6207C20.7878 33.78 20.898 33.9637 20.9838 34.1474C20.4449 33.8902 19.2898 33.482 17.4571 33.6207C15.8612 33.7432 14.1142 33.9637 12.91 34.531C12.9467 34.4616 12.9467 34.2985 12.9467 34.0658ZM14.2978 58.05C14.457 57.2255 14.5059 55.9846 14.4202 54.3765C14.3468 52.9887 14.5059 52.0172 14.5427 51.8213C14.5795 51.7969 14.6774 51.7356 14.9346 51.6254C15.1549 51.5151 15.4979 51.5519 16.0529 51.5886C16.4816 51.6254 17.0611 51.6744 17.8366 51.6744C18.9918 51.6744 19.2 51.5642 19.6327 51.356C19.8654 51.2335 20.1714 51.0866 20.7511 50.9029C22.1756 50.4498 23.0124 50.6213 24.1674 50.8539C24.3021 50.8785 24.4491 50.9151 24.5961 50.9396C25.9226 51.1968 28.0983 51.556 29.4248 51.7029C30.286 51.8009 30.4207 51.8622 30.5432 51.9234C30.5921 51.9479 30.6411 51.9723 30.7268 51.9969C30.7636 52.1193 30.8616 52.4744 30.8616 53.2009C30.8616 53.6295 30.8248 54.0377 30.788 54.4418C30.7391 54.9315 30.7023 55.4009 30.7391 55.8051C30.7758 56.1235 30.788 56.4092 30.8003 56.6419C30.8126 56.8989 30.8248 57.1194 30.8616 57.295C30.8248 57.4173 30.6411 57.9357 30.3595 58.7562C30.0289 59.7031 29.8329 60.2174 29.339 60.7726L29.3146 60.797C28.837 61.3236 28.588 61.597 26.0206 62.1481C23.4042 62.6991 20.6898 63.3768 20.6613 63.389C20.6491 63.389 20.6491 63.389 20.6368 63.4012C19.2491 63.989 18.155 63.6828 16.7795 63.291C16.6326 63.2543 16.4857 63.2053 16.3387 63.1686C15.3795 62.9115 14.555 62.1359 13.955 61.4011C13.9795 61.1685 14.0163 60.7848 14.053 60.344C14.1142 59.5399 14.1876 58.5806 14.2978 58.05ZM12.0488 80.4627C11.6203 81.0668 11.1631 81.5811 10.7957 81.9975C10.71 82.0955 10.6243 82.1934 10.5508 82.2791L10.5263 82.3037C10.4039 82.4506 10.3059 82.573 10.2325 82.671C10.1957 82.7322 10.2079 82.8057 10.2569 82.8424C10.2814 82.8547 10.3059 82.8669 10.3304 82.8669C10.3672 82.8669 10.4039 82.8547 10.4284 82.8179C10.4529 82.7812 10.4773 82.7444 10.5141 82.7077C10.5263 83.373 10.5141 84.8833 10.2202 85.8057C10.1713 85.9771 10.11 86.1486 10.0488 86.3201C9.66916 87.4752 9.24879 88.7895 8.96708 90.0792C8.68536 91.3812 8.53844 92.353 8.53844 92.9402C8.53844 93.4303 8.59968 93.8514 8.6119 93.8629C8.62413 93.9245 8.67313 93.9611 8.72214 93.9611C8.73437 94.0593 8.74659 94.1576 8.73437 94.2547C8.70992 94.5734 8.50177 94.8712 8.18338 95.006C8.02413 95.0792 7.92622 95.1899 7.82821 95.2997C7.68129 95.471 7.53437 95.6424 7.10167 95.704C6.33845 95.8138 5.89759 95.7532 5.3465 95.447C5.24859 95.3853 5.13835 95.3247 5.01588 95.2631C4.05674 94.7249 3.60356 94.4752 3.46886 94.4637C3.28517 94.4386 2.52195 94.4386 1.84839 94.4877C1.72592 94.5003 1.61579 94.5003 1.51777 94.5118C1.04024 94.5494 0.791236 94.5734 0.534079 94.377C0.448395 94.3164 0.448394 94.2547 0.472845 94.2056C0.521852 94.0468 0.791235 93.8754 1.04839 93.8754C1.48925 93.8754 2.79133 93.8263 3.1138 93.7897C3.40763 93.7532 3.51787 93.7406 3.51787 93.7406C3.59133 93.7406 3.64034 93.6915 3.64034 93.6184C3.64034 93.5452 3.59133 93.4961 3.51787 93.4961C3.51787 93.4961 3.39541 93.4961 3.08924 93.5452L2.66072 93.4836C2.61171 93.4595 2.53825 93.4345 2.45257 93.4104C2.36678 93.3853 2.26887 93.3613 2.15863 93.3247C1.81579 93.2391 1.28517 93.0917 1.13825 92.9078C1.07702 92.8221 1.05247 92.7364 1.08925 92.6508C1.12593 92.5651 1.22394 92.5045 1.35863 92.4794C1.54233 92.4428 1.67702 92.4919 1.87295 92.541C2.04431 92.5902 2.26479 92.6508 2.58726 92.6758C3.21578 92.7239 3.87712 92.9569 3.88934 92.9569C3.90157 92.9569 3.9138 92.9695 3.92602 92.9695H3.93825C3.95058 92.9695 3.9628 92.9695 3.9628 92.9569H3.97503C3.98726 92.9444 3.99948 92.9444 4.01181 92.9329C4.01181 92.9204 4.02403 92.9204 4.02403 92.9078V92.8963V92.8838V92.8712V92.8472V92.8221V92.7981C4.02403 92.7856 4.01181 92.7856 4.01181 92.773C4.01181 92.7615 3.99948 92.7615 3.99948 92.749C3.99948 92.749 3.98726 92.7364 3.97503 92.7364L3.9628 92.7239L3.33417 92.3937C3.21171 92.3321 3.08935 92.284 2.95455 92.2589C2.67294 92.1983 2.47702 92.1001 2.45257 91.9893C2.41579 91.8545 2.45257 91.7688 2.48924 91.7082C2.53825 91.634 2.61171 91.586 2.68517 91.586C2.85664 91.5609 3.52195 91.7208 3.81578 91.843C4.12195 91.9778 5.31379 92.5201 5.32602 92.5201C5.38725 92.5452 5.46071 92.5201 5.48527 92.4595C5.50972 92.3979 5.48527 92.3247 5.42403 92.2997C5.42403 92.2997 5.11787 92.1649 4.78318 92.006C4.78318 91.9935 4.77095 91.9935 4.77095 91.982C4.69749 91.9078 4.47701 91.6508 4.48924 91.4794C4.48924 91.4303 4.5138 91.3937 4.55047 91.3571C4.77095 91.1732 5.02811 91.3812 5.12602 91.4794C5.28526 91.6382 5.49341 91.7364 5.68934 91.8472C5.77502 91.8838 5.86071 91.9329 5.93427 91.982C5.90972 93.2098 5.88526 94.2056 5.88526 94.2182C5.88526 94.2913 5.93427 94.3404 6.00773 94.3404C6.06896 94.3404 6.1302 94.2913 6.1302 94.2182C6.1302 94.1941 6.20366 91.6748 6.20366 89.6835C6.20366 88.0018 6.35057 86.2181 6.60773 84.916C6.81588 83.8466 6.92612 83.0833 6.92612 82.324C6.92612 81.671 7.17105 81.5485 7.17105 81.5485C7.1955 81.5363 7.21995 81.5118 7.23228 81.4873C7.35475 81.2423 7.55067 80.6383 7.72204 80.0995C7.7955 79.8791 7.86896 79.6586 7.94252 79.3974C8.10166 78.9321 8.28536 78.3403 8.60782 77.3566C9.08536 75.8463 9.65275 73.1891 9.65275 73.1524V73.1157C9.77522 73.2136 9.95881 73.4586 10.1425 74.0626C10.6201 75.5239 11.4201 76.63 11.9997 77.3077C12.3548 77.7118 12.8977 78.2301 13.2037 78.4016C13.0936 78.769 12.6243 79.6667 12.0488 80.4627Z" fill="black"/>
<path d="M39.1801 93.8117C39.2291 93.7626 39.2169 93.6894 39.1678 93.6403C39.0454 93.5296 38.9841 93.1753 38.9719 92.9632C38.9719 92.889 38.9107 92.8399 38.8495 92.8399C38.776 92.8399 38.727 92.9016 38.727 92.9632C38.727 93.0238 38.7638 93.6037 39.0086 93.8117C39.0332 93.8357 39.0576 93.8357 39.0944 93.8357C39.1188 93.8483 39.1556 93.8357 39.1801 93.8117Z" fill="black"/>
<path d="M39.9512 93.3665C39.8777 93.3665 39.8287 93.4156 39.8287 93.4888C39.8287 93.5253 39.841 93.8932 40.0614 94.0645C40.0859 94.0771 40.1105 94.0886 40.1349 94.0886C40.1716 94.0886 40.2084 94.0771 40.2328 94.0405C40.2696 93.9914 40.2574 93.9057 40.2084 93.8681C40.0981 93.7949 40.0737 93.5745 40.0737 93.5013C40.0737 93.4156 40.0247 93.3665 39.9512 93.3665Z" fill="black"/>
<path d="M7.19583 94.9141C7.15905 94.9507 7.01214 94.9381 6.93868 94.9381H6.85299C6.77954 94.9381 6.73053 94.9872 6.73053 95.0614C6.73053 95.1346 6.77954 95.1837 6.85299 95.1837H6.92645H7.02436C7.14683 95.1837 7.28152 95.1711 7.36731 95.0855C7.41621 95.0364 7.41621 94.9632 7.36731 94.9141C7.3183 94.865 7.24484 94.865 7.19583 94.9141Z" fill="black"/>
<path d="M8.28985 80.9956C8.2654 80.9344 8.20417 80.8977 8.13071 80.9221C8.06948 80.9466 8.03269 81.0078 8.05715 81.0813C8.10615 81.2405 8.35108 81.6855 8.38786 81.7467C8.41231 81.7834 8.4491 81.8079 8.498 81.8079C8.52255 81.8079 8.53478 81.8079 8.55923 81.7956C8.62047 81.7589 8.64502 81.6855 8.60824 81.6242C8.52255 81.4731 8.32663 81.1181 8.28985 80.9956Z" fill="black"/>
<path d="M37.458 79.7417C37.3968 79.7295 37.3233 79.7662 37.3111 79.8274C37.2499 80.0723 37.3111 80.5295 37.4825 80.8233C37.507 80.8601 37.5437 80.8846 37.5927 80.8846C37.6172 80.8846 37.6417 80.8846 37.6539 80.8723C37.7152 80.8357 37.7274 80.7622 37.6906 80.701C37.5559 80.4683 37.4947 80.0723 37.5437 79.8886C37.5559 79.8274 37.5192 79.7662 37.458 79.7417Z" fill="black"/>
<path d="M18.9063 80.0604C18.9308 80.0726 18.9553 80.0848 18.9798 80.0848C19.0166 80.0848 19.0533 80.0604 19.0778 80.0359C19.1145 79.9747 19.1023 79.9012 19.041 79.8645C18.7716 79.6808 18.686 79.3747 18.5389 78.7338L18.5023 78.5992C18.3431 77.9461 18.637 77.6645 18.6492 77.6522C18.6982 77.6032 18.6982 77.5298 18.6614 77.4808C18.6125 77.4318 18.5389 77.4318 18.49 77.4685C18.4777 77.4808 18.0736 77.8604 18.2696 78.6604L18.3063 78.7951C18.4614 79.4563 18.5472 79.8278 18.9063 80.0604Z" fill="black"/>
<path d="M23.6733 83.1221C23.7101 82.9262 23.6121 82.8037 23.5998 82.7915C23.5508 82.7425 23.4774 82.7303 23.4284 82.7793C23.3795 82.8282 23.3671 82.9017 23.4161 82.9506C23.4161 82.9506 23.4407 82.9996 23.4284 83.0853C23.4039 83.22 23.2815 83.5017 22.6284 83.9099C21.9998 84.3017 21.216 84.1915 20.1344 83.5793C20.0732 83.5425 19.9997 83.567 19.9631 83.6283C19.9263 83.6895 19.9507 83.763 20.012 83.7996C20.7141 84.2037 21.3018 84.4037 21.8202 84.4037C22.1632 84.4037 22.4856 84.318 22.7672 84.1343C23.3142 83.7711 23.6243 83.4283 23.6733 83.1221Z" fill="black"/>
<path d="M20.7956 83.4032C20.8568 83.391 20.9058 83.3297 20.8935 83.2563C20.8812 83.1828 20.82 83.146 20.7466 83.1583C19.8976 83.3053 19.322 82.542 19.0771 81.8317C18.7955 81.0195 18.8199 80.444 18.8321 80.444C18.8321 80.3705 18.7832 80.3216 18.722 80.3093C18.6485 80.3093 18.5995 80.3583 18.5873 80.4195C18.5873 80.444 18.5505 81.0481 18.8567 81.9053C19.1016 82.6318 19.6935 83.4033 20.5506 83.4033C20.6241 83.4277 20.7099 83.4154 20.7956 83.4032Z" fill="black"/>
<path d="M20.4403 82.2234H20.4893C21.1179 82.1866 21.3628 81.3622 21.3751 81.3254C21.3995 81.2642 21.3505 81.1907 21.2893 81.1785C21.2281 81.1663 21.1546 81.2029 21.1424 81.2642C21.1424 81.2764 20.9342 81.954 20.4771 81.9907C20.0362 82.0153 19.824 81.3866 19.824 81.3744C19.7994 81.3132 19.7383 81.2764 19.6771 81.2887C19.6159 81.3132 19.5791 81.3744 19.5913 81.4356C19.6035 81.4601 19.8362 82.2234 20.4403 82.2234Z" fill="black"/>
<path d="M27.1508 80.3666C27.0896 80.3299 27.0161 80.3543 26.9794 80.4034C26.9671 80.4278 26.9427 80.4523 26.9305 80.4523C26.9305 80.4523 26.8447 80.44 26.7222 80.134C26.5753 79.7666 26.6733 79.4686 26.808 79.0523C26.8937 78.7951 26.9794 78.5012 27.0284 78.1297C27.1386 77.195 27.0651 76.6807 27.0651 76.6561C27.0528 76.5949 26.9917 76.546 26.9305 76.5582C26.8692 76.5704 26.8202 76.6317 26.8202 76.6929C26.8202 76.6929 26.8937 77.2072 26.7834 78.1052C26.7468 78.4481 26.6487 78.7339 26.5753 78.9787C26.4406 79.4073 26.3181 79.7788 26.5018 80.2195C26.6243 80.5257 26.759 80.6849 26.9181 80.6972H26.9427C27.1018 80.6972 27.1876 80.5502 27.1998 80.5379C27.2365 80.4767 27.2121 80.4034 27.1508 80.3666Z" fill="black"/>
<path d="M26.5594 82.6769C26.4982 82.6647 26.4247 82.7137 26.4125 82.7749C26.4125 82.7994 26.3023 83.3014 25.7472 83.3381C25.1961 83.3627 25.0573 82.9953 25.0573 82.9831C25.0329 82.9218 24.9839 82.8973 24.9226 82.8973C25.0451 82.3463 24.9961 81.8156 24.9961 81.7911C24.9839 81.7299 24.9349 81.681 24.8614 81.681C24.8002 81.6932 24.739 81.7422 24.7512 81.8157C24.7512 81.8279 24.8492 82.9218 24.4083 83.534C23.943 84.1871 23.3022 84.4687 22.5266 84.4075C22.4532 84.3953 22.4042 84.4565 22.3919 84.5177C22.3919 84.5912 22.4409 84.6402 22.5022 84.6524C22.5879 84.6647 22.6613 84.6647 22.747 84.6647C23.5103 84.6647 24.1348 84.334 24.6042 83.681C24.7266 83.5218 24.8001 83.3381 24.8613 83.1422C24.9593 83.3381 25.2165 83.5831 25.6859 83.5831H25.7593C26.3634 83.5463 26.6083 83.0687 26.6451 82.8197C26.6696 82.7504 26.6207 82.6891 26.5594 82.6769Z" fill="black"/>
<path d="M26.5469 82.0887C26.2285 82.0642 26.2162 81.4356 26.2162 81.4356C26.2162 81.3621 26.1672 81.3131 26.0938 81.3131C26.0203 81.3131 25.9713 81.3621 25.9713 81.4356C25.9713 81.4724 25.9835 82.2846 26.5224 82.3336H26.5346C26.5959 82.3336 26.6571 82.2846 26.6571 82.2233C26.6693 82.1499 26.6081 82.0887 26.5469 82.0887Z" fill="black"/>
<path d="M26.363 80.7386C26.3017 80.7142 26.2283 80.7386 26.2038 80.7999C26.2038 80.8121 26.1548 80.9101 26.167 81.0448C26.1793 81.2285 26.2773 81.3632 26.4609 81.4489C26.4732 81.4611 26.4976 81.4611 26.5099 81.4611C26.5589 81.4611 26.5957 81.4366 26.6201 81.3876C26.6446 81.3264 26.6201 81.2529 26.5589 81.2285C26.363 81.1427 26.412 80.959 26.4364 80.9101C26.4486 80.8366 26.4242 80.7631 26.363 80.7386Z" fill="black"/>
<path d="M21.0777 78.1294H21.1145C21.2368 78.1172 21.3104 78.0559 21.3471 78.0069C21.4205 77.909 21.4328 77.762 21.3839 77.5661V77.5538C21.3471 77.4069 21.2124 77.3089 21.0655 77.3089C20.9185 77.2967 20.7838 77.3824 20.7349 77.5172C20.7226 77.5538 20.7103 77.6028 20.7103 77.6518C20.7103 77.8232 20.7593 77.9579 20.845 78.0314C20.8818 78.1049 20.9675 78.1294 21.0777 78.1294Z" fill="black"/>
<path d="M24.5427 78.0928H24.5795C24.7019 78.0805 24.7754 78.0193 24.8121 77.9703C24.8855 77.8724 24.8978 77.7254 24.8366 77.5172C24.7998 77.3703 24.6651 77.2723 24.5182 77.2723C24.3713 77.26 24.2365 77.3457 24.1876 77.4805C24.1753 77.5172 24.1631 77.5662 24.1631 77.6152C24.1631 77.7866 24.2121 77.9213 24.2977 77.9947C24.3468 78.0683 24.4324 78.0928 24.5427 78.0928Z" fill="black"/>
<path d="M21.3755 78.7343C21.3633 78.7343 20.7102 78.8446 20.0367 78.4772C20.0122 78.465 19.9999 78.465 19.9755 78.465C19.9265 78.465 19.8898 78.4894 19.8653 78.5262C19.8286 78.5874 19.853 78.6609 19.9143 78.6976C20.6652 79.1017 21.3878 78.9793 21.4123 78.9793C21.4735 78.9671 21.5225 78.9058 21.5103 78.8323C21.5103 78.7711 21.4489 78.7221 21.3755 78.7343Z" fill="black"/>
<path d="M25.6493 78.5254C25.6247 78.4887 25.588 78.4642 25.539 78.4642C25.5146 78.4642 25.5024 78.4642 25.4778 78.4764C24.8003 78.8438 24.1513 78.7336 24.139 78.7336C24.0656 78.7213 24.0044 78.7703 24.0044 78.8316C23.9921 78.905 24.0411 78.9663 24.1024 78.9785C24.1268 78.9785 24.8534 79.101 25.6004 78.6969C25.6616 78.6601 25.686 78.5866 25.6493 78.5254Z" fill="black"/>
</svg>
