<svg xmlns="http://www.w3.org/2000/svg" version="1.1" viewBox="-5.0 -10.0 110.0 135.0">
  <path
    d="m55.727 28.855c0.070313 0 0.11719-0.046875 0.11719-0.11719 0-0.070312-0.046875-0.11719-0.11719-0.11719-0.21094 0-0.44531-0.26953-0.51562-0.36328-0.035157-0.058593-0.10547-0.070312-0.16406-0.035156s-0.070313 0.10547-0.035156 0.16406c0.019531 0.011719 0.32812 0.46875 0.71484 0.46875z" />
  <path
    d="m43.203 28.34c-0.058594 0.023437-0.09375 0.082031-0.070313 0.15234 0 0.011718 0.10547 0.33984-0.1875 0.51562-0.058593 0.035157-0.070312 0.10547-0.035156 0.16406 0.023438 0.035156 0.058594 0.058594 0.09375 0.058594 0.023438 0 0.046875 0 0.058594-0.023438 0.36328-0.22266 0.33984-0.625 0.28125-0.80078-0.011719-0.054688-0.070312-0.089844-0.14062-0.066406z" />
  <path
    d="m45.496 41.438c-0.023438 0.10547-0.011719 0.21094 0.046875 0.30469 0.023437 0.035156 0.058593 0.058593 0.10547 0.058593 0.023437 0 0.046874 0 0.058593-0.011719 0.058594-0.035156 0.070313-0.10547 0.035157-0.16406-0.035157-0.058594-0.035157-0.10547-0.023438-0.12891 0.058594-0.23438 0.625-0.57812 1.4102-1.0352 0.71875-0.42188 1.3984-0.63672 1.9766-0.61328h0.023437c0.070313 0 0.11719-0.046875 0.11719-0.11719 0-0.070313-0.046875-0.11719-0.11719-0.11719h-0.023437c-0.61328-0.011719-1.3398 0.21094-2.0938 0.64844-0.97266 0.56641-1.4453 0.87109-1.5156 1.1758z" />
  <path
    d="m41.641 42.133h0.046875c0.375 0 2.1992-0.31641 2.832-0.89453l0.12891-0.10547c0.55078-0.50391 0.96484-0.85937 1.9297-1.2227 0.058594-0.023437 0.09375-0.09375 0.070313-0.15234-0.023438-0.058593-0.09375-0.09375-0.15234-0.070312-1.0117 0.375-1.4219 0.75391-2 1.2695l-0.12891 0.10547c-0.58984 0.52734-2.4805 0.85938-2.6914 0.83594-0.058593-0.011719-0.12891 0.035156-0.12891 0.09375-0.011719 0.070312 0.035156 0.12891 0.09375 0.14062z" />
  <path
    d="m50.141 39.617c0.058594 0.011718 0.11719-0.035157 0.12891-0.10547 0 0 0.023438-0.17578 0.14062-0.22266 0.070313-0.023437 0.26953-0.023437 0.71875 0.42188 0.14062 0.14062 0.26953 0.28125 0.41016 0.42187 0.82422 0.84766 1.6797 1.7188 2.5391 1.8359 0.011719 0 0.36328 0.046875 0.75391 0.046875 0.41016 0 0.85938-0.058594 0.91797-0.26953 0.046875-0.17578-0.14062-0.33984-0.625-0.52734-1.3281-0.52734-2.0703-0.53906-2.1055-0.53906-0.070312 0-0.11719 0.046874-0.11719 0.11719s0.046875 0.11719 0.11719 0.11719c0.011719 0 0.73047 0.011719 2.0117 0.51563 0.33984 0.14062 0.43359 0.22266 0.46875 0.25781-0.12891 0.082031-0.74219 0.14062-1.3984 0.046875-0.78906-0.10547-1.6094-0.95312-2.4102-1.7656-0.14062-0.14062-0.26953-0.28125-0.41016-0.42188-0.39844-0.39844-0.71875-0.5625-0.96484-0.48047-0.25781 0.082032-0.29297 0.39844-0.29297 0.41016 0.011718 0.070313 0.046874 0.12891 0.11719 0.14063z" />
  <path
    d="m51.258 39.086c0.058594 0.011718 0.11719-0.011719 0.14063-0.070313 0.058593-0.035156 0.23437-0.12891 0.82422-0.36328 0.90625-0.35156 1.7773-0.32812 2.457 0.058594 0.50391 0.29297 1.0352 0.87109 0.98828 1.0586-0.011719 0.046875-0.11719 0.082031-0.26953 0.082031-0.070313 0-0.11719 0.046876-0.11719 0.11719s0.046875 0.11719 0.11719 0.11719c0.28125 0 0.44531-0.082032 0.49219-0.25781 0.10547-0.39844-0.64844-1.0586-1.0938-1.3281-0.74219-0.42188-1.6797-0.44531-2.6562-0.070312-0.98828 0.375-0.98828 0.44531-0.97656 0.53906 0 0.046875 0.035157 0.09375 0.09375 0.11719z" />
  <path
    d="m53.82 42.18c-1.2227-0.66016-2.7852-1.3281-2.7969-1.3281-0.058594-0.023437-0.12891 0-0.15234 0.058594-0.023438 0.058594 0 0.12891 0.058594 0.15234 0.011718 0.011719 1.5625 0.67188 2.7734 1.3164 1 0.53906 1.6094 0.70703 2.0938 0.84766 0.10547 0.035157 0.21094 0.058594 0.31641 0.09375 0.17578 0.058594 0.22266 0.17578 0.19922 0.28125-0.046875 0.15234-0.28125 0.25781-0.625 0.16406-0.30469-0.09375-0.52734-0.11719-0.73047-0.14062-0.30469-0.035156-0.55078-0.070312-1-0.33984-0.058593-0.035156-0.12891-0.011718-0.16406 0.035156-0.035157 0.046876-0.011719 0.12891 0.035156 0.16406 0.49219 0.30469 0.77734 0.33984 1.0938 0.375 0.1875 0.023437 0.39844 0.046875 0.69531 0.12891 0.11719 0.035157 0.23437 0.046875 0.32812 0.046875 0.32813 0 0.52734-0.16406 0.58984-0.36328 0.058594-0.21094-0.035156-0.46875-0.35156-0.5625-0.10547-0.035156-0.21094-0.058594-0.31641-0.09375-0.46875-0.14062-1.0586-0.30469-2.0469-0.83594z" />
  <path
    d="m57.301 44.613c0.10547 0.058594 0.19922 0.10547 0.30469 0.15234 0.48047 0.24609 0.83594 0.42188 1.1172 0.83594 0.023438 0.035157 0.058594 0.046876 0.09375 0.046876 0.023438 0 0.046875-0.011719 0.070313-0.023438 0.058593-0.035156 0.070312-0.10547 0.035156-0.16406-0.31641-0.46875-0.70703-0.67188-1.1992-0.91797-0.09375-0.046875-0.1875-0.09375-0.29297-0.15234-0.14063-0.070313-0.41016-0.21094-0.51563-0.30469 0.046876-0.011719 0.11719-0.023438 0.24609-0.035157 0.49219-0.046875 1.3633 0.8125 1.6562 1.1523 0.046875 0.046875 0.11719 0.058594 0.16406 0.011719s0.058593-0.11719 0.011719-0.16406c-0.11719-0.12891-1.1523-1.3047-1.8594-1.2344-0.28125 0.023438-0.45703 0.070313-0.49219 0.22266-0.054687 0.17578 0.14453 0.30469 0.66016 0.57422z" />
  <path
    d="m56.02 45.098h0.10547 0.046875c0.070313 0 0.11719-0.046875 0.11719-0.11719 0-0.070313-0.046874-0.11719-0.11719-0.11719h-0.058594c-0.14062 0.011719-0.43359 0.023438-1.5039-0.29297-0.058594-0.023437-0.12891 0.011719-0.14062 0.082032-0.023438 0.058594 0.011719 0.12891 0.082031 0.14062 0.89453 0.26953 1.2695 0.30469 1.4688 0.30469z" />
  <path
    d="m57.598 49.508c-0.011718 0-1.2812-0.14062-1.8828-0.85937-0.36328-0.43359-0.67188-0.97656-0.85938-1.3516-0.16406-0.32812-0.35156-0.63672-0.55078-0.92969-0.63672-0.94141-0.70703-1.2227-0.71875-1.293 0.1875-0.058594 0.51562 0.082031 0.97656 0.28125 0.09375 0.035156 0.1875 0.082031 0.29297 0.12891 0.058593 0.023437 0.12891 0 0.15234-0.058594 0.023438-0.058593 0-0.12891-0.058593-0.15234-0.10547-0.046876-0.19922-0.082032-0.29297-0.12891-0.5625-0.24609-0.92969-0.41016-1.1992-0.26953-0.046875 0.023438-0.082031 0.070312-0.09375 0.11719-0.023437 0.082031-0.070312 0.28125 0.75391 1.5039 0.1875 0.28125 0.375 0.60156 0.53906 0.90625 0.19922 0.38672 0.51562 0.94141 0.89453 1.3867 0.66016 0.78906 1.9766 0.92969 2.0352 0.94141h0.011718c0.058594 0 0.10547-0.046875 0.11719-0.10547 0-0.058594-0.046875-0.11719-0.11719-0.11719z" />
  <path
    d="m56.16 49.918c-0.046875-0.070313-0.48047-0.70703-0.74219-0.58984-0.16406 0.070313-0.12891 0.33984-0.070313 0.58984 0.1875 0.73047 0.070313 1.4688 0.035156 1.6797-0.011718 0.058594 0.023438 0.12891 0.09375 0.15234h0.023438c0.035156 0 0.09375-0.011719 0.11719-0.10547v-0.023437c0.046874-0.24609 0.15234-1-0.035157-1.7656-0.035156-0.15234-0.046875-0.24609-0.046875-0.29297 0.10547 0.070312 0.30469 0.28125 0.43359 0.48047l0.035156 0.046875c0.1875 0.28125 0.33984 0.50391 0.10547 0.84766-0.035156 0.058594-0.023437 0.12891 0.035156 0.16406 0.058594 0.035157 0.12891 0.023438 0.16406-0.035156 0.32812-0.46875 0.09375-0.83594-0.10547-1.1172z" />
  <path
    d="m53.469 46.531c-1.1875-1.7891-1.8125-2.3867-1.8359-2.4102-0.24609-0.24609-0.71875-0.5625-0.92969-0.43359-0.035156 0.023438-0.11719 0.09375-0.070313 0.25781 0.035157 0.11719 0.17578 0.39844 0.39844 0.8125 0.375 0.73047 0.94141 1.8477 1.4336 3.0117 0.74219 1.7656 0.55078 2.9062 0.55078 2.918-0.011719 0.058594 0.035156 0.12891 0.09375 0.14062s0.12891-0.035156 0.14062-0.09375c0.011719-0.046875 0.19922-1.2109-0.57812-3.0469-0.49219-1.1758-1.0586-2.293-1.4336-3.0234-0.17578-0.35156-0.32812-0.63672-0.375-0.75391 0.11719 0.035156 0.375 0.17578 0.60156 0.39844 0.011718 0.011718 0.63672 0.61328 1.8125 2.3633 0.91797 1.375 1.0352 2.6445 1.1289 3.5625 0.023438 0.26953 0.046875 0.49219 0.082031 0.70703 0.011719 0.058594 0.058594 0.09375 0.11719 0.09375h0.023437c0.058594-0.011718 0.10547-0.070312 0.09375-0.14062-0.035156-0.19922-0.058594-0.42188-0.082031-0.68359-0.089844-0.95313-0.21875-2.2461-1.1719-3.6797z" />
  <path
    d="m49.695 43.969c0.070313 0 0.11719-0.058594 0.11719-0.11719v-0.082031c0.11719 0.17578 0.31641 0.55078 0.49219 0.89453 0.082031 0.15234 0.16406 0.31641 0.24609 0.46875 0.058594 0.11719 0.12891 0.23438 0.1875 0.33984 0.45703 0.84766 0.73047 1.3516 0.92969 2.4805 0.10547 0.58984 0.10547 1.4102 0.10547 2.0117 0 0.8125 0 0.98828 0.16406 1.0117h0.011719c0.058593 0 0.10547-0.046874 0.11719-0.10547 0-0.035156-0.011718-0.070313-0.035156-0.10547-0.023438-0.09375-0.023438-0.46875-0.023438-0.8125 0-0.61328 0-1.4453-0.10547-2.0469-0.21094-1.1523-0.50391-1.707-0.95312-2.5508-0.058594-0.10547-0.11719-0.22266-0.1875-0.33984-0.082031-0.16406-0.16406-0.31641-0.24609-0.46875-0.46875-0.89453-0.61328-1.1523-0.80078-1.1055-0.14062 0.035156-0.14062 0.23438-0.14062 0.41016 0.003906 0.070313 0.050781 0.11719 0.12109 0.11719z" />
  <path
    d="m50.848 50.859c-0.058594-0.011719-0.12891 0.023437-0.14062 0.082031-0.058593-0.12891-0.17578-0.49219-0.32812-1.4805-0.16406-1.1055-0.22266-1.7188-0.25781-2.1641-0.035156-0.52734-0.070313-0.88281-0.24609-1.5625-0.011719-0.058594-0.082031-0.10547-0.14062-0.082031-0.058594 0.011718-0.10547 0.082031-0.082031 0.14062 0.17578 0.66016 0.19922 1 0.23438 1.5156 0.035156 0.45703 0.082031 1.082 0.25781 2.1875 0.24609 1.5977 0.42188 1.7422 0.5625 1.7539h0.011719c0.15234 0 0.19922-0.1875 0.22266-0.24609 0.011719-0.0625-0.035156-0.12109-0.09375-0.14453z" />
  <path
    d="m48.52 46.613c-0.070312 0-0.11719 0.058594-0.10547 0.12891 0.09375 1.1523 0.070313 1.2578-0.058593 1.8828-0.046875 0.25781-0.11719 0.61328-0.21094 1.1758-0.21094 1.3633-0.10547 1.3984 0 1.4336 0.011719 0 0.023438 0.011719 0.046875 0.011719 0.082032 0 0.15234-0.070313 0.21094-0.21094 0.023437-0.058594 0-0.12891-0.058594-0.15234-0.023438-0.011718-0.058594-0.011718-0.082031 0 0-0.16406 0.035156-0.46875 0.11719-1.0352 0.082032-0.55078 0.15234-0.90625 0.21094-1.1641 0.12891-0.64844 0.15234-0.76562 0.058594-1.9531-0.011719-0.070313-0.058594-0.11719-0.12891-0.11719z" />
  <path
    d="m46.566 48.59c-0.14062 0.058594-0.1875 0.24609-0.011718 1.082 0.011718 0.058594 0.070312 0.10547 0.14062 0.09375 0.058594-0.011719 0.10547-0.070313 0.09375-0.14062-0.09375-0.44531-0.10547-0.66016-0.10547-0.76562 0.035156 0.035156 0.082031 0.10547 0.15234 0.21094 0.46875 0.73047 0.53906 2.2461 0.53906 2.2578 0 0.058594 0.058594 0.11719 0.11719 0.11719 0.070312 0 0.11719-0.058593 0.11719-0.11719 0-0.070313-0.070313-1.5977-0.58984-2.3867-0.16016-0.25781-0.30078-0.41016-0.45312-0.35156z" />
  <path
    d="m46.344 50.551c-0.035156-0.058593-0.10547-0.070312-0.16406-0.035156-0.058594 0.035156-0.070313 0.10547-0.035157 0.16406 0.31641 0.46875 0.44531 0.98828 0.44531 0.98828 0.011718 0.058593 0.058594 0.09375 0.11719 0.09375h0.023438c0.058593-0.011719 0.10547-0.082031 0.082031-0.14062 0-0.035156-0.14062-0.5625-0.46875-1.0703z" />
  <path
    d="m45.238 50.672c-2-0.46875-2.375-0.23438-3.0117 0.14062-0.058593 0.035156-0.10547 0.070312-0.16406 0.10547-0.058594 0.035156-0.070312 0.10547-0.046875 0.16406 0.023437 0.035157 0.058594 0.058594 0.10547 0.058594 0.023437 0 0.035156 0 0.058594-0.011719 0.058593-0.035156 0.11719-0.070312 0.16406-0.10547 0.60156-0.36328 0.92969-0.5625 2.832-0.11719 0.058594 0.011719 0.12891-0.023438 0.14062-0.082031 0.027344-0.082031-0.019531-0.14062-0.078125-0.15234z" />
  <path
    d="m46.238 43.109c0.19922-0.16406 0.39844-0.33984 0.60156-0.53906 0.046875-0.046874 0.046875-0.11719 0-0.16406s-0.11719-0.046875-0.16406 0c-0.19922 0.1875-0.39844 0.36328-0.60156 0.52734-0.44531 0.375-0.85938 0.73047-1.2109 1.2578-0.11719 0.17578-0.19922 0.30469-0.10547 0.39844 0.023438 0.023437 0.046876 0.035156 0.082032 0.035156 0.09375 0 0.23438-0.12891 0.69531-0.53906 0.35156-0.30469 0.82422-0.73047 1.3398-1.1406 1.3281-1.0469 1.6445-1.668 1.6562-1.6914 0.023438-0.058594 0-0.12891-0.046875-0.15234-0.058594-0.023437-0.12891-0.011718-0.15234 0.046876 0 0.011718-0.31641 0.60156-1.5859 1.6094-0.51562 0.41016-1 0.83594-1.3516 1.1523-0.011719 0.011719-0.011719 0.011719-0.023437 0.023438 0.26562-0.32031 0.55859-0.56641 0.86719-0.82422z" />
  <path
    d="m48.023 42.602c0.035156-0.058593 0.011718-0.12891-0.046876-0.16406-0.058593-0.035156-0.12891-0.011719-0.16406 0.046875 0 0.011719-0.42188 0.73047-1.7539 2.4102-0.23438 0.30469-0.43359 0.5625-0.61328 0.78906-0.78906 1.0234-1 1.293-2 1.8242-0.55078 0.29297-0.87109 0.41016-1.0234 0.44531 0.035156-0.035156 0.09375-0.09375 0.1875-0.16406 0.625-0.48047 1.1406-0.94141 1.6094-1.5625 0.33984-0.43359 0.69531-0.77734 1.0117-1.082 0.11719-0.10547 0.22266-0.21094 0.31641-0.30469 0.046875-0.046875 0.046875-0.11719 0-0.16406s-0.11719-0.046875-0.16406 0c-0.09375 0.09375-0.21094 0.19922-0.31641 0.30469-0.31641 0.30469-0.69531 0.64844-1.0352 1.1055-0.46875 0.60156-0.96484 1.0469-1.5742 1.5156-0.30469 0.24609-0.41016 0.39844-0.32812 0.51563 0.023438 0.023437 0.046875 0.082031 0.17578 0.082031 0.16406 0 0.51562-0.09375 1.2461-0.48047 1.0469-0.55078 1.2812-0.87109 2.0703-1.8945 0.17578-0.22266 0.36328-0.48047 0.61328-0.77734 1.3555-1.7031 1.7656-2.418 1.7891-2.4453z" />
  <path
    d="m42.77 46.555c0.26953-0.22266 0.50391-0.41016 0.70703-0.71875 0.035157-0.058594 0.023438-0.12891-0.035156-0.16406s-0.12891-0.023437-0.16406 0.035156c-0.1875 0.28125-0.38672 0.44531-0.66016 0.67188-0.23438 0.19922-0.50391 0.41016-0.84766 0.77734-0.73047 0.78906-0.625 1.1406-0.60156 1.1992 0.023437 0.046875 0.070312 0.070312 0.10547 0.070312 0.011718 0 0.035156 0 0.046874-0.011719 0.058594-0.023437 0.082032-0.09375 0.058594-0.15234 0 0-0.070312-0.28125 0.55078-0.95312 0.34375-0.35547 0.61328-0.56641 0.83984-0.75391z" />
  <path
    d="m48.438 63.078c0.023438 0.046875 0.058594 0.070313 0.10547 0.070313 0.011719 0 0.035156 0 0.046875-0.011719 0.058594-0.023438 0.082031-0.09375 0.058594-0.15234-0.31641-0.76562-2.293-2.5508-2.375-2.6211-0.046876-0.046875-0.11719-0.035156-0.16406 0.011719s-0.035156 0.11719 0.011719 0.16406c0.011718 0.007813 2.0195 1.8203 2.3164 2.5391z" />
  <path
    d="m50.516 62.863h0.023437c0.058594 0 0.10547-0.035156 0.11719-0.09375 0.15234-0.69531 1.0352-1.8359 2.6094-2.7031 0.058594-0.035156 0.082031-0.10547 0.046875-0.16406s-0.10547-0.082032-0.16406-0.046875c-1.6328 0.91797-2.5508 2.0938-2.7148 2.8594-0.023438 0.078125 0.023437 0.13672 0.082031 0.14844z" />
  <path
    d="m49.223 53.973s0.046875-0.070312 0.11719-0.11719c0.023437-0.011719 0.058594-0.023438 0.070312 0 0.035156 0.023437 0.070313 0.070312 0.09375 0.12891 0.011719 0.046875 0.011719 0.082031-0.023437 0.12891-0.035157 0.046875-0.09375 0.070313-0.10547 0.070313-0.058594-0.023438-0.12891 0.011718-0.15234 0.070312-0.023437 0.058594 0.011719 0.12891 0.070313 0.15234 0.023437 0.011719 0.046875 0.011719 0.070312 0.011719 0.09375 0 0.1875-0.046875 0.25781-0.12891 0.10547-0.11719 0.12891-0.25781 0.070312-0.38672-0.035156-0.09375-0.09375-0.16406-0.16406-0.22266-0.09375-0.070313-0.23438-0.070313-0.33984 0-0.10547 0.070312-0.17578 0.16406-0.17578 0.17578-0.035157 0.058593-0.023438 0.12891 0.023437 0.16406 0.082032 0.027344 0.15234 0.015625 0.1875-0.046875z" />
  <path
    d="m43.945 66.191c0.082032 0.046875 2.0117 1.1992 3.1758 1.3398 0.48047 0.058594 1.1289 0.070312 1.7539 0.082031 0.63672 0.011719 1.5039 0.023438 1.6094 0.11719 0.035156 0.058593 0 0.12891-0.011719 0.17578-0.09375 0.17578-0.375 0.38672-0.89453 0.43359-0.070313 0-0.11719 0.058594-0.10547 0.12891 0 0.058594 0.058594 0.10547 0.11719 0.10547h0.011718c0.61328-0.058594 0.96484-0.32812 1.082-0.5625 0.070312-0.14062 0.082031-0.28125 0.011718-0.39844-0.10547-0.1875-0.57812-0.21094-1.8125-0.23438-0.61328-0.011718-1.2578-0.023437-1.7305-0.082031-1.1172-0.14062-3.0586-1.3047-3.082-1.3164-0.058593-0.035157-0.12891-0.011719-0.16406 0.035156-0.03125 0.070313-0.019531 0.14062 0.039062 0.17578z" />
  <path
    d="m45.836 66.062c0.023437 0 1.9883 0.070312 3.1172 0.21094 1.0234 0.12891 2.1758-0.15234 3.3984-0.44531 0.17578-0.046875 0.35156-0.082031 0.52734-0.12891 0.84766-0.19922 1.1055-0.16406 1.1758-0.14062-0.023438 0.10547-0.21094 0.48047-1.4102 0.77734-0.058593 0.011718-0.10547 0.082031-0.082031 0.14062 0.011719 0.058594 0.058594 0.09375 0.11719 0.09375h0.023437c1.5742-0.38672 1.6094-0.95312 1.5977-1.0586 0-0.023438-0.011719-0.070313-0.058593-0.11719-0.09375-0.082031-0.33984-0.17578-1.4102 0.082031-0.17578 0.046876-0.35156 0.082032-0.52734 0.12891-1.1992 0.29297-2.3281 0.5625-3.3164 0.44531-1.1406-0.14062-3.1172-0.21094-3.1406-0.21094-0.058594 0-0.11719 0.046875-0.11719 0.11719-0.011719 0.046875 0.035156 0.10547 0.10547 0.10547z" />
  <path
    d="m43.684 70.074c1.0938 0.73047 6.4453 0.70703 6.6797 0.70703 0.070313 0 0.11719-0.058594 0.11719-0.11719 0-0.058593-0.058594-0.11719-0.11719-0.11719-0.058593 0-5.5156 0.023437-6.5508-0.66016-0.32812-0.22266-0.64844-0.46875-0.89453-0.67188-0.44531-0.36328-0.64844-0.51562-0.80078-0.42188-0.11719 0.082031-0.082032 0.26953 0 0.53906 0.35156 1.0586 2.6562 3.1289 4.4102 3.3867 0.44531 0.070312 0.97656 0.09375 1.5156 0.09375 1.5273 0 3.2109-0.21094 3.9492-0.33984 0.058593-0.011718 0.10547-0.070312 0.09375-0.14062-0.011719-0.058593-0.070313-0.10547-0.14063-0.09375-0.97656 0.17578-3.7031 0.49219-5.3867 0.24609-1.7422-0.25781-3.9258-2.3516-4.2227-3.2227-0.035157-0.11719-0.058594-0.1875-0.058594-0.23438 0.10547 0.058594 0.30469 0.22266 0.49219 0.36328 0.26953 0.19922 0.57422 0.44531 0.91406 0.68359z" />
  <path
    d="m55.223 69.66c-0.90625 0.61328-1.1406 0.74219-2.1172 1.0234-0.058594 0.023437-0.09375 0.082031-0.082031 0.14062 0.011718 0.046875 0.058593 0.082031 0.11719 0.082031h0.035156c1.0117-0.28125 1.2695-0.43359 2.1875-1.0586 0.90625-0.61328 2.0703-2.2578 2.1172-2.3281 0.035156-0.058593 0.023437-0.12891-0.023438-0.16406-0.058593-0.035157-0.12891-0.023438-0.16406 0.023437-0.027344 0.023438-1.2031 1.6836-2.0703 2.2812z" />
  <path
    d="m49.543 69.52c0.023437 0.046875 0.058593 0.070313 0.10547 0.070313 0.011718 0 0.035156 0 0.046874-0.011719 0.023438-0.011719 1.8711-0.89453 2.9531-1.0703 1.2461-0.19922 2.2812-0.55078 2.8203-0.95312 0.5625-0.42188 0.66016-0.55078 1.2695-1.3633l0.082031-0.10547c0.035157-0.046876 0.023438-0.12891-0.023437-0.16406s-0.12891-0.023437-0.16406 0.023437l-0.082031 0.10547c-0.61328 0.80078-0.69531 0.90625-1.2344 1.3164-0.51562 0.38672-1.5039 0.71875-2.7148 0.91797-1.1172 0.17578-2.9414 1.0469-3.0117 1.0938-0.046875 0.011719-0.070313 0.082032-0.046875 0.14062z" />
  <path
    d="m42.039 65.969c0.16406 0.15234 0.42188 0.375 0.84766 0.77734 0.77734 0.73047 2.1992 1.4922 3.5273 1.8945 0.96484 0.29297 2.1992 0.36328 2.2695 0.36328 0.10547 0 0.22266 0 0.30469 0.011719-0.046875 0.023437-0.09375 0.046875-0.14062 0.070313-0.52734 0.28125-1.5039 0.82422-3.8906 0.39844-0.058593-0.011719-0.12891 0.035156-0.14062 0.09375-0.011718 0.058594 0.035156 0.12891 0.09375 0.14062 0.64844 0.10547 1.1875 0.15234 1.6445 0.15234 1.3164 0 1.9883-0.36328 2.3984-0.58984 0.058594-0.035156 0.10547-0.058594 0.15234-0.082031 0.070312-0.035157 0.24609-0.12891 0.21094-0.26953-0.011718-0.058594-0.046875-0.1875-0.66016-0.16406-0.011719 0-1.2695-0.070313-2.1992-0.35156-1.5039-0.45703-2.8086-1.2578-3.4336-1.8477-0.43359-0.39844-0.68359-0.63672-0.84766-0.77734-0.29297-0.26953-0.32812-0.29297-0.64844-0.68359-0.046875-0.046875-0.11719-0.058594-0.16406-0.011719s-0.058593 0.11719-0.011719 0.16406c0.33594 0.40625 0.38281 0.44141 0.6875 0.71094z" />
  <path
    d="m51.492 73.648c0.83594-0.09375 1.5977-0.32813 2.2812-0.53906 0.36328-0.10547 0.71875-0.21094 1.0352-0.29297 0.89453-0.21094 1.5391-0.55078 2.1055-1.1055 0.375-0.375 0.625-0.73047 0.87109-1.0703 0.09375-0.12891 0.1875-0.25781 0.28125-0.38672 0.33984-0.43359 1.0352-1.5977 1.3984-2.2227l0.070312-0.12891c0.035156-0.058594 0.011719-0.12891-0.035156-0.16406-0.058594-0.035156-0.12891-0.011719-0.16406 0.035157l-0.070313 0.12891c-0.33984 0.57812-1.0586 1.7656-1.3867 2.1992-0.09375 0.12891-0.1875 0.25781-0.29297 0.38672-0.24609 0.32812-0.49219 0.68359-0.84766 1.0352-0.52734 0.52734-1.1406 0.84766-1.9883 1.0469-0.32812 0.070313-0.68359 0.1875-1.0469 0.29297-0.67188 0.19922-1.4336 0.43359-2.2461 0.52734-1.2344 0.14062-1.7305 0.17578-3.9727 0.070313-2.1641-0.10547-4.6445-2.3164-4.668-2.3398-0.046875-0.046875-0.11719-0.035156-0.16406 0.011718-0.046875 0.046876-0.035156 0.11719 0.011718 0.16406 0.011719 0 0.64844 0.57812 1.5508 1.1523 1.2227 0.77734 2.3164 1.1992 3.2695 1.2461 0.88281 0.046876 1.4922 0.058594 2 0.058594 0.76172 0.023438 1.2461-0.023437 2.0078-0.10547z" />
  <path
    d="m59.348 72.32c-0.046875-0.035156-0.12891-0.035156-0.16406 0.023438-0.011719 0.011719-1.1172 1.4336-2.1055 2.2812s-1.6211 1.2344-2.2461 1.375c-0.10547 0.023438-0.19922 0.046875-0.30469 0.070312-0.46875 0.11719-0.84766 0.22266-1.5625-0.070312-0.058594-0.023438-0.12891 0-0.15234 0.070312-0.023438 0.058594 0 0.12891 0.070312 0.15234 0.375 0.15234 0.68359 0.19922 0.94141 0.19922 0.28125 0 0.51562-0.058594 0.77734-0.12891 0.09375-0.023438 0.1875-0.046875 0.29297-0.070313 0.67188-0.15234 1.3281-0.55078 2.3516-1.4219 1-0.85938 2.1289-2.3047 2.1406-2.3164 0.019531-0.046875 0.007812-0.12891-0.039063-0.16406z" />
  <path
    d="m54.984 74.129c0.15234-0.058594 0.32812-0.12891 0.51562-0.19922 0.90625-0.33984 1.6328-0.78906 2.3047-1.4219 0.68359-0.64844 2.2109-2.9414 2.2812-3.0352 0.035156-0.058594 0.023437-0.12891-0.035157-0.16406-0.058593-0.035156-0.12891-0.023438-0.16406 0.035156-0.011719 0.023438-1.5742 2.3633-2.2461 3-0.64844 0.61328-1.3516 1.0469-2.2227 1.375-0.19922 0.070312-0.36328 0.14062-0.52734 0.21094-0.52734 0.21094-0.91797 0.36328-1.7891 0.50391-0.82422 0.12891-2.7617 0.43359-3.082 0.36328-0.058593-0.011719-0.12891 0.023437-0.14062 0.09375-0.011718 0.058594 0.023438 0.12891 0.09375 0.14062 0.046875 0.011719 0.11719 0.011719 0.19922 0.011719 0.48047 0 1.5391-0.15234 2.9766-0.375 0.89844-0.16016 1.3203-0.32812 1.8359-0.53906z" />
  <path
    d="m54.656 73.543c0.22266-0.058594 0.41016-0.10547 0.58984-0.15234 0.55078-0.12891 0.85938-0.375 1.4453-0.87109 0.24609-0.19922 0.5625-0.45703 0.96484-0.77734 1.375-1.0469 2.293-3.1172 2.3398-3.2109 0.023437-0.058594 0-0.12891-0.058594-0.15234-0.058594-0.023437-0.12891 0-0.15234 0.058594-0.011718 0.023438-0.94141 2.1055-2.2578 3.1172-0.41016 0.31641-0.71875 0.5625-0.97656 0.77734-0.58984 0.48047-0.84766 0.70703-1.3516 0.82422-0.16406 0.035156-0.36328 0.09375-0.58984 0.15234-0.75391 0.1875-1.7773 0.45703-2.7383 0.5625-1.4688 0.16406-2.8086 0.24609-3.6797 0.21094-0.070312 0-0.11719 0.046875-0.11719 0.11719 0 0.070312 0.046875 0.11719 0.11719 0.11719 0.12891 0 0.26953 0.011719 0.41016 0.011719 0.87109 0 2.0469-0.082031 3.3047-0.22266 0.96484-0.10547 1.9961-0.375 2.75-0.5625z" />
  <path
    d="m46.52 76.398c-0.011719 0-0.84766 0.26953-2.0469-0.070313-0.33984-0.09375-1.0352-0.61328-2.3984-2.4922-0.82422-1.1406-1.5156-2.2578-1.5156-2.2695-0.035156-0.058594-0.10547-0.070312-0.16406-0.035156-0.058593 0.035156-0.070312 0.10547-0.035156 0.16406 0.11719 0.1875 2.7734 4.5039 4.0586 4.8672 0.49219 0.14062 0.92969 0.1875 1.2812 0.1875 0.55078 0 0.88281-0.10547 0.90625-0.11719 0.058593-0.023437 0.09375-0.082031 0.070312-0.15234-0.027343-0.070313-0.097656-0.10547-0.15625-0.082031z" />
  <path
    d="m71.754 91.355c-0.10547-0.1875-0.375-0.23438-0.8125-0.16406 0.058594-0.046875 0.09375-0.09375 0.12891-0.15234 0.046876-0.09375 0.046876-0.19922-0.011718-0.30469-0.12891-0.26953-0.52734-0.22266-0.5625-0.21094-0.15234 0.011718-0.29297 0.035156-0.41016 0.046874v-0.023437c0-0.035156-0.011719-0.23438-0.16406-0.36328-0.11719-0.09375-0.26953-0.12891-0.46875-0.09375-0.46875 0.082031-0.89453 0.21094-1.1758 0.32812-0.035156 0.011719-0.058594 0.023437-0.09375 0.046875-0.011719-0.023438-0.023438-0.046875-0.046875-0.070313-0.09375-0.10547-0.26953-0.15234-0.51562-0.12891-0.33984 0.023437-0.64844 0.15234-0.83594 0.24609-0.023437-0.16406-0.035156-0.33984-0.046875-0.53906-0.15234-1.8242-0.25781-2.7617-0.53906-3.832-0.31641-1.1758-0.58984-2.4336-0.82422-3.7266-0.25781-1.4102-0.63672-1.5508-0.70703-1.5625-0.058594-0.011718-0.12891 0.023438-0.14062 0.09375-0.011719 0.058594 0.023437 0.12891 0.082031 0.14063 0 0 0.30469 0.14062 0.52734 1.375 0.23438 1.293 0.51562 2.5625 0.82422 3.75 0.28125 1.0469 0.38672 1.9766 0.53906 3.7852 0.023438 0.26953 0.046875 0.50391 0.070312 0.73047v0.011719c0.12891 1.0469 0.29297 1.4336 0.375 1.6211 0.011719 0.023437 0.011719 0.035156 0.023438 0.058594 0.023438 0.046875 0.058594 0.070312 0.10547 0.070312 0.011719 0 0.023437 0 0.046875-0.011719 0.058594-0.023437 0.09375-0.09375 0.070312-0.15234-0.011718-0.023438-0.011718-0.035157-0.023437-0.058594-0.070313-0.16406-0.22266-0.51562-0.35156-1.4922 0.12891-0.070313 0.45703-0.23438 0.8125-0.26953 0.22266-0.011718 0.30469 0.035156 0.32812 0.058594l0.023438 0.023438c-0.38672 0.24609-0.70703 0.5625-0.71875 0.57812-0.046875 0.046876-0.046875 0.11719 0 0.16406 0.023437 0.023437 0.046875 0.035156 0.082031 0.035156s0.058594-0.011719 0.082031-0.035156c0 0 0.46875-0.48047 0.95312-0.69531 0.25781-0.11719 0.67188-0.23437 1.1172-0.31641 0.12891-0.023437 0.22266-0.011718 0.28125 0.035156 0.082031 0.070313 0.082031 0.1875 0.082031 0.1875 0 0.035157-0.011719 0.046876 0 0.058594-0.023437 0-0.046875 0.011719-0.070313 0.023438-0.25781 0.070312-0.49219 0.16406-0.75391 0.30469-0.46875 0.25781-0.8125 0.52734-0.82422 0.53906-0.046876 0.035156-0.058594 0.11719-0.011719 0.16406 0.035156 0.046875 0.11719 0.058594 0.16406 0.011719 0 0 0.32812-0.26953 0.78906-0.51562 0.45703-0.24609 0.76562-0.32812 1.3984-0.38672 0.058594-0.011719 0.28125-0.011719 0.32812 0.082031 0.023438 0.046876 0.011719 0.082032 0.011719 0.10547-0.023437 0.046875-0.11719 0.15234-0.50391 0.24609-0.39844 0.09375-0.78906 0.39844-0.91797 0.50391-0.09375 0.046875-0.19922 0.10547-0.30469 0.17578-0.058593 0.035157-0.070312 0.10547-0.035156 0.16406s0.10547 0.070313 0.16406 0.035156c0.070312-0.046875 0.15234-0.09375 0.22266-0.14062 0.023437 0 0.046875-0.011718 0.058594-0.023437 0 0 0.011719-0.011719 0.023437-0.011719 0.33984-0.17578 0.66016-0.26953 1-0.36328 0.61328-0.16406 0.94141-0.14062 1-0.046875 0.023438 0.046875 0.023438 0.09375 0.011719 0.12891-0.046875 0.11719-0.23438 0.22266-0.50391 0.28125-0.15234 0.035156-0.5625 0.19922-0.83594 0.35156-0.12891 0.070313-0.22266 0.14063-0.29297 0.1875-0.058593 0.046876-0.11719 0.082032-0.16406 0.10547-0.09375 0.046875-0.16406 0.15234-0.24609 0.28125-0.058594 0.082031-0.11719 0.17578-0.1875 0.25781-0.16406 0.17578-0.33984 0.35156-0.52734 0.51562-0.15234 0.14062-0.29297 0.28125-0.39844 0.39844-0.31641 0.35156-0.98828 0.53906-1.457 0.53906-0.43359 0-0.98828-0.26953-0.98828-0.26953-0.011718-0.011719-0.035156-0.011719-0.046874-0.011719 0 0-0.38672 0-0.87109-0.14062-0.42188-0.11719-0.91797-0.66016-1.0352-1.5508-0.070313-0.60156 0.035156-0.78906 0.046874-0.80078h0.011719c0.023438 0.17578 0.046875 0.31641 0.058594 0.44531 0.046875 0.375 0.082031 0.60156 0.1875 0.90625 0.011719 0.046875 0.058594 0.082031 0.10547 0.082031 0.011718 0 0.023437 0 0.035156-0.011719 0.058594-0.023437 0.09375-0.09375 0.070312-0.15234-0.10547-0.28125-0.12891-0.48047-0.17578-0.84766-0.023437-0.14062-0.035156-0.29297-0.070312-0.49219-0.14062-0.95312-0.35156-1.8477-0.61328-2.6797-0.10547-0.33984-0.30469-0.83594-0.52734-1.4219-0.44531-1.1523-0.98828-2.5742-1.1641-3.457-0.23438-1.2695-0.11719-1.6914-0.11719-1.707 0.011718-0.023438 0.011718-0.035156 0-0.058594-0.035156-0.19922-0.1875-0.43359-0.89453-1.1406-0.60156-0.60156-1.6328-2.3398-1.7305-2.5156v-0.011719c-0.035156-0.21094 0.17578-0.52734 0.41016-0.89453 0.12891-0.19922 0.28125-0.41016 0.41016-0.64844 0.28125-0.50391 0.89453-1.4805 1.375-2.2695 0.19922-0.31641 0.36328-0.58984 0.48047-0.77734s0.24609-0.29297 0.36328-0.31641c0.10547-0.011719 0.1875 0.035157 0.22266 0.070313 0.09375 0.29297 0.83594 2.5625 1.1406 3.6328l0.011718 0.035156c0.31641 1.1172 0.70703 2.5156 0.74219 3.0703 0 0.058594 0.058594 0.10547 0.11719 0.10547h0.011719c0.070312 0 0.11719-0.058594 0.10547-0.12891-0.035157-0.58984-0.41016-1.9297-0.75391-3.1172l-0.011718-0.035156c-0.31641-1.1406-1.1406-3.6445-1.1523-3.668-0.15234-0.375-1.4453-3.7266-1.6328-3.9727-0.046876-0.058594-0.09375-0.11719-0.15234-0.1875-0.14062-0.17578-0.32812-0.39844-0.26953-0.52734 0.10547-0.25781 0.011719-0.5625-0.09375-0.89453-0.011718-0.046875-0.035156-0.10547-0.046874-0.15234-0.058594-0.19922-0.1875-0.29297-0.30469-0.375-0.14062-0.09375-0.25781-0.1875-0.29297-0.43359-0.070312-0.49219-0.375-0.83594-0.46875-0.94141-0.011719-0.11719-0.046875-0.45703 0.035157-0.74219 0.11719-0.39844 0.14062-0.64844-0.15234-1.1406-0.046875-0.082032-0.09375-0.14063-0.12891-0.19922-0.17578-0.26953-0.19922-0.30469-0.25781-0.76562-0.070313-0.57812-0.28125-1.1641-0.44531-1.4102-0.023437-0.035157-0.058593-0.046876-0.09375-0.046876 0.058594-0.070312 0.14063-0.09375 0.33984-0.12891 0.21094-0.035156 0.30469-0.15234 0.33984-0.23438 0.10547-0.25781-0.10547-0.58984-0.12891-0.625-0.16406-0.28125-0.31641-0.64844-0.46875-1-0.11719-0.28125-0.23438-0.5625-0.36328-0.80078-0.14062-0.26953-0.28125-0.38672-0.36328-0.44531-0.035156-0.15234-0.035156-0.32813-0.046875-0.5625-0.011718-0.23438-0.023437-0.50391-0.058594-0.82422-0.046874-0.35156 0-0.78906 0.046876-1.2461 0.035156-0.38672 0.070312-0.78906 0.070312-1.2109 0-0.61328-0.070312-0.96484-0.11719-1.1523 0.035157-0.011719 0.046876-0.035156 0.070313-0.046875 0.16406-0.17578 0.046875-0.60156-0.023437-0.80078v-0.035157c0-0.24609 0-0.36328 0.1875-0.63672 0.09375-0.12891 0.17578-0.22266 0.25781-0.32812 0.11719-0.14063 0.24609-0.28125 0.42188-0.5625 0.31641-0.49219 0.375-0.66016 0.375-1.5625 0-0.76563 0.22266-1.8242 0.36328-2.5156 0.023438-0.11719 0.046875-0.22266 0.058594-0.31641 0.023438-0.14062 0.058594-0.25781 0.082031-0.36328 0.09375-0.36328 0.14062-0.55078-0.058593-1.1289-0.070313-0.22266-0.17578-0.43359-0.29297-0.625 0-0.011719 0.035156-1.3633 0.070312-2.0586 0-0.046875 0.19922-4.3398 0.16406-4.8203-0.011719-0.10547 0-0.26953 0.011718-0.44531 0.035157-0.49219 0.082032-1.1758-0.23437-1.5742-0.058594-0.070312-0.12891-0.12891-0.19922-0.19922 0-1.293-0.035157-2.3047-0.45703-3.3281-0.22266-0.55078-0.49219-1.082-0.70703-1.4453 0.046875-0.011719 0.070313-0.058594 0.082032-0.10547 0-0.09375 0.082031-1.8711 0.035156-3.2578 0.023437-0.011719 0.035156-0.035156 0.046875-0.058594s0.66016-1.9766 0.89453-3.4219c0.16406-1.0234-0.011719-4.375-0.14062-6.8086-0.070313-1.2461-0.11719-2.2344-0.09375-2.457 0.035156-0.41016 0.070313-0.82422 0.10547-1.1641 0.76562-0.070313 0.91797-1.0234 1.0234-1.6445 0.011719-0.10547 0.035157-0.19922 0.046875-0.28125 0.12891-0.66016 0.35156-1.3867 0.61328-2.0469 0.31641-0.77734 0.8125-1.9414 1.1523-2.6211 0.33984-0.68359 0.58984-2.2812-0.1875-2.75-0.75391-0.45703-1.5039-0.26953-3 0.74219-1.3164 0.89453-1.457 2.0352-1.5391 2.7734-0.011719 0.11719-0.023438 0.22266-0.046875 0.31641-0.10547 0.64844-0.28125 0.87109-0.63672 1.375l-0.023437 0.023437c-0.12891 0.1875-0.43359 0.45703-0.75391 0.75391-0.61328 0.55078-1.3164 1.1875-1.3984 1.668-0.11719 0.70703 0.15234 0.98828 0.60156 1.4688l0.070313 0.082031c0.35156 0.375 0.44531 0.625 0.53906 0.84766 0.035157 0.082031 0.058594 0.16406 0.10547 0.24609 0.09375 0.17578 0.21094 0.25781 0.30469 0.28125-0.035157 0.97656-0.15234 3.0352-0.38672 3.9023-0.17578 0.63672-0.375 1.1523-0.60156 1.7656-0.058594 0.14062-0.10547 0.29297-0.16406 0.44531-0.082032 0.22266-0.17578 0.44531-0.25781 0.66016-0.28125 0.68359-0.55078 1.3164-0.57812 2.2227-0.023437 1.1406-0.082031 2.3516-0.09375 2.3633 0 0.035156 0.011719 0.058593 0.023438 0.082031-0.14062 0.17578-0.31641 0.41016-0.53906 0.71875-0.63672 0.84766-0.70703 1.7305-0.77734 2.5977-0.023438 0.24609-0.035157 0.49219-0.070313 0.74219-0.035156 0.26953-0.070313 0.57813-0.09375 0.90625-0.10547 1.0352-0.22266 2.3281-0.64844 3.1641-0.55078 1.1055-1.668 4.5508-1.7656 4.832-0.011718 0.023438-0.035156 0.035156-0.046874 0.035156-0.023438 0-0.058594-0.011718-0.11719-0.058593-0.070312-0.058594-0.12891-0.14062-0.15234-0.24609-0.14062-0.43359-0.66016-1.9531-1.293-2.9531-0.57813-0.91797-1.0938-2.2344-1.5859-4.0234-0.12891-0.44531-0.22266-0.97656-0.33984-1.5391-0.19922-0.98828-0.39844-2.0117-0.71875-2.5625-0.17578-0.30469-0.74219-1.1406-1.1523-1.7422 0.023438-1.3867-0.46875-2.8594-0.94141-3.7617-0.082031-0.16406-0.23438-0.43359-0.39844-0.74219-0.375-0.68359-0.88281-1.6211-1.1406-2.2109-0.31641-0.73047-1.2344-3.0117-1.5156-3.6797-0.058594-0.15234-0.09375-0.31641-0.10547-0.48047 0-0.15234 0-0.35156 0.035156-0.52734 0.046875 0 0.082032-0.011719 0.11719-0.035157 0.035156-0.023437 0.058594-0.058593 0.082031-0.09375 0.28125-0.23437 0.76562-0.78906 0.88281-1.4219 0.12891-0.69531 0.11719-1.082-0.035157-1.668-0.10547-0.38672-0.52734-0.68359-0.98828-0.98828-0.25781-0.17578-0.51562-0.35156-0.75391-0.5625-0.45703-0.42188-0.83594-1.4688-1.1406-2.3164-0.10547-0.28125-0.19922-0.55078-0.28125-0.75391-0.33984-0.80078-1.8125-2.0703-3.082-2.1055-1.1758-0.035156-1.5273 0.57812-1.5742 0.68359-0.082031 0.11719-0.70703 1.1406 0.26953 2.7383 0.23438 0.39844 0.46875 0.77734 0.68359 1.1172 0.64844 1.0586 1.1523 1.8828 1.3281 2.3281 0.22266 0.60156 0.60156 1.6328 0.69531 1.8945 0.011719 0.035156 0.25781 0.89453 0.8125 1.1523 0.16406 0.52734 0.32812 1.1172 0.35156 1.4102 0.070312 1.2578 0.66016 6.8789 0.92969 8.3711 0.31641 1.7539 1.2812 3.1055 1.3164 3.1523 0 0.011719 0.011718 0.011719 0.011718 0.011719 0.023438 0.25781 0.058594 0.55078 0.082032 0.83594 0.046874 0.43359 0.19922 0.96484 0.31641 1.3984 0.082031 0.28125 0.14062 0.52734 0.16406 0.66016 0.046875 0.33984 0.058594 0.69531 0.058594 0.69531 0 0.046875 0.035156 0.09375 0.082031 0.10547-0.14062 0.24609-0.25781 0.55078-0.29297 0.88281-0.058593 0.63672-0.070312 3.1172-0.070312 4.3164v0.60156c-0.70703 0.38672-1.1758 0.91797-1.1992 1.6562-0.023437 0.69531 0.21094 1.1875 0.41016 1.4922 0.15234 0.22266 0.28125 0.46875 0.38672 0.76563 0.10547 0.28125 0.25781 0.55078 0.43359 0.8125 0.45703 0.68359 0.68359 1.5625 0.63672 2.457-0.023438 0.39844-0.011719 0.98828-0.011719 1.5977 0.011719 0.78906 0.011719 1.6094-0.035156 2.0117-0.058594 0.41016-0.09375 0.89453-0.12891 1.293-0.023438 0.29297-0.046876 0.53906-0.058594 0.68359-0.011719 0.070313-0.070313 0.19922-0.14062 0.35156-0.22266 0.48047-0.58984 1.293-0.22266 2.0234 0.046876 0.09375 0.11719 0.15234 0.22266 0.1875 0.058593 0.023438 0.14062 0.035156 0.21094 0.035156 0.22266 0 0.49219-0.070312 0.74219-0.16406-0.023438 0.09375-0.035156 0.21094-0.058594 0.41016-0.011719 0.12891-0.023438 0.25781 0 0.38672 0.035156 0.33984 0.17578 0.42188 0.32812 0.44531-0.058594 0.30469-0.17578 1.1875-0.11719 2.4219 0.082031 1.5156 0.035156 2.6797-0.11719 3.457-0.035156 0.17578-0.070312 0.39844-0.09375 0.64844-0.11719-0.046875-0.28125-0.09375-0.48047-0.058593-0.25781 0.058593-0.46875 0.24609-0.64844 0.5625-0.45703 0.84766-0.38672 1.0938-0.22266 1.6211l0.035156 0.11719c0.035156 0.12891 0.070312 0.22266 0.10547 0.31641 0.11719 0.36328 0.11719 0.38672-0.046874 0.48047-0.39844 0.22266-0.60156 1.0469-0.45703 1.8477 0.12891 0.71875 0.1875 1.4219-0.24609 1.8008-0.45703 0.38672-0.57812 0.80078-0.35156 1.293 0.035156 0.082031 0.082031 0.16406 0.12891 0.24609 0.19922 0.375 0.32812 0.67188 0.14062 0.88281-0.24609 0.26953-0.53906 0.8125-0.90625 1.3984-0.14062 0.22266-0.29297 0.43359-0.44531 0.66016-0.23438 0.33984-0.32812 0.61328-0.41016 0.85938-0.082031 0.23438-0.15234 0.43359-0.32812 0.66016-0.36328 0.45703-0.57813 1.0117-0.52734 1.2109v0.011719c0 0.011718 0.011718 0.011718 0.011718 0.023437v0.011719c0.023438 0.035156 0.058594 0.046875 0.09375 0.046875h0.035157c0.035156-0.011719 0.058593-0.035157 0.070312-0.058594 0.023438-0.023437 0.070313-0.082031 0.12891-0.10547-0.011719 0.011719-0.011719 0.023438-0.011719 0.035156 0 0.023438-0.53906 2.5508-1 4-0.29297 0.94141-0.48047 1.5039-0.63672 1.9531-0.082031 0.24609-0.15234 0.45703-0.21094 0.67187-0.11719 0.35156-0.31641 1-0.43359 1.2578-0.10547 0.070313-0.33984 0.28125-0.33984 0.92969 0 0.71875-0.11719 1.4336-0.30469 2.4453-0.24609 1.2578-0.38672 2.9883-0.38672 4.6094 0 0.625-0.011719 1.293-0.023438 1.9297-0.046875-0.023438-0.09375-0.046876-0.14062-0.070313-0.1875-0.09375-0.36328-0.1875-0.48047-0.30469-0.29297-0.29297-0.625-0.33984-0.87109-0.14063-0.09375 0.070313-0.14062 0.17578-0.15234 0.28125 0 0.10547 0.035156 0.22266 0.082031 0.32813-0.16406-0.070313-0.31641-0.14063-0.39844-0.17578-0.30469-0.12891-0.98828-0.29297-1.1992-0.26953-0.14062 0.011719-0.26953 0.10547-0.36328 0.22266-0.09375 0.12891-0.11719 0.29297-0.070313 0.45703 0.046875 0.17578 0.22266 0.28125 0.39844 0.35156h-0.046875c-0.28125-0.023437-0.46875-0.070313-0.63672-0.12891-0.19922-0.058594-0.36328-0.10547-0.60156-0.070313-0.29297 0.046875-0.39844 0.22266-0.43359 0.31641-0.058594 0.15234-0.023438 0.32813 0.082031 0.48047 0.19922 0.24609 0.69531 0.375 1.1055 0.48047 0.035156 0.011719 0.082031 0.023438 0.11719 0.035156-0.42188 0.023438-0.89453 0.035156-1.1289 0.035156-0.32812 0-0.69531 0.22266-0.77734 0.48047-0.058594 0.16406 0 0.31641 0.14062 0.42188 0.31641 0.24609 0.63672 0.21094 1.1055 0.17578 0.09375-0.011719 0.19922-0.011719 0.31641-0.023438 0.66016-0.046875 1.3633-0.046875 1.5039-0.023438 0.11719 0.023438 0.91797 0.46875 1.3984 0.74219 0.11719 0.058594 0.22266 0.12891 0.31641 0.17578 0.39844 0.22266 0.76562 0.32812 1.2109 0.32812 0.1875 0 0.38672-0.023437 0.625-0.058594 0.49219-0.070312 0.68359-0.29297 0.83594-0.46875 0.082031-0.09375 0.15234-0.17578 0.25781-0.21094 0.38672-0.16406 0.64844-0.52734 0.67188-0.91797 0.023437-0.36328-0.12891-0.76562-0.14062-0.78906-0.011719-0.023438-0.023438-0.035156-0.035156-0.046875-0.011719-0.12891-0.023438-0.28125-0.023438-0.44531 0-0.55078 0.14062-1.4453 0.39844-2.6797 0.26953-1.2227 0.67187-2.4805 1.0352-3.5742 0.058594-0.16406 0.10547-0.32812 0.16406-0.49219 0.36328-1.1172 0.30469-2.9766 0.29297-3.3164 0.070313-0.082031 0.14062-0.16406 0.21094-0.24609 0.35156-0.39844 0.78906-0.90625 1.2109-1.4805 0.625-0.85938 1.1172-1.8359 1.2109-2.0352 0.11719-0.070313 0.15234-0.24609 0.19922-0.50391 0.023438-0.15234 0.058594-0.31641 0.11719-0.48047 0.11719-0.36328 0.29297-0.48047 0.32812-0.49219h0.011719c0.011718 0.023437 0.035156 0.10547 0.058593 0.16406 0.035157 0.14062 0.10547 0.33984 0.23438 0.58984 0.21094 0.39844 0.67188 0.60156 1.1172 0.50391l0.14062-0.023438c0.55078-0.10547 0.90625-0.23438 1.457-0.43359 0.17578-0.058594 0.375-0.12891 0.61328-0.21094 0.33984-0.11719 0.58984-0.26953 0.78906-0.44531 0 0.28125 0.035156 0.77734 0.28125 1.4688 0.70703 2.0469 2.457 2.7617 3.7852 2.7617h0.10547c1.293-0.035156 2.6211-1.5742 2.9648-2.2227 0.32813-0.61328 0.50391-2.5391 0.50391-2.6211 0-0.058594-0.046875-0.11719-0.10547-0.12891s-0.11719 0.046875-0.12891 0.10547c0 0.023437-0.17578 1.9648-0.48047 2.5273-0.30469 0.57812-1.5742 2.0586-2.7617 2.0938-1.2695 0.035157-2.9883-0.625-3.668-2.5977-0.36328-1.0703-0.24609-1.6211-0.24609-1.6211v-0.011719c0.082031-0.082031 0.15234-0.16406 0.22266-0.25781 0.15234-0.17578 0.30469-0.35156 0.49219-0.50391 0.45703-0.375 1.8125-0.41016 2.7852-0.42188 0.16406 0 0.32812-0.011719 0.48047-0.011719 1.1289-0.035156 2.4922 0.35156 3.3281 0.70703 0.96484 0.41016 1.9414 1.1289 2.293 1.4805 0.28125 0.28125 0.74219 0.45703 1.1289 0.42188 0.25781-0.023437 0.45703-0.11719 0.58984-0.29297 0.19922-0.25781 0.30469-0.55078 0.44531-1.0117 0.035156-0.09375 0.10547-0.1875 0.19922-0.22266 0.082031-0.023437 0.16406-0.023437 0.19922 0.09375 0.046875 0.15234 0.60156 1.3047 0.60156 1.3164 0 0.011718 0 0.011718 0.011719 0.023437v0.011719c0.046874 0.082031 1.1289 1.9297 1.7773 2.5742 0.53906 0.53906 0.77734 0.82422 0.82422 1-0.035156 0.12891-0.10547 0.63672 0.11719 1.7891 0.16406 0.89453 0.73047 2.3398 1.1758 3.4922 0.22266 0.57813 0.41016 1.0703 0.51562 1.4102 0.24609 0.75391 0.43359 1.5742 0.57812 2.4453-0.011719 0-0.035157 0.011719-0.046875 0.011719-0.19922 0.082031-0.26953 0.44531-0.19922 1.0469 0.11719 1.0117 0.69531 1.6094 1.1992 1.7539 0.44531 0.12891 0.80078 0.14062 0.90625 0.15234 0.11719 0.058594 0.63672 0.28125 1.0703 0.28125 0.52734 0 1.2695-0.21094 1.6328-0.61328 0.09375-0.10547 0.23438-0.24609 0.38672-0.375 0.17578-0.16406 0.375-0.35156 0.53906-0.52734 0.082031-0.09375 0.15234-0.19922 0.21094-0.29297 0.058593-0.082031 0.11719-0.17578 0.16406-0.19922 0.058594-0.035156 0.12891-0.070312 0.19922-0.12891 0.070312-0.058594 0.16406-0.11719 0.26953-0.17578 0.26953-0.15234 0.64844-0.30469 0.77734-0.32812 0.33984-0.082031 0.57812-0.23438 0.66016-0.42188 0.125-0.24609 0.125-0.36719 0.066406-0.47266zm-15.91-76.961v0-0.023437c0-0.011719 0-0.011719-0.011719-0.023438 0-0.011718-0.011719-0.011718-0.011719-0.011718 0-0.011719-0.011718-0.011719-0.011718-0.023438 0 0-0.17578-0.15234-0.1875-0.36328-0.011719-0.12891 0.046875-0.25781 0.16406-0.38672 0.46875-0.50391 1.1758-1 1.5156-1.1875 0.082031-0.046875 0.15234-0.082031 0.23438-0.11719 0.035156-0.023437 0.082032-0.035156 0.11719-0.058593 0.058594 0.10547 0.375 0.68359 0.90625 0.87109-0.035156 0.26953-0.12891 1.0352-0.1875 1.8008-0.023438 0.24609 0.035156 1.1875 0.09375 2.4922 0.011718 0.16406 0.011718 0.32812 0.023437 0.49219-0.17578-0.12891-0.49219-0.28125-1.0586-0.41016-0.85938-0.21094-1.5508 0.19922-1.8242 0.39844 0.17969-1.4414 0.23828-3.3555 0.23828-3.4492zm2.8945-0.92969c0.011719-0.15234 0.035157-0.26953 0.046875-0.35156 0.082032 0.011719 0.16406 0.023438 0.22266 0.023438 0.082032 0 0.15234-0.011719 0.19922-0.035157-0.10547 0.1875-0.25781 0.32813-0.46875 0.36328zm-3.2461 1.0586c-0.035157-0.070313-0.058594-0.14063-0.09375-0.21094-0.09375-0.22266-0.19922-0.51562-0.58984-0.91797l-0.082032-0.082031c-0.023437-0.023438-0.058593-0.058594-0.082031-0.082031 0-0.011719 0.011719-0.023438 0.011719-0.046875-0.035156-0.53906 0.36328-0.97656 1-1.5039 0.42188-0.33984 0.67188-0.87109 1-1.2578 0.28125-0.32812 0.63672-1.1992 0.75391-1.7422 0.09375-0.42188 0.1875-0.90625 0.375-1.4453 0.38672-1.1406 1.082-1.5859 2.1055-2.1289 0.83594-0.44531 1.5508-0.11719 1.6797-0.046875 0.15234 0.57812 0.023438 1.4219-0.23437 1.9297-0.35156 0.69531-0.84766 1.8594-1.1523 2.6445-0.26953 0.67188-0.49219 1.4219-0.625 2.0938-0.011719 0.082032-0.035156 0.1875-0.046875 0.29297-0.035157 0.24609-0.082031 0.53906-0.17578 0.80078-0.023438-0.046874-0.070313-0.070312-0.11719-0.058593-0.058594 0.011719-0.09375 0.058593-0.09375 0.11719-0.023438 0.011719-0.11719 0.046875-0.39844-0.023437-0.51562-0.12891-0.85937-0.77734-0.85937-0.78906 0.14062-0.10547 0.25781-0.25781 0.30469-0.52734 0.011719-0.058593-0.035156-0.12891-0.09375-0.14062-0.058594-0.011719-0.12891 0.035156-0.14062 0.09375-0.058594 0.32812-0.23438 0.41016-0.49219 0.52734-0.082031 0.035157-0.16406 0.082031-0.24609 0.12891-0.33984 0.19922-1.082 0.71875-1.5625 1.2344-0.16406 0.17578-0.24609 0.36328-0.23438 0.5625 0.011718 0.23438 0.15234 0.41016 0.23438 0.48047 0 0.046875 0 0.12891-0.011719 0.23438-0.050781-0.019531-0.097656-0.054687-0.13281-0.13672zm-3.8828 20.07c0.43359-0.88281 0.5625-2.1992 0.67188-3.2461 0.035156-0.32812 0.058594-0.63672 0.09375-0.89453 0.035156-0.24609 0.058594-0.50391 0.070312-0.75391 0.070313-0.87109 0.14063-1.6797 0.73047-2.4688 0.77734-1.0352 0.97656-1.2695 0.97656-1.2812 0.046875-0.046875 0.035156-0.12891-0.011719-0.16406-0.046875-0.046875-0.12891-0.035156-0.16406 0.011719 0 0-0.058593 0.070313-0.22266 0.28125 0.023438-0.39844 0.058594-1.3047 0.082032-2.1641 0.023437-0.85937 0.28125-1.4805 0.55078-2.1406 0.09375-0.21094 0.17578-0.43359 0.26953-0.67188 0.058594-0.15234 0.11719-0.30469 0.16406-0.44531 0.22266-0.61328 0.42188-1.1289 0.60156-1.7773 0.058594-0.19922 0.10547-0.46875 0.15234-0.76562 0.023437 0 0.058593-0.011719 0.070312-0.035156 0.011719-0.011719 0.76562-0.68359 1.7305-0.44531 0.95312 0.23438 1.1289 0.50391 1.1289 0.50391v0.011719c0.11719 2.3047 0.24609 5.043 0.09375 5.9375-0.16406 1.0117-0.52734 2.2695-0.74219 2.9297-0.011719-0.21094-0.035157-0.41016-0.070313-0.5625-0.011718-0.058594-0.070312-0.10547-0.14062-0.09375-0.058593 0.011719-0.10547 0.070313-0.09375 0.14062 0.17578 1.0117 0.09375 3.5625 0.058594 4.2109-0.082031-0.14063-0.14062-0.23438-0.14062-0.23438-0.035156-0.058593-0.10547-0.070312-0.16406-0.035156-0.058594 0.035156-0.070313 0.10547-0.035157 0.16406 0 0.011719 0.5625 0.90625 0.97656 1.9062 0.38672 0.94141 0.43359 1.8828 0.43359 3.082-0.66016-0.375-1.7188-0.55078-2.5859-0.63672-1.1406-0.11719-2.0234 0.22266-2.7969 0.52734-0.21094 0.082031-0.42188 0.16406-0.63672 0.23438-0.70703 0.23438-1.4688 0.625-1.8477 0.82422 0.30469-0.79688 0.59766-1.5469 0.79688-1.9492zm-15.004-21.047c-0.09375-0.26953-0.46875-1.3047-0.69531-1.9062-0.17578-0.46875-0.67188-1.2695-1.3398-2.375-0.21094-0.35156-0.44531-0.71875-0.68359-1.1172-0.76562-1.2578-0.46875-2.1172-0.32812-2.3867 0.035156-0.023438 0.75391-0.64844 2.293 0.23438 1.4805 0.85938 1.8008 1.8008 2.0117 2.4219 0.023438 0.058593 0.035157 0.10547 0.046875 0.15234l0.011719 0.035157c0.23438 0.68359 0.88281 2.4805 1.8242 3.1289 0.87109 0.58984 1.3047 0.95312 1.3047 1.3516-0.011719 0.046874-0.011719 0.082031-0.023437 0.12891-0.082032 0.42188-0.35156 0.8125-0.58984 1.0703v-0.023437c-0.082031-0.66016-0.55078-1.3867-1.293-1.5039-0.58984-0.09375-0.77734-0.48047-0.78906-0.49219-0.023438-0.058594-0.09375-0.082031-0.15234-0.058594-0.058594 0.023438-0.082031 0.09375-0.058594 0.15234 0 0.011719 0.046875 0.09375 0.14062 0.21094 0 0.023438 0.011719 0.51563-0.89453 0.94141-0.14062 0.058593-0.25781 0.082031-0.35156 0.046875-0.11719-0.046875-0.16406-0.16406-0.16406-0.16406 0-0.011719-0.011719-0.011719-0.011719-0.023437-0.011719-0.035156-0.023437-0.082032-0.023437-0.10547-0.011719-0.058594-0.070313-0.10547-0.14062-0.09375-0.058594 0.011719-0.10547 0.070313-0.09375 0.14062 0 0.023438 0.11719 0.625 0.36328 0.88281l0.011719 0.011719c0.023437 0.070313 0.046875 0.15234 0.070312 0.22266-0.29297-0.33203-0.44531-0.87109-0.44531-0.88281zm0.50781 0.24609h0.046875c0.10547 0 0.22266-0.023438 0.33984-0.082031 0.71875-0.32813 0.94141-0.74219 1-0.97656 0.14062 0.10547 0.33984 0.19922 0.61328 0.23438 0.61328 0.09375 1.0234 0.74219 1.0938 1.3047 0.011719 0.058593 0.011719 0.11719 0 0.15234-0.011719-0.011719-0.023437-0.023437-0.035156-0.023437-0.058594-0.023438-0.12891 0-0.15234 0.058594-0.11719 0.26953-0.12891 0.625-0.12891 0.88281 0 0.1875 0.046875 0.375 0.11719 0.5625 0.14063 0.32812 0.42188 1.0586 0.73047 1.7891-0.28125-0.082031-0.80078-0.1875-1.457-0.15234-0.75391 0.046875-1.1641 0.44531-1.3281 0.67188-0.09375-0.91797-0.15234-1.6797-0.17578-2.0586-0.03125-0.51562-0.5-1.8906-0.66406-2.3633zm3.2812 22.812c0-1.1875 0.011719-3.668 0.070313-4.293 0.070312-0.68359 0.55078-1.2461 0.71875-1.4336 0.046875-0.058594 0.058594-0.070312 0.070312-0.09375 0.023438-0.058594-0.011718-0.12891-0.070312-0.15234-0.058594-0.023437-0.10547 0-0.14062 0.046876-0.011719 0.011718-0.023438 0.023437-0.035157 0.035156-0.070312 0.082031-0.19922 0.23438-0.33984 0.43359-0.011719-0.12891-0.023438-0.36328-0.058594-0.60156-0.023437-0.15234-0.09375-0.39844-0.17578-0.68359-0.11719-0.42188-0.26953-0.95312-0.31641-1.3633-0.082032-0.70703-0.14063-1.5039-0.14063-1.5391 0-0.070313-0.046874-0.11719-0.11719-0.11719s-0.11719 0.046875-0.11719 0.11719c0 0.011718 0.011718 0.10547 0.011718 0.24609-0.30469-0.50391-0.84766-1.5273-1.0586-2.7266-0.17578-1-0.49219-3.832-0.71875-5.9727 0.035157-0.011718 0.058594-0.023437 0.082032-0.058593 0.011718-0.023438 0.32812-0.63672 1.2344-0.69531 0.82422-0.046875 1.4102 0.14062 1.5508 0.19922 0.26953 0.66016 0.52734 1.293 0.67188 1.6094 0.25781 0.61328 0.77734 1.5391 1.1523 2.2344 0.16406 0.30469 0.30469 0.5625 0.39844 0.73047 0.41016 0.8125 0.84766 2.0703 0.90625 3.3047-0.12891-0.1875-0.21094-0.31641-0.23438-0.32812-0.035156-0.058594-0.10547-0.070312-0.16406-0.035156-0.058594 0.035156-0.070313 0.10547-0.035157 0.16406 0.011719 0.023438 1.3398 1.9414 1.6211 2.4219 0.30469 0.51562 0.49219 1.5273 0.69531 2.4922 0.10547 0.53906 0.21094 1.1055 0.33984 1.5508 0.31641 1.1523 0.83594 2.832 1.6094 4.082 0.09375 0.15234 0.19922 0.32812 0.28125 0.50391-0.51563-0.24609-1.6211-0.63672-3.375-0.50391-1.5273 0.11719-3.1992 0.32812-4.3516 0.87109 0.035156-0.066406 0.035156-0.22266 0.035156-0.44531zm1.293 22.953c0.15234-0.78906 0.19922-1.9766 0.11719-3.5156-0.070313-1.3281 0.082031-2.2578 0.11719-2.4453 0.035156-0.023437 0.12891-0.082031 0.375-0.1875 0.21094-0.10547 0.53906-0.070312 1.0703-0.035156 0.41016 0.035156 0.96484 0.082031 1.707 0.082031 1.1055 0 1.3047-0.10547 1.7188-0.30469 0.22266-0.11719 0.51562-0.25781 1.0703-0.43359 1.3633-0.43359 2.1641-0.26953 3.2695-0.046875 0.12891 0.023437 0.26953 0.058594 0.41016 0.082031 1.2695 0.24609 3.3516 0.58984 4.6211 0.73047 0.82422 0.09375 0.95313 0.15234 1.0703 0.21094 0.046875 0.023438 0.09375 0.046876 0.17578 0.070313 0.035156 0.11719 0.12891 0.45703 0.12891 1.1523 0 0.41016-0.035156 0.80078-0.070312 1.1875-0.046875 0.46875-0.082031 0.91797-0.046875 1.3047 0.035156 0.30469 0.046875 0.57812 0.058594 0.80078 0.011719 0.24609 0.023437 0.45703 0.058593 0.625-0.035156 0.11719-0.21094 0.61328-0.48047 1.3984-0.31641 0.90625-0.50391 1.3984-0.97656 1.9297l-0.023437 0.023438c-0.45703 0.50391-0.69531 0.76562-3.1523 1.293-2.5039 0.52734-5.1016 1.1758-5.1289 1.1875-0.011719 0-0.011719 0-0.023438 0.011719-1.3281 0.5625-2.375 0.26953-3.6914-0.10547-0.14062-0.035157-0.28125-0.082031-0.42188-0.11719-0.91797-0.24609-1.707-0.98828-2.2812-1.6914 0.023437-0.22266 0.058594-0.58984 0.09375-1.0117 0.058594-0.76953 0.12891-1.6875 0.23438-2.1953zm-2.1523 21.449c-0.41016 0.57813-0.84766 1.0703-1.1992 1.4688-0.082032 0.09375-0.16406 0.1875-0.23438 0.26953l-0.023437 0.023437c-0.11719 0.14062-0.21094 0.25781-0.28125 0.35156-0.035156 0.058594-0.023437 0.12891 0.023437 0.16406 0.023438 0.011719 0.046876 0.023438 0.070313 0.023438 0.035156 0 0.070313-0.011719 0.09375-0.046875 0.023437-0.035157 0.046875-0.070313 0.082031-0.10547 0.011719 0.63672 0 2.082-0.28125 2.9648-0.046875 0.16406-0.10547 0.32812-0.16406 0.49219-0.36328 1.1055-0.76562 2.3633-1.0352 3.5977-0.26953 1.2461-0.41016 2.1758-0.41016 2.7383 0 0.46875 0.058594 0.87109 0.070313 0.88281 0.011718 0.058594 0.058594 0.09375 0.10547 0.09375 0.011719 0.09375 0.023438 0.1875 0.011719 0.28125-0.023437 0.30469-0.22266 0.58984-0.52734 0.71875-0.15234 0.070313-0.24609 0.17578-0.33984 0.28125-0.14062 0.16406-0.28125 0.32812-0.69531 0.38672-0.73047 0.10547-1.1523 0.046875-1.6797-0.24609-0.09375-0.058594-0.19922-0.11719-0.31641-0.17578-0.91797-0.51562-1.3516-0.75391-1.4805-0.76562-0.17578-0.023438-0.90625-0.023438-1.5508 0.023438-0.11719 0.011718-0.22266 0.011718-0.31641 0.023437-0.45703 0.035156-0.69531 0.058594-0.94141-0.12891-0.082031-0.058594-0.082031-0.11719-0.058594-0.16406 0.046875-0.15234 0.30469-0.31641 0.55078-0.31641 0.42188 0 1.668-0.046875 1.9766-0.082031 0.28125-0.035157 0.38672-0.046875 0.38672-0.046875 0.070312 0 0.11719-0.046875 0.11719-0.11719 0-0.070312-0.046875-0.11719-0.11719-0.11719 0 0-0.11719 0-0.41016 0.046875l-0.41016-0.058594c-0.046875-0.023438-0.11719-0.046875-0.19922-0.070312-0.082031-0.023438-0.17578-0.046876-0.28125-0.082032-0.32812-0.082031-0.83594-0.22266-0.97656-0.39844-0.058594-0.082031-0.082031-0.16406-0.046875-0.24609s0.12891-0.14062 0.25781-0.16406c0.17578-0.035156 0.30469 0.011719 0.49219 0.058594 0.16406 0.046875 0.375 0.10547 0.68359 0.12891 0.60156 0.046876 1.2344 0.26953 1.2461 0.26953 0.011719 0 0.023438 0.011718 0.035157 0.011718h0.011719c0.011718 0 0.023437 0 0.023437-0.011718h0.011719c0.011718-0.011719 0.023437-0.011719 0.035156-0.023438 0-0.011718 0.011719-0.011718 0.011719-0.023437v-0.011719-0.011719-0.011719-0.023437-0.023437-0.023438c0-0.011719-0.011719-0.011719-0.011719-0.023438 0-0.011718-0.011719-0.011718-0.011719-0.023437 0 0-0.011719-0.011719-0.023437-0.011719l-0.011719-0.011718-0.60156-0.31641c-0.11719-0.058593-0.23437-0.10547-0.36328-0.12891-0.26953-0.058594-0.45703-0.15234-0.48047-0.25781-0.035156-0.12891 0-0.21094 0.035157-0.26953 0.046875-0.070312 0.11719-0.11719 0.1875-0.11719 0.16406-0.023438 0.80078 0.12891 1.082 0.24609 0.29297 0.12891 1.4336 0.64844 1.4453 0.64844 0.058594 0.023437 0.12891 0 0.15234-0.058594 0.023438-0.058593 0-0.12891-0.058594-0.15234 0 0-0.29297-0.12891-0.61328-0.28125 0-0.011719-0.011719-0.011719-0.011719-0.023438-0.070312-0.070312-0.28125-0.31641-0.26953-0.48047 0-0.046875 0.023438-0.082031 0.058594-0.11719 0.21094-0.17578 0.45703 0.023437 0.55078 0.11719 0.15234 0.15234 0.35156 0.24609 0.53906 0.35156 0.082031 0.035156 0.16406 0.082031 0.23438 0.12891-0.023438 1.1758-0.046875 2.1289-0.046875 2.1406 0 0.070313 0.046875 0.11719 0.11719 0.11719 0.058594 0 0.11719-0.046874 0.11719-0.11719 0-0.023437 0.070312-2.4336 0.070312-4.3398 0-1.6094 0.14062-3.3164 0.38672-4.5625 0.19922-1.0234 0.30469-1.7539 0.30469-2.4805 0-0.625 0.23438-0.74219 0.23438-0.74219 0.023437-0.011719 0.046874-0.035156 0.058593-0.058594 0.11719-0.23438 0.30469-0.8125 0.46875-1.3281 0.070313-0.21094 0.14062-0.42188 0.21094-0.67188 0.15234-0.44531 0.32812-1.0117 0.63672-1.9531 0.45703-1.4453 1-3.9883 1-4.0234v-0.035157c0.11719 0.09375 0.29297 0.32813 0.46875 0.90625 0.45703 1.3984 1.2227 2.457 1.7773 3.1055 0.33984 0.38672 0.85938 0.88281 1.1523 1.0469-0.10547 0.35156-0.55469 1.2109-1.1055 1.9727z" />
  <path
    d="m65.5 93.781c0.046875-0.046875 0.035156-0.11719-0.011719-0.16406-0.11719-0.10547-0.17578-0.44531-0.1875-0.64844 0-0.070312-0.058593-0.11719-0.11719-0.11719-0.070313 0-0.11719 0.058594-0.11719 0.11719s0.035156 0.61328 0.26953 0.8125c0.023437 0.023438 0.046874 0.023438 0.082031 0.023438 0.023437 0.011718 0.058593 0 0.082031-0.023438z" />
  <path
    d="m66.238 93.355c-0.070312 0-0.11719 0.046875-0.11719 0.11719 0 0.035156 0.011718 0.38672 0.22266 0.55078 0.023438 0.011718 0.046875 0.023437 0.070312 0.023437 0.035157 0 0.070313-0.011719 0.09375-0.046875 0.035157-0.046875 0.023438-0.12891-0.023437-0.16406-0.10547-0.070313-0.12891-0.28125-0.12891-0.35156 0-0.082031-0.046875-0.12891-0.11719-0.12891z" />
  <path
    d="m34.891 94.836c-0.035156 0.035156-0.17578 0.023437-0.24609 0.023437h-0.082031c-0.070312 0-0.11719 0.046875-0.11719 0.11719 0 0.070313 0.046876 0.11719 0.11719 0.11719h0.070312 0.09375c0.11719 0 0.24609-0.011719 0.32813-0.09375 0.046874-0.046875 0.046874-0.11719 0-0.16406-0.046876-0.046876-0.11719-0.046876-0.16406 0z" />
  <path
    d="m35.938 81.516c-0.023438-0.058594-0.082031-0.09375-0.15234-0.070313-0.058594 0.023438-0.09375 0.082032-0.070312 0.15234 0.046875 0.15234 0.28125 0.57812 0.31641 0.63672 0.023438 0.035156 0.058594 0.058594 0.10547 0.058594 0.023437 0 0.035156 0 0.058593-0.011719 0.058594-0.035156 0.082032-0.10547 0.046876-0.16406-0.082032-0.14453-0.26953-0.48438-0.30469-0.60156z" />
  <path
    d="m63.852 80.316c-0.058593-0.011718-0.12891 0.023438-0.14062 0.082032-0.058594 0.23437 0 0.67187 0.16406 0.95312 0.023438 0.035157 0.058594 0.058594 0.10547 0.058594 0.023437 0 0.046875 0 0.058593-0.011718 0.058594-0.035157 0.070313-0.10547 0.035157-0.16406-0.12891-0.22266-0.1875-0.60156-0.14062-0.77734 0.011718-0.058593-0.023438-0.11719-0.082032-0.14062z" />
  <path
    d="m46.098 80.621c0.023438 0.011718 0.046875 0.023437 0.070313 0.023437 0.035156 0 0.070312-0.023437 0.09375-0.046875 0.035156-0.058594 0.023437-0.12891-0.035157-0.16406-0.25781-0.17578-0.33984-0.46875-0.48047-1.082l-0.035156-0.12891c-0.15234-0.625 0.12891-0.89453 0.14062-0.90625 0.046876-0.046875 0.046876-0.11719 0.011719-0.16406-0.046875-0.046875-0.11719-0.046875-0.16406-0.011719-0.011719 0.011719-0.39844 0.375-0.21094 1.1406l0.035157 0.12891c0.14844 0.63281 0.23047 0.98828 0.57422 1.2109z" />
  <path
    d="m50.66 83.551c0.035156-0.1875-0.058594-0.30469-0.070312-0.31641-0.046875-0.046875-0.11719-0.058594-0.16406-0.011719s-0.058593 0.11719-0.011719 0.16406c0 0 0.023438 0.046875 0.011719 0.12891-0.023437 0.12891-0.14062 0.39844-0.76562 0.78906-0.60156 0.375-1.3516 0.26953-2.3867-0.31641-0.058594-0.035156-0.12891-0.011719-0.16406 0.046875s-0.011719 0.12891 0.046875 0.16406c0.67188 0.38672 1.2344 0.57812 1.7305 0.57812 0.32812 0 0.63672-0.082032 0.90625-0.25781 0.52344-0.34766 0.82031-0.67578 0.86719-0.96875z" />
  <path
    d="m47.906 83.82c0.058594-0.011718 0.10547-0.070312 0.09375-0.14062-0.011719-0.070313-0.070312-0.10547-0.14062-0.09375-0.8125 0.14062-1.3633-0.58984-1.5977-1.2695-0.26953-0.77734-0.24609-1.3281-0.23438-1.3281 0-0.070312-0.046875-0.11719-0.10547-0.12891-0.070313 0-0.11719 0.046875-0.12891 0.10547 0 0.023437-0.035157 0.60156 0.25781 1.4219 0.23438 0.69531 0.80078 1.4336 1.6211 1.4336 0.070313 0.023438 0.15234 0.011719 0.23438 0z" />
  <path
    d="m47.566 82.691h0.046875c0.60156-0.035156 0.83594-0.82422 0.84766-0.85938 0.023437-0.058593-0.023438-0.12891-0.082032-0.14062-0.058594-0.011718-0.12891 0.023438-0.14062 0.082032 0 0.011718-0.19922 0.66016-0.63672 0.69531-0.42187 0.023438-0.625-0.57812-0.625-0.58984-0.023437-0.058594-0.082031-0.09375-0.14062-0.082031-0.058594 0.023437-0.09375 0.082031-0.082032 0.14062 0.011719 0.023438 0.23438 0.75391 0.8125 0.75391z" />
  <path
    d="m53.988 80.914c-0.058593-0.035156-0.12891-0.011718-0.16406 0.035157-0.011719 0.023437-0.035157 0.046875-0.046875 0.046875 0 0-0.082032-0.011719-0.19922-0.30469-0.14062-0.35156-0.046875-0.63672 0.082031-1.0352 0.082032-0.24609 0.16406-0.52734 0.21094-0.88281 0.10547-0.89453 0.035156-1.3867 0.035156-1.4102-0.011719-0.058593-0.070312-0.10547-0.12891-0.09375s-0.10547 0.070313-0.10547 0.12891c0 0 0.070313 0.49219-0.035156 1.3516-0.035157 0.32812-0.12891 0.60156-0.19922 0.83594-0.12891 0.41016-0.24609 0.76562-0.070312 1.1875 0.11719 0.29297 0.24609 0.44531 0.39844 0.45703h0.023437c0.15234 0 0.23438-0.14062 0.24609-0.15234 0.035156-0.058594 0.011719-0.12891-0.046875-0.16406z" />
  <path
    d="m53.422 83.125c-0.058594-0.011719-0.12891 0.035156-0.14062 0.09375 0 0.023438-0.10547 0.50391-0.63672 0.53906-0.52734 0.023438-0.66016-0.32812-0.66016-0.33984-0.023437-0.058594-0.070313-0.082031-0.12891-0.082031 0.11719-0.52734 0.070312-1.0352 0.070312-1.0586-0.011719-0.058594-0.058593-0.10547-0.12891-0.10547-0.058594 0.011719-0.11719 0.058594-0.10547 0.12891 0 0.011719 0.09375 1.0586-0.32812 1.6445-0.44531 0.625-1.0586 0.89453-1.8008 0.83594-0.070312-0.011719-0.11719 0.046875-0.12891 0.10547 0 0.070312 0.046875 0.11719 0.10547 0.12891 0.082032 0.011719 0.15234 0.011719 0.23438 0.011719 0.73047 0 1.3281-0.31641 1.7773-0.94141 0.11719-0.15234 0.1875-0.32813 0.24609-0.51563 0.09375 0.1875 0.33984 0.42188 0.78906 0.42188h0.070312c0.57812-0.035157 0.8125-0.49219 0.84766-0.73047 0.023438-0.066407-0.023437-0.125-0.082031-0.13672z" />
  <path
    d="m53.41 82.562c-0.30469-0.023438-0.31641-0.625-0.31641-0.625 0-0.070312-0.046875-0.11719-0.11719-0.11719-0.070312 0-0.11719 0.046876-0.11719 0.11719 0 0.035156 0.011719 0.8125 0.52734 0.85938h0.011719c0.058593 0 0.11719-0.046875 0.11719-0.10547 0.011719-0.070312-0.046875-0.12891-0.10547-0.12891z" />
  <path
    d="m53.234 81.27c-0.058594-0.023437-0.12891 0-0.15234 0.058594 0 0.011719-0.046875 0.10547-0.035156 0.23438 0.011719 0.17578 0.10547 0.30469 0.28125 0.38672 0.011719 0.011719 0.035156 0.011719 0.046875 0.011719 0.046875 0 0.082031-0.023438 0.10547-0.070313 0.023437-0.058594 0-0.12891-0.058594-0.15234-0.1875-0.082031-0.14062-0.25781-0.11719-0.30469 0.011718-0.070313-0.011719-0.14062-0.070313-0.16406z" />
  <path
    d="m48.176 78.773h0.035157c0.11719-0.011719 0.1875-0.070313 0.22266-0.11719 0.070312-0.09375 0.082031-0.23438 0.035156-0.42188v-0.011719c-0.035156-0.14062-0.16406-0.23438-0.30469-0.23438-0.14062-0.011719-0.26953 0.070313-0.31641 0.19922-0.011718 0.035156-0.023437 0.082031-0.023437 0.12891 0 0.16406 0.046875 0.29297 0.12891 0.36328 0.035156 0.070312 0.11719 0.09375 0.22266 0.09375z" />
  <path
    d="m51.492 78.738h0.035156c0.11719-0.011719 0.1875-0.070312 0.22266-0.11719 0.070312-0.09375 0.082031-0.23438 0.023438-0.43359-0.035157-0.14062-0.16406-0.23438-0.30469-0.23438-0.14062-0.011719-0.26953 0.070313-0.31641 0.19922-0.011719 0.035156-0.023438 0.082031-0.023438 0.12891 0 0.16406 0.046875 0.29297 0.12891 0.36328 0.046876 0.070313 0.12891 0.09375 0.23438 0.09375zm0.16406-0.51562z" />
  <path
    d="m48.461 79.352c-0.011719 0-0.63672 0.10547-1.2812-0.24609-0.023438-0.011719-0.035157-0.011719-0.058594-0.011719-0.046875 0-0.082032 0.023438-0.10547 0.058594-0.035156 0.058594-0.011719 0.12891 0.046875 0.16406 0.71875 0.38672 1.4102 0.26953 1.4336 0.26953 0.058594-0.011719 0.10547-0.070313 0.09375-0.14063 0-0.058593-0.058594-0.10547-0.12891-0.09375z" />
  <path
    d="m52.551 79.152c-0.023437-0.035156-0.058593-0.058594-0.10547-0.058594-0.023437 0-0.035156 0-0.058593 0.011719-0.64844 0.35156-1.2695 0.24609-1.2812 0.24609-0.070313-0.011718-0.12891 0.035157-0.12891 0.09375-0.011718 0.070313 0.035157 0.12891 0.09375 0.14063 0.023438 0 0.71875 0.11719 1.4336-0.26953 0.058594-0.035156 0.082032-0.10547 0.046875-0.16406z" />
  <text x="0.0" y="117.5" font-size="5.0" font-weight="bold"
    font-family="Arbeit Regular, Helvetica, Arial-Unicode, Arial, Sans-serif" fill="#000000">Created
    by Hye Jee Kim</text>
  <text x="0.0" y="122.5" font-size="5.0" font-weight="bold"
    font-family="Arbeit Regular, Helvetica, Arial-Unicode, Arial, Sans-serif" fill="#000000">from
    Noun Project</text>
</svg>