<svg width="97" height="97" viewBox="0 0 97 97" fill="none" xmlns="http://www.w3.org/2000/svg">
<path d="M29.7022 74.6849C28.49 73.7824 27.0439 73.4333 25.6316 73.7019C24.8491 73.8252 24.0742 74.0069 23.3106 74.2463C22.5665 74.3898 21.8337 74.6066 21.1196 74.8946L21.172 75.1434C21.8577 75.1011 22.5327 74.8856 23.216 74.7933C23.9697 74.7191 24.7264 74.7106 25.4812 74.7668C26.8342 74.819 28.1641 75.2018 29.5058 75.25C29.5628 75.2558 29.6201 75.2396 29.6687 75.2041C29.7177 75.1685 29.7557 75.1155 29.7774 75.0525C29.7994 74.9899 29.804 74.9202 29.7903 74.8541C29.777 74.7879 29.7459 74.7286 29.7022 74.6849Z" fill="black"/>
<path d="M7.70515 91.31C6.53327 91.7639 4.99142 92.2314 4.1033 90.7679C3.79182 90.1259 3.61177 89.4056 3.5772 88.6655C3.47274 87.9003 3.29572 87.1512 3.05071 86.4332C2.25946 84.9049 1.71778 83.2129 1.45377 81.4457C1.47543 78.9826 3.53693 79.0438 5.02219 78.8827L5.05372 78.62C3.61062 77.8979 1.54266 77.8052 0.983125 79.9728C0.666321 82.238 1.04086 84.563 2.03876 86.5286C2.38861 87.6317 2.63286 88.778 2.76619 89.9464C2.79202 90.4039 2.89535 90.8502 3.07008 91.2582C3.2452 91.6667 3.48793 92.0285 3.78384 92.3218C4.53407 92.8063 5.38154 93.0366 6.23433 92.9876C6.59823 93.0726 6.97429 93.0461 7.32757 92.9107C7.68084 92.7753 7.99916 92.5355 8.25291 92.2138C8.31672 92.1148 8.35167 91.9938 8.35319 91.8687C8.35433 91.7441 8.32204 91.6218 8.26088 91.5205C8.19935 91.4193 8.11236 91.3442 8.01207 91.3064C7.91217 91.2686 7.80467 91.2699 7.70515 91.31Z" fill="black"/>
<path d="M8.42229 86.778C8.48763 86.2886 8.73796 85.9165 8.7353 85.414C8.69542 84.8908 8.58222 84.3792 8.40027 83.9001C8.06409 82.8429 7.22193 83.0332 6.56857 82.4564C5.66526 81.661 5.98321 80.2965 5.66337 79.179L5.45292 79.1749C5.10535 80.3433 4.60203 81.1994 5.09927 82.4497C5.30516 82.9652 5.62006 83.4079 6.0136 83.735C6.38244 83.977 6.78737 84.1322 7.20598 84.1925C7.45289 84.2695 8.06105 84.4791 7.99153 84.9848L7.57976 85.4045C7.30133 85.8526 7.14596 86.3916 7.13495 86.9485C7.18433 88.2681 7.60522 89.53 8.33037 90.531L8.42724 90.6169L8.54803 90.6241L8.65173 90.5494L8.70225 90.4185C8.55677 89.2115 8.46332 87.9963 8.42229 86.778Z" fill="black"/>
<path d="M9.23779 83.2949C9.53902 83.2951 9.2659 83.2951 9.23779 83.2949Z" fill="black"/>
<path d="M51.2603 69.3214C50.1052 68.6916 48.8554 68.3442 47.5852 68.3006C46.3153 68.257 45.0504 68.5174 43.8667 69.0668C42.7153 69.5918 41.6571 70.3701 40.7469 71.3598C39.0045 71.9771 37.1021 72.2137 35.3798 72.6888C33.0965 73.778 30.6677 74.3723 28.2081 74.4438L28.1826 74.6337C28.7213 74.9113 29.2873 75.1083 29.8669 75.2203C30.3304 75.2262 30.7923 75.1537 31.2382 75.0048C32.551 74.6247 33.8091 74.0065 35.1238 73.6232C36.5202 73.2156 37.9348 72.9124 39.3372 72.5412L39.7866 72.4139C39.4675 72.7599 39.115 73.0591 38.7363 73.3061C37.9777 73.7334 37.1747 74.0394 36.3481 74.2157C33.1732 75.2122 29.9463 75.9572 26.6886 76.4463C24.9413 76.5623 23.1912 76.2866 21.5297 75.6338C20.1869 75.0777 18.7708 74.8154 17.3494 74.8604C15.6073 75.1996 13.8953 75.7305 12.2353 76.4458C11.585 76.3248 10.9274 76.2632 10.2691 76.2614C9.87255 76.1957 9.46838 76.2555 9.09726 76.4346C8.72651 76.6132 8.40135 76.9052 8.1552 77.2804C9.01141 77.14 9.87407 77.0577 10.7383 77.0343C9.38823 77.4545 8.0891 78.0785 6.87203 78.8901C6.67336 79.0174 6.71743 79.4119 6.97155 79.3813C10.1335 78.6084 13.2545 77.6151 16.3184 76.4062C19.4405 75.578 22.242 77.5795 25.3299 77.6569C28.537 77.4707 31.7142 76.8332 34.7952 75.7584C35.7069 75.5191 36.652 75.3301 37.5637 75.0219C37.248 76.749 37.2875 78.5409 37.6788 80.246C37.8957 81.3563 38.236 82.4275 38.6907 83.4312C38.9285 84.0003 39.2096 84.5425 39.5302 85.0513L38.2246 85.1507C34.9385 85.2398 31.6538 84.9141 28.4257 84.178C26.8903 83.878 25.3709 83.4627 23.8454 83.0916C22.2146 82.6894 20.5607 82.4316 18.8977 82.3205C16.9421 82.2179 14.9832 82.2462 13.0307 82.4055C11.7517 82.5211 10.4796 82.7249 9.22033 83.0146L9.21654 83.2949L9.40191 83.2814C9.32327 84.3706 9.3719 85.48 9.33809 86.5733C9.28643 86.9435 9.29783 87.3219 9.37152 87.6867C9.44521 88.0516 9.5793 88.3949 9.76657 88.6967C10.3611 89.5691 12.0518 90.8733 12.9297 89.9398L12.9384 89.4341C12.5965 89.062 12.192 89.0796 11.7711 88.9118C11.2309 88.7062 10.7531 88.3157 10.3979 87.7897C10.1115 87.0614 9.98385 86.2592 10.0264 85.4566C9.97398 84.7274 9.95954 83.9846 9.86724 83.2607C10.9172 83.2103 11.9663 83.1334 13.0193 83.1694L14.1099 83.2036C13.7186 84.0035 13.4311 84.8695 13.2567 85.7716C13.2199 86.1832 13.2564 86.5993 13.3639 86.9935C13.4979 87.4798 14.2656 88.5361 13.8003 89.0202L13.9511 89.2744C14.1741 88.9919 14.334 88.6472 14.4157 88.272C14.4974 87.8968 14.4985 87.5032 14.4187 87.1275C14.258 86.401 14.2941 85.6321 14.5224 84.9316C14.6455 84.3733 14.72 83.8019 14.7447 83.2261C15.8717 83.2657 18.2865 83.3273 19.4059 83.4915C22.5964 83.9985 25.7587 84.7292 28.877 85.6793C31.982 86.6043 35.1838 86.9867 38.3819 86.8148C40.0795 86.7411 41.7683 86.4887 43.4287 86.0604L45.9237 85.3639C46.6765 85.1224 47.418 84.8322 48.1443 84.4948C48.2047 84.4628 48.2541 84.407 48.2833 84.3364C48.3126 84.2662 48.3202 84.1857 48.3046 84.1092C48.289 84.0327 48.2518 83.9652 48.1986 83.918C48.1455 83.8712 48.0805 83.8478 48.0144 83.8523C45.6251 84.1969 43.2244 84.6333 40.8168 84.9168C40.5782 84.2419 40.1885 83.6148 39.9325 82.9629C39.5538 81.9826 39.2746 80.9514 39.101 79.8924C38.927 78.8869 38.8533 77.8607 38.8822 76.8345C38.9654 76.0306 38.9938 75.2199 38.9669 74.4101L39.0687 74.3529C40.1942 73.5602 41.2563 72.6474 42.2424 71.6253C43.5248 70.5307 44.9892 69.7749 46.5371 69.4087C48.0854 69.0425 49.6816 69.0744 51.2185 69.5018L51.2603 69.3214Z" fill="black"/>
<path d="M84.0978 83.8295C83.1847 83.4673 82.7828 81.7856 82.4082 80.8449C82.0736 79.7935 81.7993 78.7165 81.587 77.621L81.4213 77.59C81.2204 77.9728 81.1163 78.4169 81.1216 78.8681C80.0721 78.4938 78.9697 78.3737 77.8807 78.5149C77.5623 78.5424 77.247 78.6045 76.9382 78.6994C77.557 78.012 77.9878 77.1189 78.1747 76.1364C78.3733 75.2942 78.3228 74.3967 78.0311 73.5936C77.7393 72.7906 77.2243 72.131 76.5724 71.7261C76.1758 71.4481 75.7511 71.2313 75.3086 71.0801C73.2574 70.7418 71.1677 71.0149 69.2274 71.8741L69.2521 72.01C70.813 71.6879 72.3993 71.575 73.9814 71.6739C75.0188 71.7189 76.0258 72.1009 76.8938 72.778C77.2334 73.3025 77.4552 73.9207 77.538 74.5753C77.6208 75.2294 77.5623 75.8984 77.3678 76.5183C76.9071 77.8275 76.1348 78.9482 75.146 79.7427L74.7267 80.1012L74.803 80.2709C75.8598 79.7791 76.9861 79.5308 78.1211 79.5402C79.1274 79.4845 80.1659 79.7017 81.1706 79.565C81.3078 80.3662 81.5361 81.1409 81.8491 81.8689C82.3364 83.0804 82.8618 84.2317 84.0587 84.157L84.0978 83.8295Z" fill="black"/>
<path d="M95.36 73.1039C95.4082 71.5297 95.0584 69.9749 94.3557 68.6397C93.6529 67.3048 92.6296 66.2512 91.4182 65.6155C90.0955 65.0419 88.6775 64.8494 87.28 65.0536C85.9322 65.144 84.6099 65.5264 83.3773 66.1815C82.1652 66.9134 81.1133 68.4746 79.7192 68.5983C78.8805 68.6734 77.9821 68.4953 77.1388 68.475C76.3977 68.4602 75.6566 68.4984 74.9193 68.5897L74.9387 68.8021C75.7618 68.7566 76.5869 68.7962 77.4047 68.9195C78.0023 69.0189 78.5747 69.2659 79.1688 69.377C80.0949 69.4985 81.0244 69.1894 81.7633 68.515C82.7634 67.523 83.9326 66.8001 85.19 66.397C86.4477 65.9939 87.7636 65.9196 89.0475 66.1792C90.344 66.2553 91.5793 66.8568 92.5487 67.8834C93.5181 68.91 94.1631 70.2998 94.3765 71.8226C94.7621 73.44 94.7822 75.15 94.435 76.7795C94.0875 78.409 93.3851 79.9008 92.3982 81.1047C92.2262 81.2536 92.3853 81.6477 92.5768 81.5231C93.1245 81.1879 93.6096 80.7246 94.0028 80.1608C94.3959 79.5971 94.6892 78.9448 94.8651 78.2425C95.2901 76.5797 95.458 74.8382 95.36 73.1039Z" fill="black"/>
<path d="M86.6422 74.445C85.0077 74.2781 83.3982 73.8602 81.8537 73.2011C80.5082 72.1439 79.0807 71.2436 77.5901 70.5121C77.4386 70.4644 77.3934 70.7132 77.483 70.8185C78.0091 71.3966 78.5948 71.8928 79.2262 72.2955C79.9228 72.7912 80.4968 73.3995 81.1544 73.9515C81.7033 74.3951 82.2989 74.7505 82.9256 75.0087L82.7748 75.4658C82.7414 75.6894 82.7729 75.9198 82.8637 76.1195L83.1661 76.2509C83.2789 76.061 83.179 75.8023 83.25 75.5846L83.4981 75.2382C85.1908 75.5981 86.8488 76.16 88.4465 76.9154C89.7134 77.8093 91.4847 78.8836 91.7316 80.8222L91.9428 80.8262C92.1232 77.3608 89.1352 74.9876 86.6422 74.445Z" fill="black"/>
<path d="M89.2036 81.7217C88.9817 81.4549 88.6546 81.4094 88.4036 81.1908L88.0822 80.8709L87.6503 80.5457L87.618 80.5681C87.6264 80.8016 87.6624 81.0324 87.7251 81.2538L88.0837 81.7473C88.2372 81.8764 88.4127 81.9646 88.5973 82.006C88.7823 82.0474 88.9726 82.0402 89.1549 81.9857L89.2036 81.7217Z" fill="black"/>
<path d="M90.1415 81.0937C89.8653 80.6982 89.4965 80.4089 89.0821 80.2636L88.4618 80.0913C88.2722 80.0085 88.0739 79.9568 87.8726 79.9374C88.0804 80.1925 88.3554 80.3563 88.5795 80.5934L89.2579 81.1679C89.4479 81.3056 89.9193 81.8414 90.1343 81.4873L90.1415 81.0937Z" fill="black"/>
<path d="M86.494 83.1567C86.3268 82.9516 86.1202 82.7972 85.8919 82.7077L85.5941 82.5219L85.3168 82.2844L85.2123 82.377L85.3495 82.7531L85.5637 83.1513C85.6374 83.2912 85.7343 83.4113 85.849 83.5045C85.9637 83.5976 86.0932 83.661 86.23 83.6912L86.4875 83.567L86.5259 83.4887L86.494 83.1567Z" fill="black"/>
<path d="M91.6355 75.254C91.4064 74.2845 90.9415 73.4171 90.2995 72.7607C89.6571 72.1043 88.8663 71.6882 88.026 71.5645C85.5284 70.869 82.8808 71.4678 80.3908 70.5671L80.3251 70.7547C81.1999 71.3341 82.1264 71.7966 83.0875 72.1322C84.1268 72.3882 85.1858 72.5146 86.2475 72.5088C88.14 72.5983 90.5426 72.9335 91.4607 75.3071L91.6355 75.254Z" fill="black"/>
<path d="M88.7842 83.3907C88.6885 83.4194 88.5882 83.4226 88.4909 83.4006C88.3937 83.3781 88.3017 83.3304 88.2216 83.2611L87.852 82.8737C87.7673 82.7842 87.664 82.7235 87.553 82.6978C87.4417 82.6717 87.3267 82.6816 87.2199 82.7266L87.1926 82.8026C87.2374 83.015 87.3278 83.2098 87.455 83.3682C87.5819 83.5265 87.7415 83.643 87.9177 83.706C88.0738 83.7537 88.2368 83.7578 88.3941 83.7186C88.5517 83.679 88.6995 83.5972 88.826 83.4788L88.7842 83.3907Z" fill="black"/>
<path d="M10.9647 33.7555C10.1207 33.5517 8.9412 33.6016 8.49563 34.6606C8.29696 35.1933 8.24112 35.7858 8.33571 36.3576C8.4546 37.0585 8.48081 37.7775 8.4132 38.4883C7.96914 38.3992 7.51255 38.4847 7.11293 38.7321C6.7137 38.9791 6.39272 39.3746 6.19937 39.8582C5.57678 42.0334 5.6273 44.4016 6.34219 46.5363C6.5363 47.6943 6.62025 48.8744 6.59214 50.0545C6.55491 50.5115 6.59594 50.9727 6.71256 51.4109C6.82917 51.8486 7.01873 52.254 7.27057 52.6026C7.94255 53.232 8.74596 53.6315 9.59495 53.7575C9.94062 53.9154 10.3148 53.9658 10.6813 53.9046C11.0483 53.843 11.3959 53.6711 11.6914 53.4057C11.767 53.3193 11.8175 53.2064 11.8354 53.0836C11.8536 52.9607 11.838 52.8339 11.7913 52.7223C11.7446 52.6107 11.6694 52.5194 11.5759 52.4623C11.4829 52.4051 11.3769 52.3849 11.2732 52.4047C10.0557 52.6134 8.47018 52.7605 7.79592 51.1369C7.5775 50.4414 7.49849 49.695 7.56572 48.9567C7.56686 48.1802 7.49507 47.406 7.35149 46.6488C6.78055 44.9833 6.4778 43.2049 6.45881 41.4067C6.81816 38.9859 8.84206 39.4618 10.3288 39.6054L10.3957 39.3507C9.92011 38.9872 9.39552 38.7231 8.8451 38.5706C9.22724 37.9025 9.40767 37.1004 9.35715 36.2951C9.32372 35.6994 9.47301 35.1101 9.77728 34.6359C10.159 34.3507 10.5662 34.1172 10.9913 33.939L10.9647 33.7555Z" fill="black"/>
<path d="M12.6015 48.0818C12.7333 47.6121 13.03 47.2958 13.0968 46.8001C13.1291 46.2755 13.0881 45.7478 12.9741 45.2394C12.788 44.1286 11.9326 44.1453 11.3673 43.4435C10.586 42.4757 11.0866 41.1927 10.9244 40.0284L10.7189 39.9816C10.2156 41.0631 9.60212 41.8045 9.92044 43.138C10.053 43.6891 10.303 44.1898 10.646 44.592C10.9765 44.9056 11.3544 45.1409 11.759 45.2853C11.9918 45.4126 12.5628 45.7419 12.4249 46.226L11.9607 46.5567C11.6245 46.9422 11.3973 47.4425 11.3107 47.9882C11.1785 49.3024 11.4205 50.6313 11.9975 51.7632C12.0161 51.8069 12.045 51.8429 12.0807 51.8672C12.116 51.891 12.1571 51.9018 12.1981 51.8982C12.2387 51.8942 12.2779 51.8762 12.3102 51.846C12.3421 51.8159 12.366 51.7749 12.3785 51.7286C12.4006 50.509 12.4746 49.292 12.6015 48.0818Z" fill="black"/>
<path d="M52.1162 16.5613C50.8615 16.313 49.5772 16.3669 48.3404 16.7192C47.1032 17.0719 45.9382 17.7157 44.914 18.6132C43.8208 19.5594 42.8966 20.7552 42.1954 22.1305C41.8288 22.9254 41.373 23.6578 40.8408 24.3075C40.1973 24.9562 39.4855 25.5015 38.7227 25.9293C35.8635 27.8787 32.8994 29.6022 29.8499 31.0886C28.1891 31.7437 26.4395 32.0213 24.6921 31.9065C23.2741 31.7869 21.85 31.974 20.4882 32.459C17.8034 34.1483 15.2207 36.0581 12.7588 38.1744C12.5381 37.8095 12.3816 37.3952 12.298 36.957C12.1955 36.5174 12.1446 35.7252 11.5805 35.9798C10.902 36.2817 10.9431 37.5049 11.2933 38.0907C11.394 38.2607 11.5254 38.402 11.6773 38.505C11.8297 38.6076 11.9991 38.6692 12.1734 38.6854C11.8365 38.9752 11.5125 39.286 11.2037 39.6172C11.0384 39.8034 11.1634 40.1692 11.4023 40.0612C14.2991 38.3296 17.1086 36.3987 19.8162 34.2783C22.6618 32.5067 25.7896 33.5711 28.7912 32.6866C31.8567 31.5075 34.7949 29.9041 37.5455 27.9088C38.377 27.3937 39.2522 26.9164 40.0682 26.3374C40.1236 28.1005 40.5373 29.8213 41.2742 31.3532C41.716 32.3578 42.2695 33.2877 42.9198 34.1168C43.2693 34.5933 43.6548 35.0301 44.0715 35.4224L42.8301 35.9245C39.6758 37.0312 36.4314 37.7366 33.1517 38.0286C31.603 38.2162 30.0482 38.2864 28.4953 38.402C26.8327 38.5203 25.1795 38.7853 23.5499 39.1947C22.0517 39.5699 20.5779 40.0733 19.1401 40.7C17.5428 41.3969 14.4895 42.7695 12.9468 43.6306L13.0023 43.9028L13.7875 43.6396C13.6238 44.1867 13.596 44.7783 13.7077 45.3438L13.988 46.3686C14.1111 46.8819 14.0351 47.1361 13.5409 47.2972L13.5717 47.5041C14.1339 47.4515 14.7014 47.6351 14.6969 46.6791C14.6946 46.1959 14.5605 45.7158 14.5369 45.2286C14.4898 44.6366 14.3831 44.0535 14.219 43.492C16.9601 42.5509 23.39 40.3235 24.2884 40.1714C27.4769 39.6702 30.6879 39.3936 33.9038 39.3427C37.1052 39.2703 40.2805 38.645 43.3304 37.486C44.9581 36.8836 46.5376 36.1121 48.0513 35.1804L50.3176 33.7313C50.9949 33.2638 51.6505 32.7537 52.2815 32.2026L52.3844 32.0082L52.3578 31.781L52.2142 31.628L52.0213 31.6213C49.7835 32.697 47.5537 33.8658 45.2848 34.8879C44.9125 34.3098 44.4047 33.8262 44.0206 33.2742C43.4485 32.4432 42.9627 31.5331 42.5733 30.5641C42.1939 29.6449 41.9074 28.6754 41.7206 27.6758C41.6332 26.8727 41.4915 26.0791 41.2963 25.3031L41.3829 25.218C42.3048 24.1019 43.1405 22.8885 43.8797 21.5937C44.8859 20.1397 46.1402 18.9565 47.5598 18.1215C48.9789 17.287 50.5314 16.8204 52.1136 16.7525L52.1162 16.5613Z" fill="black"/>
<path d="M41.4305 22.402C40.7475 22.9878 40.0026 23.4637 39.2151 23.8173C36.2389 25.4896 33.1734 26.9261 30.0384 28.1178C28.3393 28.6132 26.5771 28.7234 24.8438 28.4431C23.4387 28.1889 22.0063 28.2397 20.6167 28.5934C17.2326 30.3389 13.9821 32.4305 10.9014 34.8441C10.7229 35.0142 10.8266 35.3916 11.0716 35.3057C14.0698 33.8548 16.9948 32.197 19.8304 30.3398C22.7804 28.8439 25.8292 30.2026 28.8799 29.6061C32.0107 28.7225 35.0431 27.403 37.9137 25.6745C38.7756 25.2403 39.6785 24.848 40.5291 24.3464C40.4869 24.7657 40.4831 25.1886 40.5177 25.6088C40.9594 25.3951 41.3397 25.0325 41.6109 24.5655L41.9057 23.8484L41.8198 23.4358L41.9117 23.358L42.0371 23.2379L42.1047 22.6008C42.1248 22.2693 43.5413 20.3816 43.533 20.0464C43.326 20.3361 41.6869 22.1613 41.4305 22.402Z" fill="black"/>
<path d="M87.5383 20.8229C86.5803 20.7437 85.8529 19.233 85.3005 18.4327C84.7645 17.5122 84.2817 16.5499 83.8559 15.5516L83.6892 15.5709C83.6652 16.2327 83.7674 16.8927 83.9877 17.5009C83.6793 17.4249 83.3636 17.3975 83.0487 17.4204C82.2898 17.3502 81.5312 17.5675 80.882 18.0413L80.912 18.1447C81.8692 18.106 83.6007 17.631 84.3585 18.5235L84.4082 18.5717C84.5685 18.9302 84.7543 19.2721 84.9636 19.5934C85.6777 20.6223 86.4204 21.5823 87.5656 21.1531C87.5941 21.1383 87.6173 21.1131 87.6329 21.0811C87.6484 21.0497 87.6553 21.0128 87.6522 20.9763C87.6492 20.9399 87.6363 20.9052 87.6162 20.8778C87.5957 20.8504 87.5683 20.831 87.5383 20.8229Z" fill="black"/>
<path d="M96.3032 7.06863C96.0373 5.53181 95.3859 4.12771 94.4351 3.04033C93.4839 1.95341 92.2782 1.23538 90.9768 0.980748C89.5755 0.819238 88.1617 1.05498 86.8515 1.66863C85.5611 2.15945 84.3558 2.92381 83.2941 3.92527C82.2658 4.9969 81.5589 6.82254 80.2325 7.35881C79.434 7.68183 78.5276 7.77631 77.7064 8.00845C76.9843 8.2145 76.2732 8.47273 75.5776 8.78091L75.6388 8.98246C76.4274 8.69363 77.235 8.48578 78.0532 8.36116C78.653 8.27928 79.2577 8.34856 79.856 8.27883C80.781 8.11867 81.619 7.54326 82.1982 6.67048C82.9929 5.47108 83.9555 4.44309 85.0438 3.63194C86.2126 2.90222 87.4829 2.42939 88.793 2.23594C90.0587 1.92012 91.3772 2.13471 92.5251 2.84239C93.6735 3.55006 94.5806 4.70807 95.0934 6.12027C95.7923 7.58375 96.1551 9.24024 96.1456 10.9237C96.1365 12.6068 95.7551 14.2574 95.0398 15.7096C94.9031 15.9058 95.1363 16.2401 95.2966 16.0628C95.76 15.5751 96.1369 14.9822 96.4047 14.319C96.6725 13.6554 96.8259 12.9352 96.8559 12.2001C96.9346 10.4639 96.7473 8.72512 96.3032 7.06863Z" fill="black"/>
<path d="M88.1198 10.9659C86.5042 11.2907 84.8598 11.365 83.2279 11.1868C81.71 10.5619 80.1446 10.1143 78.5537 9.84973C78.3972 9.84973 78.4033 10.1044 78.5097 10.1791C79.1364 10.5826 79.8042 10.8894 80.4967 11.0914C81.2716 11.365 81.9512 11.7851 82.6999 12.1235C83.3214 12.3898 83.9698 12.5567 84.6281 12.6206L84.5742 13.1083C84.5863 13.3346 84.663 13.5487 84.7914 13.7156C84.8575 13.7979 85.0516 13.9347 85.1109 13.753C85.1823 13.5352 85.0334 13.3139 85.0589 13.0817L85.2294 12.6719C86.9411 12.5162 88.6615 12.5671 90.3648 12.823C91.7725 13.3125 93.7056 13.8267 94.3335 15.6348L94.5391 15.5759C94.0202 12.1595 90.6462 10.7482 88.1198 10.9659Z" fill="black"/>
<path d="M92.0651 17.2581C91.7965 17.066 91.4702 17.1191 91.1822 16.9819L90.8081 16.7669L90.3215 16.5811L90.2957 16.6134C90.3918 16.8379 90.3914 17.0516 90.5372 17.2464L90.9843 17.618C91.1598 17.6972 91.3479 17.7305 91.5355 17.7157C91.7228 17.7004 91.9055 17.6369 92.0704 17.5299L92.0651 17.2581Z" fill="black"/>
<path d="M92.848 16.3696C92.5 16.0682 92.0841 15.8976 91.6537 15.8806C91.4421 15.8563 91.2298 15.8999 91.0178 15.8976C90.8173 15.8738 90.6144 15.8828 90.4157 15.9242C90.6683 16.1086 90.9688 16.186 91.234 16.3493L92.0066 16.7043C92.2182 16.7812 92.7834 17.1605 92.9205 16.7529L92.848 16.3696Z" fill="black"/>
<path d="M89.7262 19.4548C89.5223 19.3054 89.2909 19.2182 89.052 19.1997L88.7268 19.1097L88.41 18.9617L88.3287 19.0836L88.5373 19.4076L88.8229 19.7297C88.9225 19.844 89.041 19.9317 89.1709 19.9875C89.3008 20.0437 89.4391 20.0667 89.577 20.055L89.8018 19.857L89.8235 19.7702L89.7262 19.4548Z" fill="black"/>
<path d="M93.1242 10.2626C92.7071 9.39075 92.0803 8.68667 91.3248 8.24083C90.5693 7.79499 89.7191 7.62764 88.8831 7.7599C86.3213 7.82964 83.8746 9.19954 81.2794 9.06773L81.2535 9.26928C82.2195 9.57071 83.2106 9.74256 84.2085 9.78215C85.2691 9.72007 86.3213 9.52706 87.348 9.2054C89.2006 8.72806 91.5972 8.33531 92.9662 10.3648L93.1242 10.2626Z" fill="black"/>
<path d="M91.994 19.0015C91.9074 19.0582 91.8113 19.091 91.7125 19.0987C91.6138 19.1059 91.5146 19.0874 91.4227 19.0438L90.9855 18.7784C90.8844 18.7167 90.7716 18.6884 90.6588 18.6965C90.5456 18.7046 90.4366 18.7482 90.3428 18.8238L90.3314 18.9057C90.4172 19.0978 90.5445 19.2602 90.6994 19.3758C90.8548 19.4914 91.033 19.5571 91.2161 19.5657C91.3775 19.5648 91.5367 19.5202 91.6814 19.4348C91.8261 19.3497 91.9526 19.2264 92.0514 19.0744L91.994 19.0015Z" fill="black"/>
<path d="M76.7726 17.7133L77.361 17.3066C78.4162 15.8935 79.1095 14.1506 79.3579 12.284L79.2151 12.2606C78.7437 13.7952 77.9726 15.175 76.9656 16.2862C76.9238 16.7658 76.8592 17.2422 76.7726 17.7133Z" fill="black"/>
<path d="M74.8866 20.8327L74.6241 21.5696L74.5683 21.764C75.1844 21.9066 75.8131 21.9561 76.4399 21.9107C77.8936 21.7748 78.8797 20.0792 79.9008 19.0327L79.7997 18.8519C78.9614 19.4084 78.1105 19.852 77.2471 20.3383C76.4847 20.6384 75.6893 20.8053 74.8866 20.8327Z" fill="black"/>
<path d="M77.2504 11.6085L77.0677 11.6827C77.9855 15.3128 75.2254 18.4612 73.5734 21.0804C72.6264 22.6631 71.7816 24.3286 71.045 26.0625C70.3408 27.6209 69.5784 29.1532 68.9858 30.7822L68.7294 31.5758C68.963 31.9452 70.1281 30.4916 70.4388 29.8118C70.7681 29.0925 75.6303 20.5959 75.799 20.3367C76.2605 19.6304 76.6624 18.8719 76.999 18.0715C77.7712 16.0336 77.8613 13.7225 77.2504 11.6085Z" fill="black"/>
<path d="M67.0786 34.4691C66.5161 36.2147 65.7218 39.4979 65.0893 41.2071C63.7457 44.8336 62.3163 48.4089 61.2162 52.1573C61.1502 52.3823 61.4305 52.4822 61.5232 52.2973C63.2903 48.7197 64.556 45.328 66.0937 41.6003C66.907 39.286 67.5934 36.9115 68.1487 34.4916C68.4241 33.3736 67.468 33.2593 67.0786 34.4691Z" fill="black"/>
<path d="M80.4884 19.1894C78.9446 20.8094 77.6873 22.7786 76.7904 24.983C76.2404 25.9805 73.1616 26.4749 72.1975 26.7277L71.6942 26.9626L71.4492 28.2735C73.2722 28.2978 75.0845 27.9438 76.8053 27.228C77.6242 26.353 78.2107 25.2129 78.4934 23.9474C79.024 22.3179 79.7488 20.7874 80.6453 19.4031L80.4884 19.1894Z" fill="black"/>
<path d="M63.1436 33.3159C61.7074 36.448 60.5891 39.7723 59.8119 43.2184C59.3773 45.0229 59.0347 46.8607 58.7467 48.7075C58.5682 49.8439 58.3828 50.539 58.2392 51.3672C56.4288 51.3965 54.6606 52.0214 53.1305 53.1726L53.1628 53.2797C54.0406 52.9724 54.9409 52.7632 55.8518 52.6562C56.6017 52.5918 57.339 52.5347 58.0869 52.5086L58.0512 52.9562C58.0356 53.178 58.2837 53.1933 58.3623 53.0444C59.0168 51.8819 59.4396 50.5565 59.5984 49.17C59.9038 47.325 60.2567 45.4984 60.6479 43.6782C61.4335 40.026 62.3262 36.9623 63.3393 33.4041L63.1436 33.3159Z" fill="black"/>
<path d="M69.4448 13.2117C69.2248 14.4327 66.725 21.4469 66.3026 22.9666C65.3035 26.1064 64.5009 29.3298 63.9007 32.6099L63.9273 32.7233L64.0059 32.7944L64.1047 32.7948L64.1841 32.7247C64.9309 31.4038 65.506 29.9569 65.8908 28.4327C66.4891 26.72 67.0467 24.9875 67.6142 23.2595C68.802 20.103 69.5002 16.7172 69.6746 13.2657C69.6784 13.1113 69.4755 13.0448 69.4448 13.2117Z" fill="black"/>
<path d="M76.8794 7.44478C75.0602 7.1942 73.2217 7.22974 71.4105 7.55096C69.5883 8.03279 67.8428 8.86013 66.2417 10.0015C64.5992 11.1456 63.0703 12.5011 61.4726 13.7302C59.6561 15.3228 57.4757 16.2208 55.2201 16.304L55.1965 16.3949C55.9566 16.7764 56.7805 16.9446 57.6045 16.8857C58.4975 16.7264 59.3632 16.3976 60.1689 15.9117L60.4644 15.7349C60.1134 17.6968 60.3106 19.7416 61.0259 21.5582C61.9975 23.8913 63.2275 26.0598 64.6824 28.0051L63.8026 28.2598C62.7614 28.5022 61.7195 28.7371 60.6832 29.0075C59.7636 29.2477 58.8561 29.5248 57.9524 29.8146L57.8677 29.8015C56.8888 29.8901 55.8617 28.621 55.2436 27.8139C54.5394 26.9204 53.9586 25.9005 53.5221 24.7911C53.1187 23.6246 52.9941 22.3482 53.1616 21.1029C53.3291 19.8572 53.7823 18.6911 54.4714 17.7324L54.3525 17.5709C53.7899 17.8957 53.2961 18.3676 52.9086 18.9516C52.5208 19.5355 52.2492 20.2158 52.1136 20.9419C51.8484 22.5075 52.0121 24.1334 52.5816 25.5798C53.1536 27.0127 53.976 28.2845 54.9933 29.3098C55.3834 29.7579 55.8461 30.1074 56.3528 30.3373L53.9654 31.108L53.9905 31.252C56.2974 30.8956 58.5932 30.6756 60.8929 30.215C62.012 29.9909 63.1254 29.7237 64.2399 29.4686L65.1211 29.3138C65.2917 28.8059 65.4607 28.3002 65.5937 27.7766L65.411 27.7919C64.1487 25.9536 63.1428 23.8859 62.4317 21.6684C62.1187 20.5019 61.909 19.2998 61.8057 18.0819C61.7366 16.9847 61.9447 15.8694 61.9068 14.7825C63.0274 13.9727 64.1012 13.0616 65.1899 12.1916C66.0533 11.5014 66.9357 10.7902 67.8504 10.1531C67.0455 11.0749 66.4613 12.2347 66.157 13.5138C65.8588 14.7438 65.8972 16.0547 66.2672 17.2568C66.5179 18.0918 66.9764 18.8162 67.5819 19.3331L67.8182 18.3559L67.8763 18.0163C67.6373 17.6523 67.4425 17.2501 67.2974 16.8218C66.965 15.68 66.9582 14.4401 67.278 13.2938C67.7562 11.6656 68.5752 10.2089 69.6578 9.06123L70.4077 8.71527C72.4992 7.95001 74.6845 7.61439 76.8706 7.72327L76.8794 7.44478Z" fill="black"/>
<path d="M80.8334 25.3223C79.6376 30.191 78.3339 34.3417 76.9747 39.1442C76.3681 41.2934 75.6175 43.3808 74.7305 45.3873L73.3558 48.5784C72.821 49.6118 72.4225 50.7361 72.1744 51.913L72.1824 52.0772L72.2721 52.2027L72.4073 52.2387L72.5334 52.1707C72.7701 51.8837 72.9813 51.5688 73.1647 51.2314C73.5742 51.15 73.978 51.0303 74.3716 50.8742C75.2741 50.6551 76.1896 50.606 77.102 50.4387V50.3536C76.0555 50.0014 74.9831 49.771 73.8994 49.6658L74.2094 48.9284C74.7195 47.7569 75.2376 46.5926 75.7326 45.4098C76.5504 43.5558 77.241 41.6267 77.7979 39.6409C78.4892 37.1647 78.9477 35.2959 79.5247 32.7792C80.2184 30.3665 80.6807 27.8687 80.9036 25.3322L80.8334 25.3223Z" fill="black"/>
<path d="M76.1967 26.515C76.0334 27.2096 75.8697 27.8993 75.6889 28.5674C75.0697 30.8559 74.6203 32.9871 74.0152 35.2815C73.3915 37.6457 73.0025 39.205 72.337 41.5525C71.6175 43.649 71.0113 45.7981 70.5228 47.9863C70.4939 48.1523 70.68 48.299 70.7602 48.1262C71.6692 46.1112 72.4247 44.0039 73.0181 41.8287C73.679 39.5559 74.1436 38.1059 74.7506 35.811C75.3755 33.4491 75.9001 31.2635 76.4129 28.8611C76.7065 27.4858 77.0879 26.0448 77.3679 24.6021C77.1722 25.3799 76.7593 26.0547 76.1967 26.515Z" fill="black"/>
<path d="M53.7253 84.1293L53.5912 83.4918C52.3297 83.373 51.0598 83.4693 49.8214 83.7784L49.8173 83.9084C51.1175 84.1504 52.4296 84.2926 53.745 84.3331L53.7253 84.1293Z" fill="black"/>
<path d="M75.6972 67.0557C74.582 66.3449 73.366 65.8842 72.1102 65.6966C70.9828 65.3263 69.7927 65.32 68.6626 65.6781C68.1688 66.0119 67.7897 66.5415 67.5914 67.1745C67.2541 68.2749 67.1082 69.445 67.1629 70.6143L66.7344 70.6755C65.5549 70.8626 64.3626 70.9103 63.1755 70.8176C62.5708 70.7551 61.9915 70.5913 61.4065 70.5342L60.5518 70.2503C59.302 69.8738 58.0382 69.486 56.7733 69.1962C56.1959 69.0662 55.606 69.0311 55.0206 69.0923C53.3709 69.2673 52.664 77.0765 52.8934 79.6908C52.9815 80.6891 53.1023 81.6815 53.2304 82.6722C53.4324 83.4424 53.5354 84.2441 53.5361 85.0507L53.6053 85.6028C53.8552 87.6997 54.2715 89.7165 54.6085 91.7923C54.6362 91.9619 54.8326 91.898 54.817 91.7338C54.4493 87.9399 53.878 84.1784 53.5179 80.3863C53.3325 78.4005 53.3876 76.394 53.6816 74.4271C53.7705 73.535 53.9251 72.6536 54.1432 71.7939C54.3483 71.3053 54.5249 70.801 54.6727 70.2841C55.0214 70.2188 55.4514 70.2247 55.7234 70.2035C56.3065 70.1698 56.8907 70.231 57.4601 70.3853C58.6563 70.6822 59.8775 71.0133 61.0517 71.4169C62.6577 72.0094 64.2273 72.7333 65.7494 73.5831C66.3299 73.921 66.9411 74.1788 67.5705 74.352C68.4221 74.4127 69.2654 74.5881 70.0836 74.8752C70.2451 74.9602 70.3469 74.6741 70.1946 74.572C68.6584 73.732 67.085 72.9919 65.4812 72.3558L64.6361 71.9311C65.2617 71.955 65.8877 71.9388 66.5118 71.8825C68.9319 71.6828 71.2058 70.5171 73.6065 70.2688C73.7934 70.249 73.8169 69.863 73.6186 69.8526C71.5256 69.8729 69.4383 70.1163 67.3821 70.5801C67.5648 69.6263 67.8645 68.6996 68.0161 67.7346C68.0761 67.3521 68.0943 66.8172 68.367 66.6755C68.7032 66.5828 69.047 66.5361 69.3919 66.5365C70.4183 66.3916 71.4568 66.4159 72.4779 66.6094C73.5343 66.8339 74.5105 67.3805 75.5487 67.6621C75.8602 67.7463 75.9293 67.2293 75.6972 67.0557Z" fill="black"/>
<path d="M50.0821 74.9215C50.5068 74.0284 51.088 73.2537 51.7862 72.6509C52.2147 72.3202 53.5282 71.6985 53.9898 71.4443L54.2063 70.6426L52.1455 71.2931C51.6707 71.4294 51.2198 71.6661 50.8153 71.9913C50.0236 72.6918 49.3737 73.5934 48.9122 74.6304C48.3507 75.841 48.0347 77.1911 47.9891 78.5732C47.9439 79.9548 48.1707 81.3301 48.6516 82.5889L48.8047 82.5466C48.5536 79.9089 49.0003 77.2438 50.0821 74.9215Z" fill="black"/>
<path d="M56.3639 74.2701C56.953 76.7765 57.1885 79.3818 57.0609 81.9799C57.0343 84.0093 57.1513 91.6097 57.1608 93.1227L57.2501 93.1407C57.6417 89.0377 57.8552 84.9136 57.8905 80.7845C58.039 75.3701 56.7016 74.7376 56.3639 74.2701Z" fill="black"/>
<path d="M72.9098 81.7504C72.1842 82.2628 71.3778 82.5913 70.541 82.7154C69.7037 82.8396 68.854 82.7568 68.0449 82.4725C66.8092 81.8912 65.6966 80.8493 64.4924 80.1547C61.9789 78.8842 59.612 77.2371 57.4491 75.254C57.1296 74.6746 56.714 74.1793 56.2282 73.7973L56.1602 73.8553C56.3691 74.4496 56.6259 75.0187 56.9267 75.5541L57.0339 75.7998C57.4567 76.2505 57.9037 77.5107 65.0615 81.7878C66.1961 82.8117 67.5135 83.5117 68.9121 83.833C70.4422 83.8761 71.9347 83.2643 73.1176 82.109C73.1373 82.0928 73.1544 82.0721 73.1673 82.0478C73.1802 82.024 73.1894 81.997 73.1935 81.9691C73.1981 81.9407 73.1977 81.9119 73.1928 81.884C73.1875 81.8561 73.178 81.8296 73.1643 81.8062C73.1506 81.7824 73.1331 81.7626 73.113 81.7468C73.0929 81.7315 73.0705 81.7207 73.0469 81.7153C73.023 81.7104 72.9987 81.7108 72.9755 81.7167C72.9519 81.723 72.9295 81.7342 72.9098 81.7504Z" fill="black"/>
<path d="M72.6789 83.8002C71.24 84.9483 69.6241 85.7464 67.9246 86.1473C66.5981 86.2386 65.2777 85.8755 64.1195 85.1013L64.0709 85.0549C63.7252 84.6883 63.43 84.2591 63.1964 83.7835C62.9829 83.2342 62.7953 82.671 62.6342 82.0969L62.5081 82.0911C62.4006 82.4127 62.3512 82.7578 62.3638 83.1033C62.3759 83.4493 62.4496 83.788 62.5795 84.098C61.288 83.4839 59.8654 83.375 58.5184 83.7871L58.5048 83.8875C59.2546 84.3122 59.9843 83.6409 62.1252 84.4872C62.4561 84.6419 62.7698 84.8435 63.0601 85.0873L63.4278 85.597L64.0511 86.1945L63.7655 86.3299C62.9491 86.7663 62.096 87.0979 61.2204 87.3197V87.3714C61.9858 87.4834 62.7622 87.4051 63.5007 87.1411C64.0253 87.0556 64.5457 86.9373 65.0596 86.7865L65.3145 86.8716C65.9531 87.2027 66.6406 87.3799 67.3369 87.393C68.4298 87.4438 69.5169 87.1833 70.5076 86.6331C71.5264 86.0451 71.8493 84.7099 72.797 84.0755L72.6789 83.8002Z" fill="black"/>
<path d="M81.6458 18.8708L81.3871 18.9451C81.04 19.4697 81.2709 20.3244 81.2865 20.9583C81.2975 21.8599 81.3518 22.7597 81.4483 23.6541C81.5926 22.5973 82.8029 19.5394 81.6458 18.8708Z" fill="black"/>
<path d="M63.4654 55.2021C61.8745 54.4836 60.1416 54.3338 58.4801 54.7707C57.6235 55.0982 56.7487 55.3537 55.8617 55.535C55.1582 55.6174 54.4737 55.8544 53.8427 56.2341L53.8712 56.3291C55.388 55.9507 56.9473 56.2764 58.4527 55.8778C59.3811 55.5634 60.3452 55.4266 61.3093 55.4711C62.0257 55.6677 62.7653 55.7127 63.4946 55.6043C63.6785 55.5512 63.6154 55.2462 63.4654 55.2021Z" fill="black"/>
<path d="M75.8021 52.3705C74.6317 52.3529 73.4625 52.4523 72.3062 52.6678C71.7167 52.7857 71.1165 52.8127 70.5209 52.7484C69.9606 52.6939 69.4071 52.5599 68.873 52.3502L68.8016 52.4901C69.1314 52.9274 69.5367 53.2747 69.9898 53.5087C70.443 53.7422 70.933 53.8569 71.4269 53.8443C72.0517 53.7552 72.6633 53.5649 73.2449 53.2783C74.0821 53.0475 74.9326 52.8892 75.7892 52.8046C75.9825 52.7722 76.0141 52.3966 75.8021 52.3705Z" fill="black"/>
<path d="M74.98 87.3358C73.9491 86.9237 72.8866 86.6322 71.8078 86.4648L72.1459 85.7518L72.7962 84.4129L72.8319 83.9657C72.6093 84.1074 72.3712 84.2118 72.1246 84.2752L71.6281 84.6851L71.3091 85.3482C70.7351 86.3496 70.2937 87.4501 70.0001 88.6108L70.0016 88.7759L70.0863 88.9064L70.22 88.95L70.3488 88.8893C70.5961 88.6157 70.8198 88.3139 71.0158 87.9872C71.428 87.9292 71.8359 87.8329 72.2352 87.6993C73.1449 87.5329 74.0612 87.5355 74.9793 87.4208L74.98 87.3358Z" fill="black"/>
<path d="M74.1462 89.3378C72.9762 89.3198 71.8066 89.4197 70.6507 89.6347C70.0608 89.7526 69.4606 89.7796 68.8654 89.7157C68.291 89.5074 67.7383 89.2235 67.2172 88.869L67.1458 89.0089C67.4576 89.5056 67.8511 89.9217 68.3024 90.2317C68.7537 90.5417 69.2536 90.7387 69.771 90.8112C70.3958 90.7221 71.0074 90.5318 71.589 90.2452C72.4266 90.0144 73.2767 89.8561 74.1333 89.7715C74.327 89.7396 74.3586 89.3634 74.1462 89.3378Z" fill="black"/>
<path d="M56.1504 53.2508C55.4043 53.3317 54.6685 53.5171 53.9586 53.8028C53.3542 54.0966 52.83 54.6099 52.2253 54.9185C52.6537 55.4737 53.3048 55.1871 53.8195 55.013C54.7202 54.8555 55.5779 54.4515 56.3247 53.832C56.501 53.6422 56.4379 53.1981 56.1504 53.2508Z" fill="black"/>
<path d="M61.3423 95.8044C59.7515 95.0859 58.0189 94.9361 56.357 95.373C55.5005 95.7005 54.6256 95.956 53.739 96.1373C53.0355 96.2196 52.3506 96.4567 51.7197 96.8364L51.7486 96.9314C53.2654 96.553 54.8247 96.8787 56.3301 96.4801C57.2581 96.1657 58.2222 96.0289 59.1866 96.0734C59.9027 96.2696 60.6426 96.3146 61.372 96.2066C61.5562 96.1544 61.4928 95.848 61.3423 95.8044Z" fill="black"/>
<path d="M54.0281 93.8534C53.2816 93.9344 52.5462 94.1197 51.8363 94.4054C51.2319 94.6996 50.7077 95.2125 50.1026 95.5211C50.5311 96.0758 51.1821 95.7879 51.6965 95.6138C52.5975 95.4568 53.4552 95.0523 54.2016 94.4333C54.3783 94.2434 54.3148 93.8003 54.0281 93.8534Z" fill="black"/>
<path d="M54.2514 92.1432C53.5802 92.1617 52.9203 92.3551 52.319 92.7106C51.7177 93.0655 51.1889 93.5735 50.7711 94.1988L50.8148 94.2744C51.3808 93.9936 51.9297 93.6769 52.5105 93.4407C53.0966 93.2023 53.7363 93.0948 54.3015 92.8014C54.3585 92.7731 54.4067 92.7236 54.4387 92.6606C54.4709 92.5976 54.485 92.5238 54.4797 92.4505C54.474 92.3772 54.4489 92.3079 54.4079 92.2526C54.3669 92.1972 54.3118 92.159 54.2514 92.1432Z" fill="black"/>
</svg>
